<svg xmlns="http://www.w3.org/2000/svg" xmlns:xlink="http://www.w3.org/1999/xlink" width="840" height="951.82"><rect width="840" height="951.82" rx="0" ry="0" class="a"></rect><svg height="911.82" viewBox="0 0 80 91.182" width="800" x="20" xmlns="http://www.w3.org/2000/svg" xmlns:xlink="http://www.w3.org/1999/xlink" y="20"><style>.a{fill:rgb(40,45,53)}.b{font-family:'Fira Code',Monaco,Consolas,Menlo,'Bitstream Vera Sans Mono','Powerline Symbols',monospace}.c{fill:transparent}.d{fill:rgb(185,192,203);white-space:pre}.e{fill:rgb(102,194,205);white-space:pre}.f{fill:rgb(185,192,203);font-weight:bold;white-space:pre}</style><g font-family="&#x27;Fira Code&#x27;,Monaco,Consolas,Menlo,&#x27;Bitstream Vera Sans Mono&#x27;,&#x27;Powerline Symbols&#x27;,monospace" font-size="1.67" class="b"><defs><symbol id="a"><rect height="42" width="80" x="0" y="0" class="c"></rect></symbol></defs><rect height="91.182" width="80" class="a"></rect><svg x="0" y="0" width="80"><svg x="0"><use xlink:href="#a"></use><text font-size="1.67" x="0" y="1.67" class="d">&gt;</text><text font-size="1.67" x="2.004" y="1.67" class="d">library(orbital)</text><text font-size="1.67" x="0" y="3.8409999999999997" class="d">&gt;</text><text font-size="1.67" x="0" y="6.012" class="d">&gt;</text><text font-size="1.67" x="2.004" y="6.012" class="d">orbital_obj</text><text font-size="1.67" x="14.027999999999999" y="6.012" class="d">&lt;-</text><text font-size="1.67" x="17.034" y="6.012" class="d">orbital(wf_fit)</text><text font-size="1.67" x="0" y="8.183" class="d">&gt;</text><text font-size="1.67" x="2.004" y="8.183" class="d">orbital_obj</text><text font-size="1.67" x="0" y="12.525" class="e">──</text><text font-size="1.67" x="3.006" y="12.525" class="f">orbital</text><text font-size="1.67" x="11.021999999999998" y="12.525" class="f">Object</text><text font-size="1.67" x="18.035999999999998" y="12.525" class="e">──────────────────────────────────────────────────────────────</text><text font-size="1.67" x="0" y="14.696" class="d">•</text><text font-size="1.67" x="2.004" y="14.696" class="d">species</text><text font-size="1.67" x="10.02" y="14.696" class="d">=</text><text font-size="1.67" x="12.024" y="14.696" class="d">dplyr::if_else(is.na(species),</text><text font-size="1.67" x="43.086" y="14.696" class="d">&quot;unknown&quot;,</text><text font-size="1.67" x="54.108" y="14.696" class="d">species)</text><text font-size="1.67" x="0" y="16.866999999999997" class="d">•</text><text font-size="1.67" x="2.004" y="16.866999999999997" class="d">island</text><text font-size="1.67" x="9.017999999999999" y="16.866999999999997" class="d">=</text><text font-size="1.67" x="11.021999999999998" y="16.866999999999997" class="d">dplyr::if_else(is.na(island),</text><text font-size="1.67" x="41.082" y="16.866999999999997" class="d">&quot;unknown&quot;,</text><text font-size="1.67" x="52.104" y="16.866999999999997" class="d">island)</text><text font-size="1.67" x="0" y="19.037999999999997" class="d">•</text><text font-size="1.67" x="2.004" y="19.037999999999997" class="d">sex</text><text font-size="1.67" x="6.012" y="19.037999999999997" class="d">=</text><text font-size="1.67" x="8.016" y="19.037999999999997" class="d">dplyr::if_else(is.na(sex),</text><text font-size="1.67" x="35.06999999999999" y="19.037999999999997" class="d">&quot;unknown&quot;,</text><text font-size="1.67" x="46.09199999999999" y="19.037999999999997" class="d">sex)</text><text font-size="1.67" x="0" y="21.209000000000003" class="d">•</text><text font-size="1.67" x="2.004" y="21.209000000000003" class="d">bill_length_mm</text><text font-size="1.67" x="17.034" y="21.209000000000003" class="d">=</text><text font-size="1.67" x="19.037999999999997" y="21.209000000000003" class="d">dplyr::if_else(is.na(bill_length_mm),</text><text font-size="1.67" x="57.114" y="21.209000000000003" class="d">43.55,</text><text font-size="1.67" x="64.128" y="21.209000000000003" class="d">bill_leng</text><text font-size="1.67" x="74.148" y="21.209000000000003" class="d">...</text><text font-size="1.67" x="0" y="23.380000000000003" class="d">•</text><text font-size="1.67" x="2.004" y="23.380000000000003" class="d">bill_depth_mm</text><text font-size="1.67" x="16.032" y="23.380000000000003" class="d">=</text><text font-size="1.67" x="18.035999999999998" y="23.380000000000003" class="d">dplyr::if_else(is.na(bill_depth_mm),</text><text font-size="1.67" x="55.10999999999999" y="23.380000000000003" class="d">17.5,</text><text font-size="1.67" x="61.12199999999999" y="23.380000000000003" class="d">bill_depth_m</text><text font-size="1.67" x="74.148" y="23.380000000000003" class="d">...</text><text font-size="1.67" x="0" y="25.550999999999995" class="d">•</text><text font-size="1.67" x="2.004" y="25.550999999999995" class="d">flipper_length_mm</text><text font-size="1.67" x="20.04" y="25.550999999999995" class="d">=</text><text font-size="1.67" x="22.043999999999997" y="25.550999999999995" class="d">dplyr::if_else(is.na(flipper_length_mm),</text><text font-size="1.67" x="63.12599999999999" y="25.550999999999995" class="d">197,</text><text font-size="1.67" x="68.136" y="25.550999999999995" class="d">flipp</text><text font-size="1.67" x="74.148" y="25.550999999999995" class="d">...</text><text font-size="1.67" x="0" y="27.722" class="d">•</text><text font-size="1.67" x="2.004" y="27.722" class="d">species_Adelie</text><text font-size="1.67" x="17.034" y="27.722" class="d">=</text><text font-size="1.67" x="19.037999999999997" y="27.722" class="d">as.numeric(species</text><text font-size="1.67" x="38.07599999999999" y="27.722" class="d">==</text><text font-size="1.67" x="41.082" y="27.722" class="d">&quot;Adelie&quot;)</text><text font-size="1.67" x="0" y="29.893" class="d">•</text><text font-size="1.67" x="2.004" y="29.893" class="d">species_Chinstrap</text><text font-size="1.67" x="20.04" y="29.893" class="d">=</text><text font-size="1.67" x="22.043999999999997" y="29.893" class="d">as.numeric(species</text><text font-size="1.67" x="41.082" y="29.893" class="d">==</text><text font-size="1.67" x="44.087999999999994" y="29.893" class="d">&quot;Chinstrap&quot;)</text><text font-size="1.67" x="0" y="32.064" class="d">•</text><text font-size="1.67" x="2.004" y="32.064" class="d">species_Gentoo</text><text font-size="1.67" x="17.034" y="32.064" class="d">=</text><text font-size="1.67" x="19.037999999999997" y="32.064" class="d">as.numeric(species</text><text font-size="1.67" x="38.07599999999999" y="32.064" class="d">==</text><text font-size="1.67" x="41.082" y="32.064" class="d">&quot;Gentoo&quot;)</text><text font-size="1.67" x="0" y="34.235" class="d">•</text><text font-size="1.67" x="2.004" y="34.235" class="d">species_unknown</text><text font-size="1.67" x="18.035999999999998" y="34.235" class="d">=</text><text font-size="1.67" x="20.04" y="34.235" class="d">as.numeric(species</text><text font-size="1.67" x="39.077999999999996" y="34.235" class="d">==</text><text font-size="1.67" x="42.083999999999996" y="34.235" class="d">&quot;unknown&quot;)</text><text font-size="1.67" x="0" y="36.406" class="d">•</text><text font-size="1.67" x="2.004" y="36.406" class="d">island_Biscoe</text><text font-size="1.67" x="16.032" y="36.406" class="d">=</text><text font-size="1.67" x="18.035999999999998" y="36.406" class="d">as.numeric(island</text><text font-size="1.67" x="36.071999999999996" y="36.406" class="d">==</text><text font-size="1.67" x="39.077999999999996" y="36.406" class="d">&quot;Biscoe&quot;)</text><text font-size="1.67" x="0" y="38.577000000000005" class="d">•</text><text font-size="1.67" x="2.004" y="38.577000000000005" class="d">island_Dream</text><text font-size="1.67" x="15.029999999999998" y="38.577000000000005" class="d">=</text><text font-size="1.67" x="17.034" y="38.577000000000005" class="d">as.numeric(island</text><text font-size="1.67" x="35.06999999999999" y="38.577000000000005" class="d">==</text><text font-size="1.67" x="38.07599999999999" y="38.577000000000005" class="d">&quot;Dream&quot;)</text><text font-size="1.67" x="0" y="40.748000000000005" class="d">•</text><text font-size="1.67" x="2.004" y="40.748000000000005" class="d">island_Torgersen</text><text font-size="1.67" x="19.037999999999997" y="40.748000000000005" class="d">=</text><text font-size="1.67" x="21.041999999999998" y="40.748000000000005" class="d">as.numeric(island</text><text font-size="1.67" x="39.077999999999996" y="40.748000000000005" class="d">==</text><text font-size="1.67" x="42.083999999999996" y="40.748000000000005" class="d">&quot;Torgersen&quot;)</text><text font-size="1.67" x="0" y="42.919" class="d">•</text><text font-size="1.67" x="2.004" y="42.919" class="d">island_unknown</text><text font-size="1.67" x="17.034" y="42.919" class="d">=</text><text font-size="1.67" x="19.037999999999997" y="42.919" class="d">as.numeric(island</text><text font-size="1.67" x="37.074" y="42.919" class="d">==</text><text font-size="1.67" x="40.08" y="42.919" class="d">&quot;unknown&quot;)</text><text font-size="1.67" x="0" y="45.09" class="d">•</text><text font-size="1.67" x="2.004" y="45.09" class="d">sex_female</text><text font-size="1.67" x="13.026" y="45.09" class="d">=</text><text font-size="1.67" x="15.029999999999998" y="45.09" class="d">as.numeric(sex</text><text font-size="1.67" x="30.059999999999995" y="45.09" class="d">==</text><text font-size="1.67" x="33.065999999999995" y="45.09" class="d">&quot;female&quot;)</text><text font-size="1.67" x="0" y="47.261" class="d">•</text><text font-size="1.67" x="2.004" y="47.261" class="d">sex_male</text><text font-size="1.67" x="11.021999999999998" y="47.261" class="d">=</text><text font-size="1.67" x="13.026" y="47.261" class="d">as.numeric(sex</text><text font-size="1.67" x="28.055999999999997" y="47.261" class="d">==</text><text font-size="1.67" x="31.061999999999998" y="47.261" class="d">&quot;male&quot;)</text><text font-size="1.67" x="0" y="49.431999999999995" class="d">•</text><text font-size="1.67" x="2.004" y="49.431999999999995" class="d">sex_unknown</text><text font-size="1.67" x="14.027999999999999" y="49.431999999999995" class="d">=</text><text font-size="1.67" x="16.032" y="49.431999999999995" class="d">as.numeric(sex</text><text font-size="1.67" x="31.061999999999998" y="49.431999999999995" class="d">==</text><text font-size="1.67" x="34.068" y="49.431999999999995" class="d">&quot;unknown&quot;)</text><text font-size="1.67" x="0" y="51.603" class="d">•</text><text font-size="1.67" x="2.004" y="51.603" class="d">bill_length_mm</text><text font-size="1.67" x="17.034" y="51.603" class="d">=</text><text font-size="1.67" x="19.037999999999997" y="51.603" class="d">bill_length_mm</text><text font-size="1.67" x="34.068" y="51.603" class="d">/</text><text font-size="1.67" x="36.071999999999996" y="51.603" class="d">5.41963</text><text font-size="1.67" x="0" y="53.774" class="d">•</text><text font-size="1.67" x="2.004" y="53.774" class="d">bill_depth_mm</text><text font-size="1.67" x="16.032" y="53.774" class="d">=</text><text font-size="1.67" x="18.035999999999998" y="53.774" class="d">bill_depth_mm</text><text font-size="1.67" x="32.064" y="53.774" class="d">/</text><text font-size="1.67" x="34.068" y="53.774" class="d">2.018425</text><text font-size="1.67" x="0" y="55.945" class="d">•</text><text font-size="1.67" x="2.004" y="55.945" class="d">flipper_length_mm</text><text font-size="1.67" x="20.04" y="55.945" class="d">=</text><text font-size="1.67" x="22.043999999999997" y="55.945" class="d">flipper_length_mm</text><text font-size="1.67" x="40.08" y="55.945" class="d">/</text><text font-size="1.67" x="42.083999999999996" y="55.945" class="d">13.38035</text><text font-size="1.67" x="0" y="58.11600000000001" class="d">•</text><text font-size="1.67" x="2.004" y="58.11600000000001" class="d">species_Chinstrap</text><text font-size="1.67" x="20.04" y="58.11600000000001" class="d">=</text><text font-size="1.67" x="22.043999999999997" y="58.11600000000001" class="d">species_Chinstrap</text><text font-size="1.67" x="40.08" y="58.11600000000001" class="d">/</text><text font-size="1.67" x="42.083999999999996" y="58.11600000000001" class="d">0.4059718</text><text font-size="1.67" x="0" y="60.287" class="d">•</text><text font-size="1.67" x="2.004" y="60.287" class="d">species_Gentoo</text><text font-size="1.67" x="17.034" y="60.287" class="d">=</text><text font-size="1.67" x="19.037999999999997" y="60.287" class="d">species_Gentoo</text><text font-size="1.67" x="34.068" y="60.287" class="d">/</text><text font-size="1.67" x="36.071999999999996" y="60.287" class="d">0.4745838</text><text font-size="1.67" x="0" y="62.458" class="d">•</text><text font-size="1.67" x="2.004" y="62.458" class="d">island_Dream</text><text font-size="1.67" x="15.029999999999998" y="62.458" class="d">=</text><text font-size="1.67" x="17.034" y="62.458" class="d">island_Dream</text><text font-size="1.67" x="30.059999999999995" y="62.458" class="d">/</text><text font-size="1.67" x="32.064" y="62.458" class="d">0.4829825</text><text font-size="1.67" x="0" y="64.629" class="d">•</text><text font-size="1.67" x="2.004" y="64.629" class="d">island_Torgersen</text><text font-size="1.67" x="19.037999999999997" y="64.629" class="d">=</text><text font-size="1.67" x="21.041999999999998" y="64.629" class="d">island_Torgersen</text><text font-size="1.67" x="38.07599999999999" y="64.629" class="d">/</text><text font-size="1.67" x="40.08" y="64.629" class="d">0.3745708</text><text font-size="1.67" x="0" y="66.8" class="d">•</text><text font-size="1.67" x="2.004" y="66.8" class="d">sex_male</text><text font-size="1.67" x="11.021999999999998" y="66.8" class="d">=</text><text font-size="1.67" x="13.026" y="66.8" class="d">sex_male</text><text font-size="1.67" x="22.043999999999997" y="66.8" class="d">/</text><text font-size="1.67" x="24.048" y="66.8" class="d">0.500964143.55844</text><text font-size="1.67" x="0" y="68.971" class="d">•</text><text font-size="1.67" x="2.004" y="68.971" class="d">bill_length_mm</text><text font-size="1.67" x="17.034" y="68.971" class="d">=</text><text font-size="1.67" x="19.037999999999997" y="68.971" class="d">bill_length_mm</text><text font-size="1.67" x="34.068" y="68.971" class="d">-</text><text font-size="1.67" x="36.071999999999996" y="68.971" class="d">8.082165</text><text font-size="1.67" x="0" y="71.142" class="d">•</text><text font-size="1.67" x="2.004" y="71.142" class="d">bill_depth_mm</text><text font-size="1.67" x="16.032" y="71.142" class="d">=</text><text font-size="1.67" x="18.035999999999998" y="71.142" class="d">bill_depth_mm</text><text font-size="1.67" x="32.064" y="71.142" class="d">-</text><text font-size="1.67" x="34.068" y="71.142" class="d">8.546074</text><text font-size="1.67" x="0" y="73.313" class="d">•</text><text font-size="1.67" x="2.004" y="73.313" class="d">flipper_length_mm</text><text font-size="1.67" x="20.04" y="73.313" class="d">=</text><text font-size="1.67" x="22.043999999999997" y="73.313" class="d">flipper_length_mm</text><text font-size="1.67" x="40.08" y="73.313" class="d">-</text><text font-size="1.67" x="42.083999999999996" y="73.313" class="d">14.98758</text><text font-size="1.67" x="0" y="75.48400000000001" class="d">•</text><text font-size="1.67" x="2.004" y="75.48400000000001" class="d">species_Chinstrap</text><text font-size="1.67" x="20.04" y="75.48400000000001" class="d">=</text><text font-size="1.67" x="22.043999999999997" y="75.48400000000001" class="d">species_Chinstrap</text><text font-size="1.67" x="40.08" y="75.48400000000001" class="d">-</text><text font-size="1.67" x="42.083999999999996" y="75.48400000000001" class="d">0.5099646</text><text font-size="1.67" x="0" y="77.655" class="d">•</text><text font-size="1.67" x="2.004" y="77.655" class="d">species_Gentoo</text><text font-size="1.67" x="17.034" y="77.655" class="d">=</text><text font-size="1.67" x="19.037999999999997" y="77.655" class="d">species_Gentoo</text><text font-size="1.67" x="34.068" y="77.655" class="d">-</text><text font-size="1.67" x="36.071999999999996" y="77.655" class="d">0.716088</text><text font-size="1.67" x="0" y="79.82600000000001" class="d">•</text><text font-size="1.67" x="2.004" y="79.82600000000001" class="d">island_Dream</text><text font-size="1.67" x="15.029999999999998" y="79.82600000000001" class="d">=</text><text font-size="1.67" x="17.034" y="79.82600000000001" class="d">island_Dream</text><text font-size="1.67" x="30.059999999999995" y="79.82600000000001" class="d">-</text><text font-size="1.67" x="32.064" y="79.82600000000001" class="d">0.7602502</text><text font-size="1.67" x="0" y="81.997" class="d">•</text><text font-size="1.67" x="2.004" y="81.997" class="d">island_Torgersen</text><text font-size="1.67" x="19.037999999999997" y="81.997" class="d">=</text><text font-size="1.67" x="21.041999999999998" y="81.997" class="d">island_Torgersen</text><text font-size="1.67" x="38.07599999999999" y="81.997" class="d">-</text><text font-size="1.67" x="40.08" y="81.997" class="d">0.4484299</text><text font-size="1.67" x="0" y="84.16799999999999" class="d">•</text><text font-size="1.67" x="2.004" y="84.16799999999999" class="d">sex_male</text><text font-size="1.67" x="11.021999999999998" y="84.16799999999999" class="d">=</text><text font-size="1.67" x="13.026" y="84.16799999999999" class="d">sex_male</text><text font-size="1.67" x="22.043999999999997" y="84.16799999999999" class="d">-</text><text font-size="1.67" x="24.048" y="84.16799999999999" class="d">0.990278</text><text font-size="1.67" x="0" y="86.339" class="d">•</text><text font-size="1.67" x="2.004" y="86.339" class="d">.pred</text><text font-size="1.67" x="8.016" y="86.339" class="d">=</text><text font-size="1.67" x="10.02" y="86.339" class="d">case_when(sex_male</text><text font-size="1.67" x="29.058" y="86.339" class="d">&lt;=</text><text font-size="1.67" x="32.064" y="86.339" class="d">-0.990278</text><text font-size="1.67" x="42.083999999999996" y="86.339" class="d">&amp;</text><text font-size="1.67" x="44.087999999999994" y="86.339" class="d">bill_length_mm</text><text font-size="1.67" x="59.117999999999995" y="86.339" class="d">&lt;=</text><text font-size="1.67" x="62.123999999999995" y="86.339" class="d">-0.2033984</text><text font-size="1.67" x="73.146" y="86.339" class="d">...</text><text font-size="1.67" x="0" y="88.51" class="d">────────────────────────────────────────────────────────────────────────────────</text><text font-size="1.67" x="0" y="90.681" class="d">34</text><text font-size="1.67" x="3.006" y="90.681" class="d">equations</text><text font-size="1.67" x="13.026" y="90.681" class="d">in</text><text font-size="1.67" x="16.032" y="90.681" class="d">total.</text></svg></svg></g></svg></svg>