<?xml version="1.0" encoding="UTF-8"?><svg xmlns="http://www.w3.org/2000/svg" xmlns:xlink="http://www.w3.org/1999/xlink" viewBox="0 0 1280 720"><defs><linearGradient id="o" x1="222.38" y1="594.83" x2="144.08" y2="657.94" gradientTransform="translate(-403.06 907.13) rotate(-104.35)" gradientUnits="userSpaceOnUse"><stop offset="0" stop-color="#8f2ab9"/><stop offset="0" stop-color="#8f2ab9"/><stop offset=".36" stop-color="#9d77d1"/><stop offset=".65" stop-color="#a8b0e2"/><stop offset=".86" stop-color="#aed2ed"/><stop offset=".98" stop-color="#b1e0f2"/></linearGradient><linearGradient id="p" x1="205.69" y1="542.42" x2="127.39" y2="605.53" xlink:href="#o"/><linearGradient id="q" x1="155.69" y1="613.42" x2="77.39" y2="676.53" xlink:href="#o"/></defs><g id="c"><rect width="1280" height="720" style="fill:#280649;"/><g><path d="m196.15,117.35s-3.37-.13-4.35.2-3.52,2.38-3.52,2.38c0,0,.16-3.26-.16-4.24s-2.41-3.63-2.41-3.63c0,0,3.37.13,4.35-.2s3.52-2.38,3.52-2.38c0,0-.13,3.37.2,4.35s2.38,3.52,2.38,3.52Z" style="fill:#327ea7;"/><path d="m147.66,398.3s1.54-3.03,1.66-4.07-.69-4.23-.69-4.23c0,0,2.92,1.53,3.95,1.65s4.35-.67,4.35-.67c0,0-1.54,3.03-1.66,4.07s.69,4.23.69,4.23c0,0-3.03-1.54-4.07-1.66s-4.23.69-4.23.69Z" style="fill:#327ea7;"/><path d="m189.23,441.51s3.27,2.38,4.47,2.72,5.09-.01,5.09-.01c0,0-2.34,3.14-2.68,4.33s-.03,5.23-.03,5.23c0,0-3.27-2.38-4.47-2.72s-5.09.01-5.09.01c0,0,2.38-3.27,2.72-4.47s-.01-5.09-.01-5.09Z" style="fill:#327ea7;"/><path d="m323.9,173.12s-2.6,4.91-2.83,6.6,1,6.92,1,6.92c0,0-4.72-2.58-6.41-2.81s-7.11.98-7.11.98c0,0,2.6-4.91,2.83-6.6s-1-6.92-1-6.92c0,0,4.91,2.6,6.6,2.83s6.92-1,6.92-1Z" style="fill:#327ea7;"/><path d="m429.84,343.81s-3.91,1.47-4.88,2.31-2.88,4.4-2.88,4.4c0,0-1.38-3.8-2.22-4.77s-4.5-2.99-4.5-2.99c0,0,3.91-1.47,4.88-2.31s2.88-4.4,2.88-4.4c0,0,1.47,3.91,2.31,4.88s4.4,2.88,4.4,2.88Z" style="fill:#327ea7;"/><path d="m476.38,227.73s-4.81.4-6.15,1.02-4.59,3.98-4.59,3.98c0,0-.33-4.66-.95-6s-4.05-4.74-4.05-4.74c0,0,4.81-.4,6.15-1.02s4.59-3.98,4.59-3.98c0,0,.4,4.81,1.02,6.15s3.98,4.59,3.98,4.59Z" style="fill:#327ea7;"/><path d="m586.36,99.56s1.13,4.28,1.91,5.4,4.33,3.52,4.33,3.52c0,0-4.16,1.04-5.27,1.82s-3.64,4.42-3.64,4.42c0,0-1.13-4.28-1.91-5.4s-4.33-3.52-4.33-3.52c0,0,4.28-1.13,5.4-1.91s3.52-4.33,3.52-4.33Z" style="fill:#327ea7;"/><path d="m721.11,347.74s-.35,3.04-.13,3.95,1.9,3.35,1.9,3.35c0,0-2.93-.37-3.85-.15s-3.45,1.93-3.45,1.93c0,0,.35-3.04.13-3.95s-1.9-3.35-1.9-3.35c0,0,3.04.35,3.95.13s3.35-1.9,3.35-1.9Z" style="fill:#327ea7;"/><path d="m755.4,363.89s-2.53,2.53-2.99,3.53-.69,4.45-.69,4.45c0,0-2.42-2.48-3.42-2.94s-4.57-.74-4.57-.74c0,0,2.53-2.53,2.99-3.53s.69-4.45.69-4.45c0,0,2.53,2.53,3.53,2.99s4.45.69,4.45.69Z" style="fill:#327ea7;"/><path d="m766.68,135.87s5.42-1.51,6.82-2.51,4.39-5.56,4.39-5.56c0,0,1.39,5.26,2.4,6.66s5.67,4.55,5.67,4.55c0,0-5.42,1.51-6.82,2.51s-4.39,5.56-4.39,5.56c0,0-1.51-5.42-2.51-6.82s-5.56-4.39-5.56-4.39Z" style="fill:#327ea7;"/><path d="m965.61,120.19s2.64,1.56,3.56,1.73,3.84-.38,3.84-.38c0,0-1.54,2.53-1.71,3.46s.36,3.94.36,3.94c0,0-2.64-1.56-3.56-1.73s-3.84.38-3.84.38c0,0,1.56-2.64,1.73-3.56s-.38-3.84-.38-3.84Z" style="fill:#327ea7;"/><path d="m983.67,357.95s4.08-2.12,5.03-3.16,2.57-5.19,2.57-5.19c0,0,2,3.97,3.05,4.92s5.31,2.68,5.31,2.68c0,0-4.08,2.12-5.03,3.16s-2.57,5.19-2.57,5.19c0,0-2.12-4.08-3.16-5.03s-5.19-2.57-5.19-2.57Z" style="fill:#327ea7;"/><path d="m1160.9,526.3s.06-3.5-.3-4.52-2.54-3.61-2.54-3.61c0,0,3.39.1,4.41-.26s3.72-2.58,3.72-2.58c0,0-.06,3.5.3,4.52s2.54,3.61,2.54,3.61c0,0-3.5-.06-4.52.3s-3.61,2.54-3.61,2.54Z" style="fill:#327ea7;"/><path d="m1112.6,310.74s-4.61.52-5.88,1.16-4.3,3.95-4.3,3.95c0,0-.45-4.47-1.08-5.74s-4.03-4.44-4.03-4.44c0,0,4.61-.52,5.88-1.16s4.3-3.95,4.3-3.95c0,0,.52,4.61,1.16,5.88s3.95,4.3,3.95,4.3Z" style="fill:#327ea7;"/><path d="m1259.55,142.29s3.25-1.13,4.06-1.8,2.46-3.57,2.46-3.57c0,0,1.06,3.16,1.73,3.97s3.64,2.55,3.64,2.55c0,0-3.25,1.13-4.06,1.8s-2.46,3.57-2.46,3.57c0,0-1.13-3.25-1.8-4.06s-3.57-2.46-3.57-2.46Z" style="fill:#327ea7;"/><path d="m1145.52,661.87s5.16-2.55,6.38-3.84,3.35-6.43,3.35-6.43c0,0,2.41,5.03,3.69,6.24s6.58,3.49,6.58,3.49c0,0-5.16,2.55-6.38,3.84s-3.35,6.43-3.35,6.43c0,0-2.55-5.16-3.84-6.38s-6.43-3.35-6.43-3.35Z" style="fill:#327ea7;"/><path d="m890.56,593.11s-5.47,1.69-6.87,2.75-4.31,5.78-4.31,5.78c0,0-1.56-5.32-2.63-6.71s-5.9-4.47-5.9-4.47c0,0,5.47-1.69,6.87-2.75s4.31-5.78,4.31-5.78c0,0,1.69,5.47,2.75,6.87s5.78,4.31,5.78,4.31Z" style="fill:#327ea7;"/><path d="m595.37,606.12s3.42,1.31,4.54,1.32,4.45-1.22,4.45-1.22c0,0-1.3,3.29-1.32,4.42s1.22,4.57,1.22,4.57c0,0-3.42-1.31-4.54-1.32s-4.45,1.22-4.45,1.22c0,0,1.31-3.42,1.32-4.54s-1.22-4.45-1.22-4.45Z" style="fill:#327ea7;"/><path d="m344.63,528.93s3.03-1.89,3.7-2.76,1.68-4.17,1.68-4.17c0,0,1.79,2.96,2.66,3.63s4.27,1.75,4.27,1.75c0,0-3.03,1.89-3.7,2.76s-1.68,4.17-1.68,4.17c0,0-1.89-3.03-2.76-3.7s-4.17-1.68-4.17-1.68Z" style="fill:#327ea7;"/><path d="m446.84,345.36s-2.89,4.66-3.23,6.31.53,6.88.53,6.88c0,0-4.48-2.85-6.12-3.19s-7.07.49-7.07.49c0,0,2.89-4.66,3.23-6.31s-.53-6.88-.53-6.88c0,0,4.66,2.89,6.31,3.23s6.88-.53,6.88-.53Z" style="fill:#327ea7;"/><path d="m712.53,328.54s4.97,1.46,6.55,1.35,6.13-2.21,6.13-2.21c0,0-1.47,4.79-1.36,6.38s2.22,6.31,2.22,6.31c0,0-4.97-1.46-6.55-1.35s-6.13,2.21-6.13,2.21c0,0,1.46-4.97,1.35-6.55s-2.21-6.13-2.21-6.13Z" style="fill:#327ea7;"/><path d="m998.96,399.55s3.05,3.06,4.26,3.62,5.38.85,5.38.85c0,0-3,2.92-3.56,4.12s-.91,5.51-.91,5.51c0,0-3.05-3.06-4.26-3.62s-5.38-.85-5.38-.85c0,0,3.06-3.05,3.62-4.26s.85-5.38.85-5.38Z" style="fill:#327ea7;"/><path d="m1254.16,419.71s-2.79-4.19-4.04-5.09-5.95-2.18-5.95-2.18c0,0,4.08-2.65,4.99-3.9s2.28-6.09,2.28-6.09c0,0,2.79,4.19,4.04,5.09s5.95,2.18,5.95,2.18c0,0-4.19,2.79-5.09,4.04s-2.18,5.95-2.18,5.95Z" style="fill:#327ea7;"/><path d="m1272.76,275.59s-2.57-1.82-3.5-2.07-3.96.06-3.96.06c0,0,1.79-2.46,2.05-3.39s-.03-4.07-.03-4.07c0,0,2.57,1.82,3.5,2.07s3.96-.06,3.96-.06c0,0-1.82,2.57-2.07,3.5s.06,3.96.06,3.96Z" style="fill:#327ea7;"/><path d="m991.84,295.58s5.37-.41,6.87-1.1,5.15-4.41,5.15-4.41c0,0,.33,5.2,1.02,6.7s4.48,5.32,4.48,5.32c0,0-5.37.41-6.87,1.1s-5.15,4.41-5.15,4.41c0,0-.41-5.37-1.1-6.87s-4.41-5.15-4.41-5.15Z" style="fill:#327ea7;"/><path d="m714.68,242.67s-1.27,3.21-1.3,4.27,1.09,4.21,1.09,4.21c0,0-3.09-1.27-4.15-1.29s-4.33,1.09-4.33,1.09c0,0,1.27-3.21,1.3-4.27s-1.09-4.21-1.09-4.21c0,0,3.21,1.27,4.27,1.3s4.21-1.09,4.21-1.09Z" style="fill:#327ea7;"/><path d="m446.51,275.15s.15-4.06-.24-5.24-2.87-4.23-2.87-4.23c0,0,3.92.19,5.11-.2s4.36-2.91,4.36-2.91c0,0-.15,4.06.24,5.24s2.87,4.23,2.87,4.23c0,0-4.06-.15-5.24.24s-4.23,2.87-4.23,2.87Z" style="fill:#327ea7;"/><path d="m216.54,189.74s5.21,1.27,6.85,1.08,6.24-2.59,6.24-2.59c0,0-1.29,5.03-1.1,6.66s2.61,6.42,2.61,6.42c0,0-5.21-1.27-6.85-1.08s-6.24,2.59-6.24,2.59c0,0,1.27-5.21,1.08-6.85s-2.59-6.24-2.59-6.24Z" style="fill:#327ea7;"/><path d="m346.56,22.04s3.43-1.74,4.24-2.61,2.2-4.32,2.2-4.32c0,0,1.64,3.34,2.51,4.15s4.42,2.29,4.42,2.29c0,0-3.43,1.74-4.24,2.61s-2.2,4.32-2.2,4.32c0,0-1.74-3.43-2.61-4.24s-4.32-2.2-4.32-2.2Z" style="fill:#327ea7;"/><path d="m655.89,50.01s-1.12-3.01-1.76-3.76-3.38-2.23-3.38-2.23c0,0,2.93-1.05,3.67-1.69s2.31-3.45,2.31-3.45c0,0,1.12,3.01,1.76,3.76s3.38,2.23,3.38,2.23c0,0-3.01,1.12-3.76,1.76s-2.23,3.38-2.23,3.38Z" style="fill:#327ea7;"/><path d="m941.84,41.18s-4.74,1.23-5.98,2.09-3.9,4.78-3.9,4.78c0,0-1.14-4.6-1.99-5.84s-4.87-4.04-4.87-4.04c0,0,4.74-1.23,5.98-2.09s3.9-4.78,3.9-4.78c0,0,1.23,4.74,2.09,5.98s4.78,3.9,4.78,3.9Z" style="fill:#327ea7;"/><path d="m1202.76,97.7s1.69-3.27,1.83-4.39-.71-4.58-.71-4.58c0,0,3.15,1.68,4.27,1.82s4.71-.7,4.71-.7c0,0-1.69,3.27-1.83,4.39s.71,4.58.71,4.58c0,0-3.27-1.69-4.39-1.83s-4.58.71-4.58.71Z" style="fill:#327ea7;"/></g><g><path d="m575.57,507.51s-3.37.84-4.26,1.44-2.8,3.36-2.8,3.36c0,0-.77-3.27-1.37-4.16s-3.43-2.9-3.43-2.9c0,0,3.37-.84,4.26-1.44s2.8-3.36,2.8-3.36c0,0,.84,3.37,1.44,4.26s3.36,2.8,3.36,2.8Z" style="fill:#327ea7;"/><path d="m347.59,620.66s1.88-3.03,2.09-4.1-.34-4.47-.34-4.47c0,0,2.91,1.85,3.98,2.07s4.59-.32,4.59-.32c0,0-1.88,3.03-2.09,4.1s.34,4.47.34,4.47c0,0-3.03-1.88-4.1-2.09s-4.47.34-4.47.34Z" style="fill:#327ea7;"/><path d="m107.1,639.62s4.04.87,5.3.69,4.76-2.12,4.76-2.12c0,0-.89,3.9-.71,5.16s2.14,4.9,2.14,4.9c0,0-4.04-.87-5.3-.69s-4.76,2.12-4.76,2.12c0,0,.87-4.04.69-5.3s-2.12-4.76-2.12-4.76Z" style="fill:#327ea7;"/></g><g><path d="m262.42,396.83s.67-4.51.39-5.87-2.67-5.08-2.67-5.08c0,0,4.35.7,5.72.42s5.23-2.7,5.23-2.7c0,0-.67,4.51-.39,5.87s2.67,5.08,2.67,5.08c0,0-4.51-.67-5.87-.39s-5.08,2.67-5.08,2.67Z" style="fill:#327ea7;"/><path d="m531.18,477.39s-3.68,2.54-4.47,3.66-1.85,5.32-1.85,5.32c0,0-2.41-3.59-3.54-4.38s-5.45-1.94-5.45-1.94c0,0,3.68-2.54,4.47-3.66s1.85-5.32,1.85-5.32c0,0,2.54,3.68,3.66,4.47s5.32,1.85,5.32,1.85Z" style="fill:#327ea7;"/><path d="m794.63,513.4s-3.6-.27-4.66.04-3.86,2.4-3.86,2.4c0,0,.3-3.48,0-4.54s-2.44-3.98-2.44-3.98c0,0,3.6.27,4.66-.04s3.86-2.4,3.86-2.4c0,0-.27,3.6.04,4.66s2.4,3.86,2.4,3.86Z" style="fill:#327ea7;"/></g><g><path d="m1023.45,262.9s2.83-1.08,3.53-1.69,2.08-3.2,2.08-3.2c0,0,1.01,2.75,1.62,3.45s3.27,2.16,3.27,2.16c0,0-2.83,1.08-3.53,1.69s-2.08,3.2-2.08,3.2c0,0-1.08-2.83-1.69-3.53s-3.2-2.08-3.2-2.08Z" style="fill:#327ea7;"/><path d="m811.91,311.63s2.11,2.23,2.96,2.65,3.8.7,3.8.7c0,0-2.18,2.02-2.6,2.86s-.74,3.9-.74,3.9c0,0-2.11-2.23-2.96-2.65s-3.8-.7-3.8-.7c0,0,2.23-2.11,2.65-2.96s.7-3.8.7-3.8Z" style="fill:#327ea7;"/><path d="m582.05,251.19s3.86-2.15,4.74-3.17,2.32-5.05,2.32-5.05c0,0,2.03,3.76,3.06,4.64s5.16,2.42,5.16,2.42c0,0-3.86,2.15-4.74,3.17s-2.32,5.05-2.32,5.05c0,0-2.15-3.86-3.17-4.74s-5.05-2.32-5.05-2.32Z" style="fill:#327ea7;"/><path d="m313.01,326.29s-3.41,1.8-4.2,2.68-2.12,4.37-2.12,4.37c0,0-1.7-3.32-2.58-4.11s-4.47-2.21-4.47-2.21c0,0,3.41-1.8,4.2-2.68s2.12-4.37,2.12-4.37c0,0,1.8,3.41,2.68,4.2s4.37,2.12,4.37,2.12Z" style="fill:#327ea7;"/><path d="m111.93,304.19s-4.99-1.39-6.58-1.26-6.1,2.3-6.1,2.3c0,0,1.4-4.81,1.27-6.4s-2.32-6.28-2.32-6.28c0,0,4.99,1.39,6.58,1.26s6.1-2.3,6.1-2.3c0,0-1.39,4.99-1.26,6.58s2.3,6.1,2.3,6.1Z" style="fill:#327ea7;"/></g><g><path d="m1075.73,594.4s3.75-.51,4.77-1.05,3.43-3.3,3.43-3.3c0,0,.45,3.63.99,4.66s3.36,3.54,3.36,3.54c0,0-3.75.51-4.77,1.05s-3.43,3.3-3.43,3.3c0,0-.51-3.75-1.05-4.77s-3.3-3.43-3.3-3.43Z" style="fill:#327ea7;"/><path d="m1098.7,312.01s2.28-2.9,2.63-3.97.17-4.64.17-4.64c0,0,2.78,2.24,3.85,2.59s4.76.2,4.76.2c0,0-2.28,2.9-2.63,3.97s-.17,4.64-.17,4.64c0,0-2.9-2.28-3.97-2.63s-4.64-.17-4.64-.17Z" style="fill:#327ea7;"/><path d="m1111.76,101.33s4.65-1.36,5.84-2.25,3.71-4.84,3.71-4.84c0,0,1.26,4.51,2.15,5.71s4.94,3.84,4.94,3.84c0,0-4.65,1.36-5.84,2.25s-3.71,4.84-3.71,4.84c0,0-1.36-4.65-2.25-5.84s-4.84-3.71-4.84-3.71Z" style="fill:#327ea7;"/></g><g><path d="m953.32,592.3s1.49,5.52,2.51,6.95,5.62,4.5,5.62,4.5c0,0-5.36,1.38-6.79,2.4s-4.66,5.73-4.66,5.73c0,0-1.49-5.52-2.51-6.95s-5.62-4.5-5.62-4.5c0,0,5.52-1.49,6.95-2.51s4.5-5.62,4.5-5.62Z" style="fill:#a99ebc;"/><path d="m727.22,428.8s-3.76,3.21-4.51,4.54-1.44,6.06-1.44,6.06c0,0-3.06-3.68-4.39-4.42s-6.21-1.52-6.21-1.52c0,0,3.76-3.21,4.51-4.54s1.44-6.06,1.44-6.06c0,0,3.21,3.76,4.54,4.51s6.06,1.44,6.06,1.44Z" style="fill:#a99ebc;"/><path d="m557.05,294.94s1.75,3.55,2.63,4.38,4.42,2.3,4.42,2.3c0,0-3.45,1.65-4.29,2.54s-2.4,4.52-2.4,4.52c0,0-1.75-3.55-2.63-4.38s-4.42-2.3-4.42-2.3c0,0,3.55-1.75,4.38-2.63s2.3-4.42,2.3-4.42Z" style="fill:#a99ebc;"/><path d="m370.41,227.1s-3.82,2.63-4.64,3.79-1.93,5.51-1.93,5.51c0,0-2.5-3.73-3.66-4.55s-5.64-2.02-5.64-2.02c0,0,3.82-2.63,4.64-3.79s1.93-5.51,1.93-5.51c0,0,2.63,3.82,3.79,4.64s5.51,1.93,5.51,1.93Z" style="fill:#a99ebc;"/><path d="m163.95,347.25s.83,3.54,1.44,4.47,3.47,2.98,3.47,2.98c0,0-3.43.76-4.37,1.37s-3.09,3.54-3.09,3.54c0,0-.83-3.54-1.44-4.47s-3.47-2.98-3.47-2.98c0,0,3.54-.83,4.47-1.44s2.98-3.47,2.98-3.47Z" style="fill:#a99ebc;"/><path d="m398.58,451.56s5.34-1.14,6.75-2.04,4.57-5.13,4.57-5.13c0,0,1.04,5.18,1.94,6.59s5.23,4.73,5.23,4.73c0,0-5.34,1.14-6.75,2.04s-4.57,5.13-4.57,5.13c0,0-1.14-5.34-2.04-6.75s-5.13-4.57-5.13-4.57Z" style="fill:#a99ebc;"/><path d="m712.19,502.21s-2.84-2.72-3.94-3.2-4.9-.66-4.9-.66c0,0,2.67-2.71,3.15-3.82s.71-5.03.71-5.03c0,0,2.84,2.72,3.94,3.2s4.9.66,4.9.66c0,0-2.72,2.84-3.2,3.94s-.66,4.9-.66,4.9Z" style="fill:#a99ebc;"/><path d="m1000.46,433.19s2.58,3.06,3.65,3.67,4.9,1.19,4.9,1.19c0,0-2.99,2.46-3.6,3.53s-1.26,5.02-1.26,5.02c0,0-2.58-3.06-3.65-3.67s-4.9-1.19-4.9-1.19c0,0,3.06-2.58,3.67-3.65s1.19-4.9,1.19-4.9Z" style="fill:#a99ebc;"/><path d="m1079.71,281.17s3.29,4.03,4.67,4.84,6.34,1.64,6.34,1.64c0,0-3.94,3.14-4.75,4.51s-1.74,6.5-1.74,6.5c0,0-3.29-4.03-4.67-4.84s-6.34-1.64-6.34-1.64c0,0,4.03-3.29,4.84-4.67s1.64-6.34,1.64-6.34Z" style="fill:#a99ebc;"/><path d="m834.82,225.02s3.27,4.32,4.67,5.21,6.53,1.96,6.53,1.96c0,0-4.22,3.11-5.11,4.51s-2.06,6.69-2.06,6.69c0,0-3.27-4.32-4.67-5.21s-6.53-1.96-6.53-1.96c0,0,4.32-3.27,5.21-4.67s1.96-6.53,1.96-6.53Z" style="fill:#a99ebc;"/><path d="m609.19,125.41s-4.46.26-5.72.81-4.34,3.58-4.34,3.58c0,0-.2-4.32-.75-5.58s-3.64-4.48-3.64-4.48c0,0,4.46-.26,5.72-.81s4.34-3.58,4.34-3.58c0,0,.26,4.46.81,5.72s3.58,4.34,3.58,4.34Z" style="fill:#a99ebc;"/><path d="m373.59,177.6s-3.86-3.22-5.32-3.73-6.32-.4-6.32-.4c0,0,3.16-3.7,3.68-5.15s.46-6.48.46-6.48c0,0,3.86,3.22,5.32,3.73s6.32.4,6.32.4c0,0-3.22,3.86-3.73,5.32s-.4,6.32-.4,6.32Z" style="fill:#a99ebc;"/><path d="m220.11,358.75s-2.45-4.75-3.66-5.86-6.02-3.01-6.02-3.01c0,0,4.63-2.31,5.74-3.52s3.14-6.16,3.14-6.16c0,0,2.45,4.75,3.66,5.86s6.02,3.01,6.02,3.01c0,0-4.75,2.45-5.86,3.66s-3.01,6.02-3.01,6.02Z" style="fill:#a99ebc;"/><path d="m354.28,528.3s1.56-3.93,1.6-5.23-1.33-5.16-1.33-5.16c0,0,3.79,1.56,5.09,1.59s5.31-1.33,5.31-1.33c0,0-1.56,3.93-1.6,5.23s1.33,5.16,1.33,5.16c0,0-3.93-1.56-5.23-1.6s-5.16,1.33-5.16,1.33Z" style="fill:#a99ebc;"/><path d="m262.14,264.89s2.65-3.93,2.99-5.35-.23-5.97-.23-5.97c0,0,3.77,2.61,5.19,2.95s6.12-.19,6.12-.19c0,0-2.65,3.93-2.99,5.35s.23,5.97.23,5.97c0,0-3.93-2.65-5.35-2.99s-5.97.23-5.97.23Z" style="fill:#a99ebc;"/><path d="m347.35,111.98s4.13,2.4,5.58,2.65,5.98-.64,5.98-.64c0,0-2.37,3.97-2.62,5.41s.61,6.14.61,6.14c0,0-4.13-2.4-5.58-2.65s-5.98.64-5.98.64c0,0,2.4-4.13,2.65-5.58s-.64-5.98-.64-5.98Z" style="fill:#a99ebc;"/><path d="m580.91,218.45s5.53.45,7.17-.01,5.95-3.66,5.95-3.66c0,0-.5,5.35-.04,6.99s3.71,6.14,3.71,6.14c0,0-5.53-.45-7.17.01s-5.95,3.66-5.95,3.66c0,0,.45-5.53-.01-7.17s-3.66-5.95-3.66-5.95Z" style="fill:#a99ebc;"/><path d="m666.56,487.15s-1.47-4.89-2.42-6.15-5.13-3.88-5.13-3.88c0,0,4.75-1.37,6-2.31s4.02-5.24,4.02-5.24c0,0,1.47,4.89,2.42,6.15s5.13,3.88,5.13,3.88c0,0-4.89,1.47-6.15,2.42s-3.88,5.13-3.88,5.13Z" style="fill:#a99ebc;"/><path d="m893.49,655.23s-2.66,2.57-3.16,3.59-.8,4.59-.8,4.59c0,0-2.45-2.61-3.48-3.1s-4.7-.85-4.7-.85c0,0,2.66-2.57,3.16-3.59s.8-4.59.8-4.59c0,0,2.57,2.66,3.59,3.16s4.59.8,4.59.8Z" style="fill:#a99ebc;"/><path d="m1174.43,652.37s-3.53-1.24-4.68-1.23-4.51,1.36-4.51,1.36c0,0,1.25-3.4,1.23-4.55s-1.36-4.64-1.36-4.64c0,0,3.53,1.24,4.68,1.23s4.51-1.36,4.51-1.36c0,0-1.24,3.53-1.23,4.68s1.36,4.51,1.36,4.51Z" style="fill:#a99ebc;"/><path d="m1145.86,414.34s3.25-.58,4.12-1.09,2.87-3,2.87-3c0,0,.52,3.15,1.03,4.03s3.06,2.97,3.06,2.97c0,0-3.25.58-4.12,1.09s-2.87,3-2.87,3c0,0-.58-3.25-1.09-4.12s-3-2.87-3-2.87Z" style="fill:#a99ebc;"/><path d="m991.78,316.38s-2.02,3.61-2.22,4.86.63,5.17.63,5.17c0,0-3.47-2-4.72-2.19s-5.31.61-5.31.61c0,0,2.02-3.61,2.22-4.86s-.63-5.17-.63-5.17c0,0,3.61,2.02,4.86,2.22s5.17-.63,5.17-.63Z" style="fill:#a99ebc;"/><path d="m713.91,278.57s-.25-4.68-.82-6-3.73-4.57-3.73-4.57c0,0,4.53-.19,5.85-.75s4.71-3.79,4.71-3.79c0,0,.25,4.68.82,6s3.73,4.57,3.73,4.57c0,0-4.68.25-6,.82s-4.57,3.73-4.57,3.73Z" style="fill:#a99ebc;"/><path d="m432.65,170.8s-3.22-4.75-4.65-5.77-6.8-2.43-6.8-2.43c0,0,4.63-3.06,5.66-4.49s2.55-6.96,2.55-6.96c0,0,3.22,4.75,4.65,5.77s6.8,2.43,6.8,2.43c0,0-4.75,3.22-5.77,4.65s-2.43,6.8-2.43,6.8Z" style="fill:#a99ebc;"/><path d="m696.67,130.48s-1.15-5.27-2.04-6.67-5.08-4.51-5.08-4.51c0,0,5.12-1.05,6.51-1.94s4.66-5.18,4.66-5.18c0,0,1.15,5.27,2.04,6.67s5.08,4.51,5.08,4.51c0,0-5.27,1.15-6.67,2.04s-4.51,5.08-4.51,5.08Z" style="fill:#a99ebc;"/><path d="m915.05,35.32s-1.37-2.68-2.05-3.3-3.38-1.7-3.38-1.7c0,0,2.61-1.29,3.23-1.97s1.77-3.46,1.77-3.46c0,0,1.37,2.68,2.05,3.3s3.38,1.7,3.38,1.7c0,0-2.68,1.37-3.3,2.05s-1.7,3.38-1.7,3.38Z" style="fill:#a99ebc;"/><path d="m1166.96,58.51s5.28,1.78,6.99,1.73,6.69-2.12,6.69-2.12c0,0-1.78,5.09-1.73,6.8s2.13,6.88,2.13,6.88c0,0-5.28-1.78-6.99-1.73s-6.69,2.12-6.69,2.12c0,0,1.78-5.28,1.73-6.99s-2.12-6.69-2.12-6.69Z" style="fill:#a99ebc;"/></g><g><path d="m287.53,545.12s-2.21-3.43-3.21-4.19-4.8-1.85-4.8-1.85c0,0,3.35-2.09,4.1-3.09s1.93-4.91,1.93-4.91c0,0,2.21,3.43,3.21,4.19s4.8,1.85,4.8,1.85c0,0-3.43,2.21-4.19,3.21s-1.85,4.8-1.85,4.8Z" style="fill:#a99ebc;"/><path d="m483.59,647.24s-3.11-2.33-4.25-2.67-4.89-.06-4.89-.06c0,0,2.29-2.98,2.63-4.12s.09-5.02.09-5.02c0,0,3.11,2.33,4.25,2.67s4.89.06,4.89.06c0,0-2.33,3.11-2.67,4.25s-.06,4.89-.06,4.89Z" style="fill:#a99ebc;"/><path d="m729.72,630.65s.42,5.66,1.14,7.25,4.64,5.44,4.64,5.44c0,0-5.48.34-7.07,1.06s-5.62,4.72-5.62,4.72c0,0-.42-5.66-1.14-7.25s-4.64-5.44-4.64-5.44c0,0,5.66-.42,7.25-1.14s5.44-4.64,5.44-4.64Z" style="fill:#a99ebc;"/><path d="m292.28,704.68s.7,3.7,1.29,4.7,3.46,3.24,3.46,3.24c0,0-3.59.63-4.58,1.23s-3.36,3.53-3.36,3.53c0,0-.7-3.7-1.29-4.7s-3.46-3.24-3.46-3.24c0,0,3.7-.7,4.7-1.29s3.24-3.46,3.24-3.46Z" style="fill:#a99ebc;"/><path d="m42.8,602.6s-2.48-3.42-3.55-4.14-5.06-1.63-5.06-1.63c0,0,3.34-2.36,4.06-3.43s1.71-5.18,1.71-5.18c0,0,2.48,3.42,3.55,4.14s5.06,1.63,5.06,1.63c0,0-3.42,2.48-4.14,3.55s-1.63,5.06-1.63,5.06Z" style="fill:#a99ebc;"/><path d="m38.41,329.03s-1.31-2.62-1.96-3.24-3.27-1.69-3.27-1.69c0,0,2.55-1.23,3.17-1.89s1.76-3.35,1.76-3.35c0,0,1.31,2.62,1.96,3.24s3.27,1.69,3.27,1.69c0,0-2.62,1.31-3.24,1.96s-1.69,3.27-1.69,3.27Z" style="fill:#a99ebc;"/><path d="m182.71,168.63s4.08-.76,5.17-1.42,3.57-3.81,3.57-3.81c0,0,.69,3.95,1.34,5.04s3.88,3.7,3.88,3.7c0,0-4.08.76-5.17,1.42s-3.57,3.81-3.57,3.81c0,0-.76-4.08-1.42-5.17s-3.81-3.57-3.81-3.57Z" style="fill:#a99ebc;"/><path d="m118.42,435.42s-2.79-.87-3.68-.82-3.48,1.19-3.48,1.19c0,0,.87-2.68.83-3.58s-1.19-3.58-1.19-3.58c0,0,2.79.87,3.68.82s3.48-1.19,3.48-1.19c0,0-.87,2.79-.82,3.68s1.19,3.48,1.19,3.48Z" style="fill:#a99ebc;"/><path d="m252.31,627.75s5.23.23,6.76-.26,5.48-3.65,5.48-3.65c0,0-.29,5.05.2,6.58s3.71,5.66,3.71,5.66c0,0-5.23-.23-6.76.26s-5.48,3.65-5.48,3.65c0,0,.23-5.23-.26-6.76s-3.65-5.48-3.65-5.48Z" style="fill:#a99ebc;"/><path d="m558.99,681.84s-2.25-4.79-3.4-5.93-5.84-3.2-5.84-3.2c0,0,4.66-2.12,5.8-3.27s3.33-5.98,3.33-5.98c0,0,2.25,4.79,3.4,5.93s5.84,3.2,5.84,3.2c0,0-4.79,2.25-5.93,3.4s-3.2,5.84-3.2,5.84Z" style="fill:#a99ebc;"/><path d="m813.1,636.7s-4.82-2.2-6.44-2.32-6.53,1.35-6.53,1.35c0,0,2.18-4.63,2.31-6.26s-1.33-6.71-1.33-6.71c0,0,4.82,2.2,6.44,2.32s6.53-1.35,6.53-1.35c0,0-2.2,4.82-2.32,6.44s1.35,6.53,1.35,6.53Z" style="fill:#a99ebc;"/></g></g><g id="d"><g style="opacity:.5;"><g><path d="m32.5,647.23s-1.99-2.19-2.79-2.6-3.64-.75-3.64-.75c0,0,2.14-1.89,2.56-2.7s.79-3.73.79-3.73c0,0,1.99,2.19,2.79,2.6s3.64.75,3.64.75c0,0-2.19,1.99-2.6,2.79s-.75,3.64-.75,3.64Z" style="fill:#3483a6;"/><path d="m27.71,528.33s4.91-.72,6.24-1.45,4.45-4.38,4.45-4.38c0,0,.64,4.76,1.37,6.09s4.46,4.6,4.46,4.6c0,0-4.91.72-6.24,1.45s-4.45,4.38-4.45,4.38c0,0-.72-4.91-1.45-6.24s-4.38-4.45-4.38-4.45Z" style="fill:#3483a6;"/></g></g></g><g id="n"><g><path d="m120.26,543.54c22.94,25.1,39.02,39.56,52.97,50.26,4.12,3.16,19.04,15.46,23.02,8.74,2.16-3.65-9.31-14.92-11.49-16.67-11.69-9.39-28.01-20.7-64.51-42.33Z" style="fill:url(#o);"/><path d="m73.63,572.7c22.94,25.1,39.02,39.56,52.97,50.26,4.12,3.16,19.04,15.46,23.02,8.74,2.16-3.65-9.31-14.92-11.49-16.67-11.69-9.39-28.01-20.7-64.51-42.33Z" style="fill:url(#p);"/><path d="m154.8,603.54c22.94,25.1,39.02,39.56,52.97,50.26,4.12,3.16,19.04,15.46,23.02,8.74,2.16-3.65-9.31-14.92-11.49-16.67-11.69-9.39-28.01-20.7-64.51-42.33Z" style="fill:url(#q);"/></g><g><path d="m284.26-46.23c.84,4.89,8.35,8.81,8.58,13.65.23,4.94-4.5,9.73-4.87,14.58-.37,4.92,12.53,12.18,11.56,16.95-.97,4.82-24.47,3.58-26.02,8.21s4.08,11.15,1.99,15.57-1.98,9.69-4.59,13.83,2.37,14.23-.72,18.04c-3.08,3.8-20.38-5.57-23.9-2.15s-3.1,9.88-7.01,12.87-.9,16.26-5.14,18.78-9.1,5.52-13.61,7.52c-4.44,1.97-12.33-4.01-17.06-2.55-5.3,1.66-10.9,1.57-16.53,2.54-4.95.85-9.05,11.98-13.94,12.24s-9.86-16.36-14.76-16.68c-4.99-.32-9.23.78-14.06-.12s-12.37,9.03-17.07,7.56-3.92-16.81-8.43-18.83-17.46,12.11-21.7,9.56-4.26-12.31-8.17-15.35c-3.91-3.05-4.88-9.21-8.39-12.71s-4.6-8.41-7.66-12.32c-3.05-3.89-1.8-9.58-4.37-13.84s-15.23-2.65-17.25-7.21c-1.99-4.49-11.44-7.07-12.88-11.86s-.31-11.13-1.16-16.08,16.03-11.58,15.8-16.48-1.84-8.82-1.45-13.72-14.55-12.03-13.55-16.86,16.03-5.96,17.62-10.64-13.49-16.55-11.34-21.01c2.16-4.47,6.79-9.04,9.47-13.21s7.04-8.5,10.2-12.33,12.43-2.77,16.03-6.2,15.64,4.22,19.63,1.24c3.95-2.95,4.72-8.6,9.04-11.09s8.82-1.99,13.41-3.95,2.4-22.36,7.21-23.77c4.7-1.38,12.14,6.25,17.09,5.41,5.64-.96,10.87-13.12,16.43-13.32,4.95-.18,10.99,2.94,15.83,3.33s10.16,4.55,14.93,5.5,6.7,13.15,11.34,14.66,9.36,1.46,13.79,3.5c4.46,2.06,12.17-2.03,16.34.53s.14,16.18,3.98,19.22,20.58-8.38,24.03-4.9,5.55,9.49,8.56,13.37c2.99,3.86,2.34,10.96,4.86,15.19s10.61,6.3,12.6,10.82-14.22,15.53-12.8,20.27,7.27,7.34,8.11,12.23Z" style="fill:#1ec4df;"/><path d="m250.07,62.03c-25.03,24.48-58.18,35.56-90.56,33.35-12.87-4.13-25.17-10.52-36.27-19.17-4.17-3.24-8.17-6.8-11.97-10.68-45.56-46.59-44.73-121.3,1.87-166.87,25.04-24.48,58.19-35.58,90.58-33.35,17.7,5.67,34.32,15.63,48.22,29.84,3.8,3.88,7.27,7.96,10.41,12.2,34.7,46.63,30.44,112.9-12.27,154.67Z" style="fill:#a2e6f2;"/><path d="m159.51,95.38c-22.87-1.56-45.37-9.75-64.34-24.54-4.17-3.24-8.17-6.8-11.97-10.68-45.56-46.59-44.73-121.3,1.87-166.87,32.38-31.66,78.33-40.92,118.65-27.98-32.38-2.22-65.54,8.87-90.58,33.35-46.59,45.56-47.43,120.27-1.87,166.87,3.8,3.88,7.79,7.44,11.97,10.68,11.1,8.65,23.39,15.04,36.27,19.17Z" style="fill:#59c6dc;"/><circle cx="140.23" cy="19.79" r="10" style="fill:#20d0ee;"/><circle cx="194.52" cy="34.54" r="3.5" style="fill:#20d0ee;"/><circle cx="68.3" cy="2.01" r="5" style="fill:#20d0ee;"/><circle cx="248.53" cy="10.39" r="6" style="fill:#20d0ee;"/></g></g></svg>