<?xml version="1.0" encoding="UTF-8"?><svg xmlns="http://www.w3.org/2000/svg" xmlns:xlink="http://www.w3.org/1999/xlink" viewBox="0 0 1280 720"><defs><linearGradient id="o" x1="1255.96" y1="81.71" x2="1177.67" y2="144.82" gradientUnits="userSpaceOnUse"><stop offset="0" stop-color="#8f2ab9"/><stop offset="0" stop-color="#8f2ab9"/><stop offset=".36" stop-color="#9d77d1"/><stop offset=".65" stop-color="#a8b0e2"/><stop offset=".86" stop-color="#aed2ed"/><stop offset=".98" stop-color="#b1e0f2"/></linearGradient><linearGradient id="p" x1="1239.28" y1="29.3" x2="1160.98" y2="92.41" xlink:href="#o"/><linearGradient id="q" x1="1189.28" y1="100.3" x2="1110.98" y2="163.41" xlink:href="#o"/></defs><g id="f"><path d="m1193.23,708.13s.83,4.27,1.53,5.41,4.02,3.72,4.02,3.72c0,0-4.14.76-5.28,1.45s-3.85,4.1-3.85,4.1c0,0-.83-4.27-1.53-5.41s-4.02-3.72-4.02-3.72c0,0,4.27-.83,5.41-1.53s3.72-4.02,3.72-4.02Z" style="fill:#6b2960;"/></g><g id="j"><rect width="1280" height="720" style="fill:#0d0731;"/><g style="opacity:.5;"><g><path d="m1250.11,443.53s5.72.27,7.4-.26,6.01-3.98,6.01-3.98c0,0-.33,5.53.2,7.21s4.04,6.2,4.04,6.2c0,0-5.72-.27-7.4.26s-6.01,3.98-6.01,3.98c0,0,.27-5.72-.26-7.4s-3.98-6.01-3.98-6.01Z" style="fill:#a99ebc;"/><path d="m1189.56,161.76s-.18,3.56.15,4.61,2.47,3.75,2.47,3.75c0,0-3.44-.21-4.49.11s-3.87,2.51-3.87,2.51c0,0,.18-3.56-.15-4.61s-2.47-3.75-2.47-3.75c0,0,3.56.18,4.61-.15s3.75-2.47,3.75-2.47Z" style="fill:#a99ebc;"/><path d="m649.66,58.23s-5.33.86-6.77,1.68-4.77,4.84-4.77,4.84c0,0-.77-5.16-1.59-6.61s-4.93-4.93-4.93-4.93c0,0,5.33-.86,6.77-1.68s4.77-4.84,4.77-4.84c0,0,.86,5.33,1.68,6.77s4.84,4.77,4.84,4.77Z" style="fill:#a99ebc;"/><path d="m418.32,49.43s-2.75-3.32-3.9-3.99-5.27-1.33-5.27-1.33c0,0,3.25-2.63,3.91-3.77s1.4-5.4,1.4-5.4c0,0,2.75,3.32,3.9,3.99s5.27,1.33,5.27,1.33c0,0-3.32,2.75-3.99,3.9s-1.33,5.27-1.33,5.27Z" style="fill:#a99ebc;"/><path d="m135.7,81.26s3.27-1.65,4.04-2.47,2.1-4.11,2.1-4.11c0,0,1.56,3.19,2.38,3.96s4.2,2.19,4.2,2.19c0,0-3.27,1.65-4.04,2.47s-2.1,4.11-2.1,4.11c0,0-1.65-3.27-2.47-4.04s-4.11-2.1-4.11-2.1Z" style="fill:#a99ebc;"/><path d="m217.47,599.21s-1.21-3.79-1.97-4.76-4.05-2.95-4.05-2.95c0,0,3.68-1.13,4.65-1.88s3.06-4.14,3.06-4.14c0,0,1.21,3.79,1.97,4.76s4.05,2.95,4.05,2.95c0,0-3.79,1.21-4.76,1.97s-2.95,4.05-2.95,4.05Z" style="fill:#a99ebc;"/><path d="m492.83,640.65s3.28-3.28,3.88-4.58.9-5.78.9-5.78c0,0,3.14,3.22,4.43,3.81s5.92.96,5.92.96c0,0-3.28,3.28-3.88,4.58s-.9,5.78-.9,5.78c0,0-3.28-3.28-4.58-3.88s-5.78-.9-5.78-.9Z" style="fill:#a99ebc;"/><path d="m765.87,647.15s-2.16-2.33-3.03-2.77-3.93-.76-3.93-.76c0,0,2.28-2.07,2.72-2.94s.81-4.03.81-4.03c0,0,2.16,2.33,3.03,2.77s3.93.76,3.93.76c0,0-2.33,2.16-2.77,3.03s-.76,3.93-.76,3.93Z" style="fill:#a99ebc;"/><path d="m1006.28,528s2.02,2.27,2.85,2.7,3.74.8,3.74.8c0,0-2.22,1.93-2.66,2.75s-.85,3.83-.85,3.83c0,0-2.02-2.27-2.85-2.7s-3.74-.8-3.74-.8c0,0,2.27-2.02,2.7-2.85s.8-3.74.8-3.74Z" style="fill:#a99ebc;"/><path d="m1163.39,450.44s-2.1-3.02-3.03-3.67-4.38-1.5-4.38-1.5c0,0,2.95-2,3.59-2.93s1.58-4.49,1.58-4.49c0,0,2.1,3.02,3.03,3.67s4.38,1.5,4.38,1.5c0,0-3.02,2.1-3.67,3.03s-1.5,4.38-1.5,4.38Z" style="fill:#a99ebc;"/><path d="m936.22,406.57s3.86-1.76,4.79-2.67,2.62-4.66,2.62-4.66c0,0,1.65,3.76,2.57,4.68s4.76,2.72,4.76,2.72c0,0-3.86,1.76-4.79,2.67s-2.62,4.66-2.62,4.66c0,0-1.76-3.86-2.67-4.79s-4.66-2.62-4.66-2.62Z" style="fill:#a99ebc;"/><path d="m710.86,424.83s1.34,2.64,2.01,3.26,3.32,1.69,3.32,1.69c0,0-2.57,1.27-3.19,1.93s-1.76,3.4-1.76,3.4c0,0-1.34-2.64-2.01-3.26s-3.32-1.69-3.32-1.69c0,0,2.64-1.34,3.26-2.01s1.69-3.32,1.69-3.32Z" style="fill:#a99ebc;"/><path d="m482.58,444.49s-2.91,3.89-3.34,5.32-.07,6.12-.07,6.12c0,0-3.73-2.86-5.16-3.29s-6.28-.12-6.28-.12c0,0,2.91-3.89,3.34-5.32s.07-6.12.07-6.12c0,0,3.89,2.91,5.32,3.34s6.12.07,6.12.07Z" style="fill:#a99ebc;"/><path d="m242.22,407.83s1.75,4.07,2.69,5.06,4.81,2.84,4.81,2.84c0,0-3.96,1.65-4.95,2.58s-2.95,4.91-2.95,4.91c0,0-1.75-4.07-2.69-5.06s-4.81-2.84-4.81-2.84c0,0,4.07-1.75,5.06-2.69s2.84-4.81,2.84-4.81Z" style="fill:#a99ebc;"/><path d="m313.15,163.54s-1.37-5.06-2.3-6.37-5.15-4.13-5.15-4.13c0,0,4.91-1.26,6.23-2.19s4.28-5.25,4.28-5.25c0,0,1.37,5.06,2.3,6.37s5.15,4.13,5.15,4.13c0,0-5.06,1.37-6.37,2.3s-4.13,5.15-4.13,5.15Z" style="fill:#a99ebc;"/><path d="m547.64,192.67s-3.42-2.16-4.63-2.42-5.08.34-5.08.34c0,0,2.13-3.28,2.39-4.49s-.31-5.21-.31-5.21c0,0,3.42,2.16,4.63,2.42s5.08-.34,5.08-.34c0,0-2.16,3.42-2.42,4.63s.34,5.08.34,5.08Z" style="fill:#a99ebc;"/><path d="m768.89,277.02s3.26-3.85,3.8-5.3.46-6.34.46-6.34c0,0,3.68,3.2,5.14,3.74s6.5.52,6.5.52c0,0-3.26,3.85-3.8,5.3s-.46,6.34-.46,6.34c0,0-3.85-3.26-5.3-3.8s-6.34-.46-6.34-.46Z" style="fill:#a99ebc;"/><path d="m994.15,256.96s2.14,2.44,3.01,2.91,3.98.89,3.98.89c0,0-2.38,2.04-2.86,2.91s-.94,4.08-.94,4.08c0,0-2.14-2.44-3.01-2.91s-3.98-.89-3.98-.89c0,0,2.44-2.14,2.91-3.01s.89-3.98.89-3.98Z" style="fill:#a99ebc;"/><path d="m1030.06,163.63s-1.42,5.07-1.29,6.68,2.33,6.21,2.33,6.21c0,0-4.89-1.43-6.5-1.3s-6.39,2.35-6.39,2.35c0,0,1.42-5.07,1.29-6.68s-2.33-6.21-2.33-6.21c0,0,5.07,1.42,6.68,1.29s6.21-2.33,6.21-2.33Z" style="fill:#a99ebc;"/><path d="m756.54,132.75s.63-3.37.45-4.4-1.87-3.89-1.87-3.89c0,0,3.25.65,4.29.47s4-1.89,4-1.89c0,0-.63,3.37-.45,4.4s1.87,3.89,1.87,3.89c0,0-3.37-.63-4.4-.45s-3.89,1.87-3.89,1.87Z" style="fill:#a99ebc;"/><path d="m549.48,182.17s4.17-3.25,5.03-4.62,1.83-6.4,1.83-6.4c0,0,3.09,4.08,4.47,4.94s6.56,1.93,6.56,1.93c0,0-4.17,3.25-5.03,4.62s-1.83,6.4-1.83,6.4c0,0-3.25-4.17-4.62-5.03s-6.4-1.83-6.4-1.83Z" style="fill:#a99ebc;"/><path d="m285.26,157.39s-3.54-1.14-4.69-1.09-4.45,1.48-4.45,1.48c0,0,1.14-3.42,1.09-4.56s-1.49-4.58-1.49-4.58c0,0,3.54,1.14,4.69,1.09s4.45-1.48,4.45-1.48c0,0-1.14,3.54-1.09,4.69s1.48,4.45,1.48,4.45Z" style="fill:#a99ebc;"/><path d="m81.95,155.48s-1.54,3.45-1.62,4.61,1,4.66,1,4.66c0,0-3.32-1.54-4.48-1.61s-4.79.99-4.79.99c0,0,1.54-3.45,1.62-4.61s-1-4.66-1-4.66c0,0,3.45,1.54,4.61,1.62s4.66-1,4.66-1Z" style="fill:#a99ebc;"/></g></g><g style="opacity:.6;"><g><path d="m422.94,179.34s3.23,1.52,4.33,1.62,4.42-.86,4.42-.86c0,0-1.51,3.11-1.61,4.2s.85,4.54.85,4.54c0,0-3.23-1.52-4.33-1.62s-4.42.86-4.42.86c0,0,1.52-3.23,1.62-4.33s-.86-4.42-.86-4.42Z" style="fill:#a99ebc;"/><path d="m655.84,167.8s-2.39,1.82-2.89,2.6-1.08,3.63-1.08,3.63c0,0-1.73-2.34-2.51-2.83s-3.71-1.14-3.71-1.14c0,0,2.39-1.82,2.89-2.6s1.08-3.63,1.08-3.63c0,0,1.82,2.39,2.6,2.89s3.63,1.08,3.63,1.08Z" style="fill:#a99ebc;"/><path d="m883.3,122.46s2.79,4.39,4.06,5.36,6.1,2.38,6.1,2.38c0,0-4.28,2.65-5.25,3.92s-2.49,6.24-2.49,6.24c0,0-2.79-4.39-4.06-5.36s-6.1-2.38-6.1-2.38c0,0,4.39-2.79,5.36-4.06s2.38-6.1,2.38-6.1Z" style="fill:#a99ebc;"/><path d="m1135.95,102.31s-2.89,4.63-3.24,6.26.5,6.85.5,6.85c0,0-4.44-2.85-6.08-3.2s-7.04.46-7.04.46c0,0,2.89-4.63,3.24-6.26s-.5-6.85-.5-6.85c0,0,4.63,2.89,6.26,3.24s6.85-.5,6.85-.5Z" style="fill:#a99ebc;"/><path d="m1222.39,330.47s-.17,4.84.29,6.26,3.43,5.05,3.43,5.05c0,0-4.69-.22-6.1.24s-5.21,3.48-5.21,3.48c0,0,.17-4.84-.29-6.26s-3.43-5.05-3.43-5.05c0,0,4.84.17,6.26-.29s5.05-3.43,5.05-3.43Z" style="fill:#a99ebc;"/><path d="m1111.97,524.49s-5.16.31-6.61.94-5.01,4.14-5.01,4.14c0,0-.24-4.99-.87-6.44s-4.22-5.18-4.22-5.18c0,0,5.16-.31,6.61-.94s5.01-4.14,5.01-4.14c0,0,.31,5.16.94,6.61s4.14,5.01,4.14,5.01Z" style="fill:#a99ebc;"/><path d="m946.77,561.5s-5.06.22-6.5.82-4.98,3.98-4.98,3.98c0,0-.15-4.9-.75-6.33s-4.05-5.14-4.05-5.14c0,0,5.06-.22,6.5-.82s4.98-3.98,4.98-3.98c0,0,.22,5.06.82,6.5s3.98,4.98,3.98,4.98Z" style="fill:#a99ebc;"/><path d="m674.42,423.62s3.82.97,5.02.84,4.6-1.86,4.6-1.86c0,0-.98,3.68-.85,4.89s1.87,4.74,1.87,4.74c0,0-3.82-.97-5.02-.84s-4.6,1.86-4.6,1.86c0,0,.97-3.82.84-5.02s-1.86-4.6-1.86-4.6Z" style="fill:#a99ebc;"/><path d="m451.45,292.12s4.3-.03,5.54-.5,4.35-3.23,4.35-3.23c0,0-.02,4.16.45,5.4s3.28,4.49,3.28,4.49c0,0-4.3.03-5.54.5s-4.35,3.23-4.35,3.23c0,0-.03-4.3-.5-5.54s-3.23-4.35-3.23-4.35Z" style="fill:#a99ebc;"/><path d="m225.99,203.44s-.54,5.38-.13,6.99,3.45,5.87,3.45,5.87c0,0-5.2-.59-6.81-.18s-6.05,3.49-6.05,3.49c0,0,.54-5.38.13-6.99s-3.45-5.87-3.45-5.87c0,0,5.38.54,6.99.13s5.87-3.45,5.87-3.45Z" style="fill:#a99ebc;"/><path d="m74.35,360.56s4.98,1.2,6.54,1.01,5.95-2.48,5.95-2.48c0,0-1.22,4.8-1.04,6.37s2.5,6.13,2.5,6.13c0,0-4.98-1.2-6.54-1.01s-5.95,2.48-5.95,2.48c0,0,1.2-4.98,1.01-6.54s-2.48-5.95-2.48-5.95Z" style="fill:#a99ebc;"/><path d="m148.8,563.01s-2.35-2.6-3.31-3.11-4.33-.9-4.33-.9c0,0,2.55-2.25,3.05-3.2s.95-4.44.95-4.44c0,0,2.35,2.6,3.31,3.11s4.33.9,4.33.9c0,0-2.6,2.35-3.11,3.31s-.9,4.33-.9,4.33Z" style="fill:#a99ebc;"/><path d="m331.13,453.34s-2.23-1.94-3.08-2.26-3.71-.31-3.71-.31c0,0,1.9-2.14,2.22-2.98s.35-3.8.35-3.8c0,0,2.23,1.94,3.08,2.26s3.71.31,3.71.31c0,0-1.94,2.23-2.26,3.08s-.31,3.71-.31,3.71Z" style="fill:#a99ebc;"/><path d="m548.57,461.25s2.5,2.06,3.44,2.39,4.07.24,4.07.24c0,0-2.03,2.39-2.36,3.33s-.28,4.18-.28,4.18c0,0-2.5-2.06-3.44-2.39s-4.07-.24-4.07-.24c0,0,2.06-2.5,2.39-3.44s.24-4.07.24-4.07Z" style="fill:#a99ebc;"/><path d="m742.81,630.34s1.08,2.88,1.69,3.59,3.23,2.12,3.23,2.12c0,0-2.8,1.01-3.51,1.62s-2.2,3.3-2.2,3.3c0,0-1.08-2.88-1.69-3.59s-3.23-2.12-3.23-2.12c0,0,2.88-1.08,3.59-1.69s2.12-3.23,2.12-3.23Z" style="fill:#a99ebc;"/><path d="m1041.79,695.25s.57-3.15.4-4.12-1.76-3.63-1.76-3.63c0,0,3.04.59,4.01.42s3.73-1.78,3.73-1.78c0,0-.57,3.15-.4,4.12s1.76,3.63,1.76,3.63c0,0-3.15-.57-4.12-.4s-3.63,1.76-3.63,1.76Z" style="fill:#a99ebc;"/><path d="m1061.81,430.53s4.27-3.37,5.14-4.8,1.83-6.6,1.83-6.6c0,0,3.21,4.17,4.64,5.04s6.76,1.93,6.76,1.93c0,0-4.27,3.37-5.14,4.8s-1.83,6.6-1.83,6.6c0,0-3.37-4.27-4.8-5.14s-6.6-1.83-6.6-1.83Z" style="fill:#a99ebc;"/><path d="m1021.17,139.83s-3.35,1.74-4.13,2.6-2.11,4.26-2.11,4.26c0,0-1.64-3.26-2.5-4.04s-4.35-2.2-4.35-2.2c0,0,3.35-1.74,4.13-2.6s2.11-4.26,2.11-4.26c0,0,1.74,3.35,2.6,4.13s4.26,2.11,4.26,2.11Z" style="fill:#a99ebc;"/><path d="m757.53,124.83s-.33-2.95-.73-3.77-2.53-2.76-2.53-2.76c0,0,2.86-.28,3.68-.69s2.85-2.57,2.85-2.57c0,0,.33,2.95.73,3.77s2.53,2.76,2.53,2.76c0,0-2.95.33-3.77.73s-2.76,2.53-2.76,2.53Z" style="fill:#a99ebc;"/><path d="m560.96,123.04s2.44,5.18,3.7,6.42,6.33,3.45,6.33,3.45c0,0-5.04,2.3-6.28,3.55s-3.59,6.47-3.59,6.47c0,0-2.44-5.18-3.7-6.42s-6.33-3.45-6.33-3.45c0,0,5.18-2.44,6.42-3.7s3.45-6.33,3.45-6.33Z" style="fill:#a99ebc;"/><path d="m318.14,200.37s-2.68,1.77-3.26,2.57-1.4,3.79-1.4,3.79c0,0-1.68-2.61-2.48-3.19s-3.88-1.47-3.88-1.47c0,0,2.68-1.77,3.26-2.57s1.4-3.79,1.4-3.79c0,0,1.77,2.68,2.57,3.26s3.79,1.4,3.79,1.4Z" style="fill:#a99ebc;"/><path d="m79.52,311.6s-1.18-3.42-1.88-4.28-3.74-2.6-3.74-2.6c0,0,3.32-1.1,4.18-1.8s2.7-3.82,2.7-3.82c0,0,1.18,3.42,1.88,4.28s3.74,2.6,3.74,2.6c0,0-3.42,1.18-4.28,1.88s-2.6,3.74-2.6,3.74Z" style="fill:#a99ebc;"/></g></g><g style="opacity:.5;"><g><path d="m1256.36,55.49s3.41,1.88,4.59,2.05,4.86-.63,4.86-.63c0,0-1.86,3.28-2.03,4.46s.61,4.99.61,4.99c0,0-3.41-1.88-4.59-2.05s-4.86.63-4.86.63c0,0,1.88-3.41,2.05-4.59s-.63-4.86-.63-4.86Z" style="fill:#327ea7;"/><path d="m1184.67,225.64s.28-2.92.05-3.79-1.89-3.18-1.89-3.18c0,0,2.82.31,3.69.08s3.28-1.91,3.28-1.91c0,0-.28,2.92-.05,3.79s1.89,3.18,1.89,3.18c0,0-2.92-.28-3.79-.05s-3.18,1.89-3.18,1.89Z" style="fill:#327ea7;"/><path d="m1030.94,468.71s-4.36,1.73-5.43,2.69-3.15,5-3.15,5c0,0-1.62-4.24-2.58-5.31s-5.11-3.27-5.11-3.27c0,0,4.36-1.73,5.43-2.69s3.15-5,3.15-5c0,0,1.73,4.36,2.69,5.43s5,3.15,5,3.15Z" style="fill:#327ea7;"/><path d="m807.04,577.34s-4.73-1.4-6.24-1.3-5.84,2.1-5.84,2.1c0,0,1.41-4.56,1.31-6.07s-2.11-6.01-2.11-6.01c0,0,4.73,1.4,6.24,1.3s5.84-2.1,5.84-2.1c0,0-1.4,4.73-1.3,6.24s2.1,5.84,2.1,5.84Z" style="fill:#327ea7;"/><path d="m512.88,627.14s-5.27-1.89-6.99-1.88-6.76,1.99-6.76,1.99c0,0,1.9-5.08,1.88-6.8s-2-6.96-2-6.96c0,0,5.27,1.89,6.99,1.88s6.76-1.99,6.76-1.99c0,0-1.89,5.27-1.88,6.99s1.99,6.76,1.99,6.76Z" style="fill:#327ea7;"/><path d="m309.2,550.32s.15-2.92-.11-3.78-2.02-3.09-2.02-3.09c0,0,2.83.18,3.69-.08s3.18-2.05,3.18-2.05c0,0-.15,2.92.11,3.78s2.02,3.09,2.02,3.09c0,0-2.92-.15-3.78.11s-3.09,2.02-3.09,2.02Z" style="fill:#327ea7;"/><path d="m263.1,373.01s2.62-1.62,3.2-2.37,1.45-3.59,1.45-3.59c0,0,1.54,2.55,2.28,3.13s3.68,1.52,3.68,1.52c0,0-2.62,1.62-3.2,2.37s-1.45,3.59-1.45,3.59c0,0-1.62-2.62-2.37-3.2s-3.59-1.45-3.59-1.45Z" style="fill:#327ea7;"/><path d="m416.77,264.02s1.48,5.43,2.48,6.83,5.53,4.42,5.53,4.42c0,0-5.27,1.36-6.67,2.37s-4.57,5.65-4.57,5.65c0,0-1.48-5.43-2.48-6.83s-5.53-4.42-5.53-4.42c0,0,5.43-1.48,6.83-2.48s4.42-5.53,4.42-5.53Z" style="fill:#327ea7;"/><path d="m687.21,235.11s-1.67-3.78-2.55-4.69-4.5-2.6-4.5-2.6c0,0,3.67-1.57,4.58-2.45s2.7-4.6,2.7-4.6c0,0,1.67,3.78,2.55,4.69s4.5,2.6,4.5,2.6c0,0-3.78,1.67-4.69,2.55s-2.6,4.5-2.6,4.5Z" style="fill:#327ea7;"/><path d="m832.5,442.32s-4.77-1.24-6.27-1.09-5.77,2.29-5.77,2.29c0,0,1.26-4.6,1.11-6.1s-2.3-5.94-2.3-5.94c0,0,4.77,1.24,6.27,1.09s5.77-2.29,5.77-2.29c0,0-1.24,4.77-1.09,6.27s2.29,5.77,2.29,5.77Z" style="fill:#327ea7;"/><path d="m1020.8,616.54s-1.68-2.91-2.47-3.57-3.87-1.71-3.87-1.71c0,0,2.84-1.59,3.5-2.38s1.79-3.96,1.79-3.96c0,0,1.68,2.91,2.47,3.57s3.87,1.71,3.87,1.71c0,0-2.91,1.68-3.57,2.47s-1.71,3.87-1.71,3.87Z" style="fill:#327ea7;"/><path d="m1227.83,478.38s3.65-1.01,4.59-1.69,2.96-3.74,2.96-3.74c0,0,.93,3.54,1.61,4.49s3.81,3.06,3.81,3.06c0,0-3.65,1.01-4.59,1.69s-2.96,3.74-2.96,3.74c0,0-1.01-3.65-1.69-4.59s-3.74-2.96-3.74-2.96Z" style="fill:#327ea7;"/><path d="m1185.28,266.86s2.17,4.87,3.32,6.04,5.83,3.33,5.83,3.33c0,0-4.74,2.04-5.91,3.19s-3.46,5.95-3.46,5.95c0,0-2.17-4.87-3.32-6.04s-5.83-3.33-5.83-3.33c0,0,4.87-2.17,6.04-3.32s3.33-5.83,3.33-5.83Z" style="fill:#327ea7;"/><path d="m968.86,199.55s-1.18,3.91-1.1,5.16,1.71,4.85,1.71,4.85c0,0-3.77-1.18-5.02-1.11s-4.99,1.72-4.99,1.72c0,0,1.18-3.91,1.1-5.16s-1.71-4.85-1.71-4.85c0,0,3.91,1.18,5.16,1.1s4.85-1.71,4.85-1.71Z" style="fill:#327ea7;"/><path d="m693.19,156.24s.7-5.69.29-7.41-3.53-6.3-3.53-6.3c0,0,5.5.74,7.21.34s6.5-3.57,6.5-3.57c0,0-.7,5.69-.29,7.41s3.53,6.3,3.53,6.3c0,0-5.69-.7-7.41-.29s-6.3,3.53-6.3,3.53Z" style="fill:#327ea7;"/><path d="m421.04,126.72s.77,4.2,1.44,5.33,3.91,3.7,3.91,3.7c0,0-4.07.7-5.2,1.36s-3.82,3.98-3.82,3.98c0,0-.77-4.2-1.44-5.33s-3.91-3.7-3.91-3.7c0,0,4.2-.77,5.33-1.44s3.7-3.91,3.7-3.91Z" style="fill:#327ea7;"/><path d="m187.05,148.49s3.47,3.72,4.86,4.42,6.29,1.2,6.29,1.2c0,0-3.64,3.31-4.34,4.71s-1.28,6.45-1.28,6.45c0,0-3.47-3.72-4.86-4.42s-6.29-1.2-6.29-1.2c0,0,3.72-3.47,4.42-4.86s1.2-6.29,1.2-6.29Z" style="fill:#327ea7;"/></g></g><g><path d="m89.01,172.08s3.46.46,4.51.22,3.86-2.11,3.86-2.11c0,0-.49,3.35-.25,4.39s2.13,3.98,2.13,3.98c0,0-3.46-.46-4.51-.22s-3.86,2.11-3.86,2.11c0,0,.46-3.46.22-4.51s-2.11-3.86-2.11-3.86Z" style="fill:#327ea7;"/><path d="m103.7,441.86s4.19-1.53,5.24-2.41,3.13-4.67,3.13-4.67c0,0,1.43,4.08,2.31,5.12s4.77,3.24,4.77,3.24c0,0-4.19,1.53-5.24,2.41s-3.13,4.67-3.13,4.67c0,0-1.53-4.19-2.41-5.24s-4.67-3.13-4.67-3.13Z" style="fill:#327ea7;"/><path d="m321.5,651.36s-1.87,3.32-2.06,4.47.56,4.76.56,4.76c0,0-3.19-1.85-4.34-2.04s-4.89.54-4.89.54c0,0,1.87-3.32,2.06-4.47s-.56-4.76-.56-4.76c0,0,3.32,1.87,4.47,2.06s4.76-.56,4.76-.56Z" style="fill:#327ea7;"/></g><g><path d="m1261.39,78.11s-3.51.78-4.44,1.38-2.99,3.4-2.99,3.4c0,0-.71-3.4-1.31-4.33s-3.47-3.09-3.47-3.09c0,0,3.51-.78,4.44-1.38s2.99-3.4,2.99-3.4c0,0,.78,3.51,1.38,4.44s3.4,2.99,3.4,2.99Z" style="fill:#6b2960;"/><path d="m1041.43,46.13s-2.21-3.93-3.27-4.83-5.17-2.35-5.17-2.35c0,0,3.83-2.09,4.73-3.15s2.45-5.29,2.45-5.29c0,0,2.21,3.93,3.27,4.83s5.17,2.35,5.17,2.35c0,0-3.93,2.21-4.83,3.27s-2.35,5.17-2.35,5.17Z" style="fill:#6b2960;"/><path d="m776.69,55.54s1.17-4.65,1.02-6.11-2.26-5.6-2.26-5.6c0,0,4.48,1.19,5.95,1.04s5.76-2.28,5.76-2.28c0,0-1.17,4.65-1.02,6.11s2.26,5.6,2.26,5.6c0,0-4.65-1.17-6.11-1.02s-5.6,2.26-5.6,2.26Z" style="fill:#6b2960;"/><path d="m546.21,87.68s-.87-4.68-1.61-5.94-4.36-4.11-4.36-4.11c0,0,4.54-.78,5.8-1.53s4.25-4.44,4.25-4.44c0,0,.87,4.68,1.61,5.94s4.36,4.11,4.36,4.11c0,0-4.68.87-5.94,1.61s-4.11,4.36-4.11,4.36Z" style="fill:#6b2960;"/><path d="m278.02,12.31s-3.34-3.96-4.72-4.75-6.34-1.54-6.34-1.54c0,0,3.87-3.18,4.66-4.56s1.63-6.49,1.63-6.49c0,0,3.34,3.96,4.72,4.75s6.34,1.54,6.34,1.54c0,0-3.96,3.34-4.75,4.72s-1.54,6.34-1.54,6.34Z" style="fill:#6b2960;"/><path d="m67.7,92.06s4.25,3.1,5.8,3.54,6.62,0,6.62,0c0,0-3.05,4.07-3.49,5.63s-.04,6.8-.04,6.8c0,0-4.25-3.1-5.8-3.54s-6.62,0-6.62,0c0,0,3.1-4.25,3.54-5.8s0-6.62,0-6.62Z" style="fill:#6b2960;"/><path d="m188.68,344.06s1.29-4.47,1.19-5.9-2.01-5.5-2.01-5.5c0,0,4.31,1.31,5.73,1.2s5.67-2.02,5.67-2.02c0,0-1.29,4.47-1.19,5.9s2.01,5.5,2.01,5.5c0,0-4.47-1.29-5.9-1.19s-5.5,2.01-5.5,2.01Z" style="fill:#6b2960;"/><path d="m293.55,531.03s-.98,3.45-.9,4.54,1.56,4.23,1.56,4.23c0,0-3.32-.99-4.42-.91s-4.36,1.57-4.36,1.57c0,0,.98-3.45.9-4.54s-1.56-4.23-1.56-4.23c0,0,3.45.98,4.54.9s4.23-1.56,4.23-1.56Z" style="fill:#6b2960;"/><path d="m530.86,637.45s-2.54-2.04-3.49-2.36-4.1-.19-4.1-.19c0,0,2.01-2.43,2.33-3.38s.23-4.21.23-4.21c0,0,2.54,2.04,3.49,2.36s4.1.19,4.1.19c0,0-2.04,2.54-2.36,3.49s-.19,4.1-.19,4.1Z" style="fill:#6b2960;"/><path d="m780.87,571.82s-1.85,3.77-1.98,5.05.92,5.2.92,5.2c0,0-3.62-1.83-4.9-1.97s-5.35.91-5.35.91c0,0,1.85-3.77,1.98-5.05s-.92-5.2-.92-5.2c0,0,3.77,1.85,5.05,1.98s5.2-.92,5.2-.92Z" style="fill:#6b2960;"/><path d="m1001.95,662.24s-3.13,4.64-3.54,6.31.27,7.05.27,7.05c0,0-4.46-3.09-6.13-3.49s-7.24.22-7.24.22c0,0,3.13-4.64,3.54-6.31s-.27-7.05-.27-7.05c0,0,4.64,3.13,6.31,3.54s7.05-.27,7.05-.27Z" style="fill:#6b2960;"/><path d="m1211.7,561.69s-2.9.79-3.66,1.32-2.37,2.96-2.37,2.96c0,0-.72-2.82-1.26-3.57s-3.02-2.45-3.02-2.45c0,0,2.9-.79,3.66-1.32s2.37-2.96,2.37-2.96c0,0,.79,2.9,1.32,3.66s2.96,2.37,2.96,2.37Z" style="fill:#6b2960;"/></g><g><path d="m569.88,455.96s-.24,5.31.25,6.86,3.7,5.57,3.7,5.57c0,0-5.13-.3-6.68.2s-5.75,3.75-5.75,3.75c0,0,.24-5.31-.25-6.86s-3.7-5.57-3.7-5.57c0,0,5.31.24,6.86-.25s5.57-3.7,5.57-3.7Z" style="fill:#6b2960;"/><path d="m799.2,405s4.45.26,5.75-.14,4.71-3.04,4.71-3.04c0,0-.3,4.3.1,5.61s3.09,4.86,3.09,4.86c0,0-4.45-.26-5.75.14s-4.71,3.04-4.71,3.04c0,0,.26-4.45-.14-5.75s-3.04-4.71-3.04-4.71Z" style="fill:#6b2960;"/><path d="m965.34,193.29s-1.64,4.2-1.66,5.59,1.46,5.49,1.46,5.49c0,0-4.05-1.63-5.43-1.66s-5.64,1.46-5.64,1.46c0,0,1.64-4.2,1.66-5.59s-1.46-5.49-1.46-5.49c0,0,4.2,1.64,5.59,1.66s5.49-1.46,5.49-1.46Z" style="fill:#6b2960;"/></g></g><g id="k"><path d="m24.62,396.27s1.09,3.65,1.8,4.59,3.83,2.9,3.83,2.9c0,0-3.55,1.02-4.48,1.72s-3.01,3.91-3.01,3.91c0,0-1.09-3.65-1.8-4.59s-3.83-2.9-3.83-2.9c0,0,3.65-1.09,4.59-1.8s2.9-3.83,2.9-3.83Z" style="fill:#6b2960;"/></g><g id="n"><g><g><path d="m-100.23,205.98c-11.33,0-22.61-1.47-33.54-4.38-2.73-.73-5.42-1.54-7.98-2.41-17.79-5.99-33.79-15.6-47.55-28.56-.93-.87-1.84-1.76-2.73-2.66-48.64-48.51-51.05-126.78-5.48-178.18.87-.98,1.77-1.96,2.67-2.93,7.36-7.82,15.62-14.69,24.54-20.4l.27-.18c3.66-2.34,7.47-4.5,11.32-6.43,9.55-4.81,19.69-8.43,30.14-10.76,6.66-1.48,13.49-2.44,20.31-2.86,2.7-.17,5.43-.25,8.13-.25,22.09,0,43.92,5.65,63.11,16.34,9.34,5.2,18.07,11.59,25.94,19C14.21,5.13,28.71,37.35,29.75,72.06c1.05,34.71-11.49,67.75-35.29,93.03-5.58,5.93-11.73,11.35-18.26,16.1-11.1,8.09-23.37,14.32-36.48,18.53-3.69,1.2-7.49,2.24-11.32,3.09-9.38,2.11-19.02,3.18-28.64,3.18Z" style="fill:#d83e98;"/><path d="m-100.12-56.52v5c21.67,0,43.07,5.54,61.89,16.03,9.16,5.09,17.71,11.36,25.44,18.64C12.01,6.49,26.23,38.09,27.26,72.13c1.03,34.04-11.26,66.44-34.61,91.24-5.48,5.82-11.5,11.13-17.91,15.79-10.88,7.93-22.92,14.04-35.79,18.17-3.6,1.17-7.33,2.19-11.09,3.03-9.2,2.07-18.65,3.11-28.09,3.11-11.11,0-22.18-1.45-32.89-4.3-2.68-.72-5.32-1.51-7.84-2.37-17.44-5.87-33.13-15.29-46.63-28.01-.91-.86-1.81-1.73-2.69-2.61-47.7-47.58-50.06-124.33-5.37-174.75.85-.96,1.74-1.93,2.63-2.87,7.22-7.67,15.32-14.41,24.07-20.01l.38-.24c3.56-2.26,7.25-4.36,11-6.24,9.36-4.72,19.3-8.27,29.55-10.55,6.53-1.45,13.24-2.39,19.92-2.81,2.64-.16,5.32-.25,7.97-.25v-5m0,0c-2.76,0-5.53.09-8.28.26-6.96.43-13.87,1.4-20.7,2.92-10.56,2.35-20.89,6.01-30.72,10.97-4.03,2.02-7.97,4.27-11.82,6.73h0c-8.97,5.75-17.38,12.69-25.02,20.8-.93.98-1.84,1.98-2.73,2.98-46.47,52.42-44.03,132.12,5.58,181.61.91.91,1.84,1.82,2.79,2.71,14.36,13.52,30.94,23.2,48.47,29.11,2.69.91,5.41,1.73,8.14,2.46,11.2,2.98,22.69,4.47,34.18,4.47,9.8,0,19.59-1.08,29.19-3.24,3.88-.87,7.74-1.92,11.54-3.15,13.11-4.21,25.69-10.51,37.19-18.89,6.58-4.79,12.82-10.26,18.61-16.41C46.45,113.52,43.92,29.67-9.36-20.5c-8.17-7.69-17.05-14.14-26.43-19.36-19.98-11.13-42.17-16.66-64.33-16.66h0Z" style="fill:#e456a3;"/></g><g><path d="m-38.52-35.23c2.23,10.65,5.51,23.25,9.34,37.84C-8.88,80.03,9.24,84.8,4.89,116.62c-4,29.24-21.63,42.39-30.44,62.8-11.06,8.06-23.17,14.12-35.78,18.17,4.86-14.13,14.07-45.82,9.09-79.25-3.2-21.45-8.31-17.24-35.81-81.29-13.91-32.38-20.86-48.78-20.85-59.28.01-11.16.21-20.7.51-28.8,23.94-1.49,48.25,3.74,69.87,15.78Z" style="fill:#d83e98;"/><path d="m-13.09-16.6C38.18,31.67,40.62,112.36-7.65,163.63c-5.57,5.91-11.57,11.18-17.9,15.79,8.81-20.41,26.44-33.56,30.44-62.8C9.24,84.8-8.88,80.03-29.19,2.61c-3.83-14.59-7.1-27.19-9.34-37.84,9.03,5.02,17.58,11.23,25.44,18.63Z" style="fill:#af1b80;"/></g><path d="m68.99-30.93c3.17,4.33-15.9,24.24-48.5,52.12h0c-26.23,22.44-61.21,50.02-100.43,78.76-6.99,5.12-13.89,10.12-20.7,14.99h0c-33.03,23.64-63.59,44.11-88.34,59.39-34.36,21.23-57.53,32.45-60.59,28.28-2.99-4.08,13.82-22.04,43.1-47.47,1.07,1.43,2.17,2.86,3.31,4.24-11.02,10.75-16.62,18-15,20.21,1.66,2.26,10.7-1.12,24.9-8.81.4-.22.79-.43,1.2-.65,2.82-1.55,5.84-3.26,9.05-5.12h0c25.27-14.73,61.64-38.96,101.02-67.83.05-.04.09-.07.14-.1,0,0,.02,0,.03-.02C-39.24,65.81-2.89,36.32,18.24,16.48,32.1,3.44,39.4-5.44,37.59-7.91c-1.76-2.4-11.83,1.55-27.57,10.28-.27-.41-.55-.82-.83-1.23-.68-1-1.38-1.99-2.1-2.96,35.08-21.76,58.81-33.32,61.91-29.1Z" style="fill:#7e065a; opacity:.5;"/><path d="m-5.2-16.4c1.13,1.16,2.24,2.34,3.33,3.54,17.2-13.43,28.61-20.31,30.93-17.94,2.37,2.44-5.24,14.25-19.86,31.92C-9.45,23.66-39.46,55.72-74.59,90.02c-43.08,42.05-82.63,76.5-104.9,92.12-10.12,7.1-16.67,10.31-18.37,8.58-1.63-1.67,1.43-7.72,8.19-17.03-.45-.41-.89-.83-1.34-1.25-.95-.89-1.88-1.8-2.79-2.71l-.05-.05c-22.8,26.67-35.2,44.82-31.87,48.24,3.41,3.5,22.69-9.15,51.03-32.38,27.68-22.67,63.96-55.42,102.52-93.07C-39.53,60.61-10.41,30.28,11.91,5.27c31.03-34.77,48.94-59.25,45.01-63.27-3.85-3.94-27.79,12.58-62.12,41.6Z" style="fill:#81085a; opacity:.5;"/></g><g><g><path d="m95.24,790.61c-54.74,0-104.55-32.26-126.9-82.18-.57-1.28-1.13-2.59-1.67-3.9-4.38-10.62-7.43-21.69-9.07-32.91l-.05-.32c-.66-4.6-1.09-9.27-1.28-13.89-.49-11.42.46-22.9,2.79-34.11,1.49-7.14,3.57-14.22,6.16-21.05,9.47-24.96,25.74-46.52,47.06-62.32,9.17-6.81,19.25-12.49,29.94-16.9,16.95-6.98,34.75-10.53,52.92-10.53,56.55,0,107.02,33.79,128.57,86.08,3.32,8.05,5.89,16.42,7.65,24.88,2.99,14.38,3.65,29.08,1.98,43.71-.46,4.12-1.12,8.28-1.97,12.39-4.54,21.95-14.41,42.72-28.57,60.05-1.91,2.33-3.88,4.59-5.86,6.71-13.67,14.69-30.08,26.05-48.77,33.75-1.26.52-2.53,1.02-3.79,1.5-15.81,5.99-32.34,9.03-49.13,9.03Z" style="fill:#ddb21f;"/><path d="m95.15,515.19c26.69,0,52.62,7.77,75.01,22.48,22.92,15.06,40.58,36.48,51.08,61.94,3.26,7.9,5.78,16.12,7.5,24.41,2.93,14.1,3.58,28.51,1.94,42.87-.45,4.03-1.1,8.11-1.94,12.14-4.45,21.53-14.14,41.9-28.01,58.89-1.88,2.3-3.82,4.52-5.76,6.59-13.4,14.41-29.5,25.54-47.83,33.1-1.24.51-2.49,1-3.73,1.47-15.5,5.87-31.71,8.85-48.18,8.85-53.69,0-102.54-31.64-124.46-80.6-.56-1.25-1.11-2.54-1.64-3.82-4.29-10.42-7.29-21.28-8.89-32.27l-.07-.49c-.64-4.46-1.05-8.98-1.23-13.45-.48-11.2.45-22.45,2.74-33.44,1.47-7,3.5-13.95,6.04-20.65,9.28-24.48,25.24-45.62,46.15-61.12,9-6.68,18.88-12.25,29.36-16.58,16.62-6.85,34.08-10.32,51.91-10.32h0m-.01-5.35c-17.98,0-36.28,3.45-53.94,10.73-11.09,4.57-21.29,10.38-30.51,17.23-22.09,16.38-38.52,38.6-47.97,63.52-2.65,6.97-4.75,14.13-6.28,21.45-2.36,11.33-3.35,23-2.85,34.76.2,4.82.64,9.65,1.35,14.48h0c1.65,11.28,4.7,22.53,9.24,33.55.55,1.33,1.12,2.66,1.71,3.97,23.42,52.31,75.01,83.76,129.34,83.76,16.68,0,33.62-2.96,50.07-9.2,1.29-.49,2.58-1,3.87-1.53,19.5-8.04,36.24-19.92,49.71-34.4,2.07-2.22,4.06-4.51,5.98-6.85,14.52-17.78,24.49-38.82,29.11-61.2.86-4.16,1.54-8.38,2.01-12.63,1.67-14.63,1.08-29.66-2.02-44.55-1.77-8.52-4.35-17.01-7.79-25.36-22.54-54.69-75.35-87.74-131.05-87.73h0Z" style="fill:#fdd24d;"/></g><g><path d="m14,542.49c11.37,2.52,25.08,4.88,40.98,7.57,84.39,14.32,97.01-1.23,126.1,17.03,26.72,16.78,31.77,39.75,47.78,57.32,2.98,14.33,3.55,28.8,1.94,42.87-11.63-10.96-38.44-33.89-73.21-43.77-22.31-6.33-20.46.5-94.98-.92-37.68-.71-56.72-1.16-66.94-5.8-10.87-4.93-20.08-9.32-27.84-13.18,9.09-23.98,24.9-45.36,46.16-61.13Z" style="fill:#ddb21f;"/><path d="m-38.2,624.25c28.79,9.6,69.55,12.85,106.3,11.66,53.45-1.73,59.84-11.6,88.82-3.22,25.28,7.31,42.65,21.24,71.94,46.74-4.45,21.53-14.04,41.78-28.01,58.89-11.86-13.04-26.17-26-39.76-36.12-18.48-13.78-39.21-29.22-70.31-35.57-41.73-8.52-50.44,9.9-99.18-.3-10.28-2.15-16.56-4.36-32.55-8.62-.48-11.32.47-22.55,2.74-33.45Z" style="fill:#fdd24d;"/><path d="m-39.63,671.64c19.76,5.58,37.17,6.76,56.6,7.6,77.76,3.38,71.4-3.56,89.83,1.93,20.32,6.06,39.02,21.74,76.41,53.09,4.71,3.95,8.62,7.39,11.89,10.65-12.97,13.94-29.07,25.37-47.83,33.1-1.24.51-2.48,1-3.72,1.47-18.16-7.53-43.14-6.2-78.58-24.3-35.67-18.22-36.22-32.77-69.81-42.46-1.03-.3-11.85-3.33-24.25-4.99-.56-1.26-1.11-2.54-1.64-3.82-4.37-10.6-7.31-21.43-8.89-32.27Z" style="fill:#fdd24d;"/><path d="m-32.16,603.61c7.76,3.86,16.97,8.25,27.84,13.18,10.22,4.63,29.26,5.09,66.94,5.8,74.52,1.42,72.67-5.41,94.98.92,34.77,9.88,61.58,32.81,73.21,43.77-.45,4.08-1.11,8.15-1.94,12.15-29.29-25.5-46.66-39.43-71.94-46.74-28.98-8.38-35.37,1.49-88.82,3.22-36.75,1.19-77.52-2.05-106.3-11.66,1.47-7.04,3.49-13.94,6.04-20.64Z" style="fill:#fdd24d;"/><path d="m-40.94,657.7c15.99,4.26,22.27,6.47,32.55,8.62,48.74,10.21,57.45-8.22,99.18.3,31.1,6.35,51.83,21.8,70.31,35.57,13.59,10.13,27.9,23.08,39.76,36.12-1.84,2.25-3.76,4.46-5.75,6.59-3.27-3.26-7.18-6.7-11.89-10.65-37.4-31.35-56.1-47.03-76.41-53.09-18.43-5.49-12.07,1.45-89.83-1.93-19.43-.84-36.84-2.02-56.6-7.6h0c-.68-4.66-1.11-9.3-1.3-13.94Z" style="fill:#fdd24d;"/><path d="m43.36,525.91c69.62-28.69,149.31,4.48,178,74.1,3.31,8.03,5.8,16.2,7.5,24.4-16-17.58-21.05-40.55-47.78-57.32-29.09-18.26-41.72-2.71-126.1-17.03-15.9-2.69-29.62-5.05-40.98-7.57,8.87-6.58,18.69-12.18,29.36-16.58Z" style="fill:#ab7f1d;"/><path d="m-29.1,707.73c12.4,1.66,23.21,4.69,24.25,4.99,33.58,9.69,34.14,24.24,69.81,42.46,35.44,18.1,60.42,16.78,78.58,24.3-67.42,25.54-143.19-5.96-172.64-71.75Z" style="fill:#f5e28a;"/></g><path d="m65.56,439.62c5.61-1.18,16.62,26.17,29.41,70.21h0c10.3,35.45,21.76,81.68,32.49,132.56,1.91,9.07,3.74,17.99,5.48,26.77h0c8.48,42.61,14.96,81.4,18.94,112.25,5.54,42.83,6.27,70.35.86,71.49-5.29,1.12-15.39-23.17-27.27-62.91,1.87-.41,3.74-.86,5.59-1.36,5.61,15.47,10.22,24.12,13.08,23.52,2.94-.62,3.62-10.92,2.39-28.14-.04-.48-.07-.96-.1-1.46-.27-3.43-.6-7.13-1-11.07h0c-3.21-31.12-10.8-77.24-21.58-128.32-.01-.06-.03-.12-.04-.18,0-.01,0-.02,0-.03-11.67-55.25-24.39-103.66-34.42-132.99-6.59-19.25-12.03-30.27-15.24-29.6-3.12.66-3.7,12.21-2.13,31.39-.52.09-1.04.17-1.57.26-1.27.22-2.55.47-3.81.74-5.74-43.77-6.56-71.98-1.08-73.14Z" style="fill:#69211e; opacity:.5;"/><path d="m47.03,518.32c1.63-.59,3.27-1.15,4.92-1.68-5.51-22.68-7.19-36.82-3.86-38.04,3.42-1.24,11.57,11.39,22.35,33.42,13.74,28.09,31.76,71.45,49.7,120.79,22,60.5,38.14,114.21,43.55,142.79,2.46,12.99,2.7,20.79.27,21.68-2.34.85-6.89-4.79-12.98-15.48-.6.26-1.2.51-1.81.76-1.29.53-2.58,1.04-3.87,1.53l-.07.03c15.94,33.97,28.16,54.04,32.96,52.31,4.91-1.78,1.08-26.14-9.07-63.98-9.9-36.96-25.82-86.73-45.52-140.89-16.68-45.85-33.4-87.58-47.94-120.35-20.21-45.55-36.17-73.78-41.82-71.73-5.53,2.01.02,32.62,13.17,78.85Z" style="fill:#ddaf20; opacity:.5;"/></g><g><path d="m1256.12,83.99c-30,16-48,28-61.82,38.86-4.08,3.21-19.7,14.62-14.18,20.14,3,3,16.76-5.32,19-7,12-9,27-22,57-52Z" style="fill:url(#o);"/><path d="m1239.43,31.59c-30,16-48,28-61.82,38.86-4.08,3.21-19.7,14.62-14.18,20.14,3,3,16.76-5.32,19-7,12-9,27-22,57-52Z" style="fill:url(#p);"/><path d="m1189.43,102.59c-30,16-48,28-61.82,38.86-4.08,3.21-19.7,14.62-14.18,20.14,3,3,16.76-5.32,19-7,12-9,27-22,57-52Z" style="fill:url(#q);"/></g></g></svg>