<?xml version="1.0" encoding="UTF-8"?><svg id="a" xmlns="http://www.w3.org/2000/svg" xmlns:xlink="http://www.w3.org/1999/xlink" viewBox="0 0 1280 720"><defs><radialGradient id="b" cx="1202.85" cy="376.1" fx="1202.85" fy="376.1" r="637.28" gradientUnits="userSpaceOnUse"><stop offset=".43" stop-color="#faf5cb"/><stop offset=".71" stop-color="#f9f4c9"/><stop offset=".81" stop-color="#f9f1c2"/><stop offset=".88" stop-color="#f8ecb6"/><stop offset=".94" stop-color="#f7e6a5"/><stop offset=".99" stop-color="#f6dd8f"/><stop offset="1" stop-color="#f6dc8b"/></radialGradient><radialGradient id="c" cx="1248.13" cy="378.87" fx="1248.13" fy="378.87" r="610.79" xlink:href="#b"/><radialGradient id="d" cx="1270.08" cy="376.92" fx="1270.08" fy="376.92" r="1263.54" gradientUnits="userSpaceOnUse"><stop offset="0" stop-color="#faf5cb"/><stop offset=".49" stop-color="#9b8092"/><stop offset="1" stop-color="#340055"/></radialGradient></defs><path d="m672.23,720H0V0h717.47c6.06,6.29,14.05,13.05,21.53,19-8.02,3.34-23.41,8.48-43,7-26.16-1.98-44.1-14.57-51-20-.91,2.53-8.36,24.47,5,45,7.16,11.01,17.06,16.62,24.24,19.43-10.05-2.51-23.22-4.31-38.24-2.43-51.56,6.46-81.71,50.86-80,53,1.31,1.63,23.19-18.64,62-27,19.59-4.22,26.78-1.8,31,2,10.77,9.69,4.71,30.57,4,33-1.47,5.05-6.18,21.28-22,27-12.32,4.46-26.69.85-37-9-1.25,3.19-7.78,20.83,1,40,7.47,16.3,21.21,23.24,25,25-23.58,3.83-42.61,8.91-56,13-36.52,11.16-43.76,18.88-47,23-12,15.26-11.11,34.71-10,44,2.17-4.35,7.18-12.84,17-19,3.84-2.41,19.99-12.54,33-5,7.26,4.21,13.46,13.87,11,22-2.42,8-12.15,10.94-19,13-9.79,2.95-18.33,1.93-23,1,.4,2.82,3.03,19.39,17,28,15.24,9.39,37.87,5.57,53-11,8.48,20.1,2.95,43.05-13,56-13.46,10.93-32.46,13.21-49,6-.97,25.7,6.22,37.23,13,43,7.48,6.38,14.17,5.49,23,12,12.67,9.35,17.17,24.67,19,36-9.3-2.9-20.03-5.2-32-6-51.29-3.42-90.57,23.14-106,35,27.45-1.39,49.79.78,65,3,34.28,5.01,66.85,9.76,95,34,16.02,13.79,25.11,29.17,30,39-4.18-3.24-23.96-17.86-52-15-25.34,2.59-40.92,17.76-45,22,7.59,6.71,20.39,16.12,38,20,25.88,5.7,42.37-4.92,56,5,5.89,4.29,12.91,13.62,13,37-29.25-20.76-62.37-23.98-82-9-4.21,3.21-10.62,9.42-15,21,40.71-.49,65.61,11.02,81,22,16.38,11.69,23.23,23.66,37.23,38Z" style="fill:#340055;"/><path d="m778.07,0h-60.6c6.06,6.29,14.05,13.05,21.53,19-8.02,3.34-23.41,8.48-43,7-26.16-1.98-44.1-14.57-51-20-.91,2.53-8.36,24.47,5,45,7.16,11.01,17.06,16.62,24.24,19.43-10.05-2.51-23.22-4.31-38.24-2.43-51.56,6.46-81.71,50.86-80,53,1.31,1.63,23.19-18.64,62-27,19.59-4.22,26.78-1.8,31,2,10.77,9.69,4.71,30.57,4,33-1.47,5.05-6.18,21.28-22,27-12.32,4.46-26.69.85-37-9-1.25,3.19-7.78,20.83,1,40,7.47,16.3,21.21,23.24,25,25-23.58,3.83-42.61,8.91-56,13-36.52,11.16-43.76,18.88-47,23-12,15.26-11.11,34.71-10,44,2.17-4.35,7.18-12.84,17-19,3.84-2.41,19.99-12.54,33-5,7.26,4.21,13.46,13.87,11,22-2.42,8-12.15,10.94-19,13-9.79,2.95-18.33,1.93-23,1,.4,2.82,3.03,19.39,17,28,15.24,9.39,37.87,5.57,53-11,8.48,20.1,2.95,43.05-13,56-13.46,10.93-32.46,13.21-49,6-.97,25.7,6.22,37.23,13,43,7.48,6.38,14.17,5.49,23,12,12.67,9.35,17.17,24.67,19,36-9.3-2.9-20.03-5.2-32-6-51.29-3.42-90.57,23.14-106,35,27.45-1.39,49.79.78,65,3,34.28,5.01,66.85,9.76,95,34,16.02,13.79,25.11,29.17,30,39-4.18-3.24-23.96-17.86-52-15-25.34,2.59-40.92,17.76-45,22,7.59,6.71,20.39,16.12,38,20,25.88,5.7,42.37-4.92,56,5,5.89,4.29,12.91,13.62,13,37-29.25-20.76-62.37-23.98-82-9-4.21,3.21-10.62,9.42-15,21,40.71-.49,65.61,11.02,81,22,16.38,11.69,23.23,23.66,37.23,38h72.92c-69.58-95.2-110.65-212.55-110.65-339.5,0-145.84,54.2-279.03,143.57-380.5Zm-95.07,73c-1.24-.24-4.51-.91-8.72-2.56,3.25.81,6.17,1.7,8.72,2.56Z" style="fill:url(#b);"/><path d="m1280,0v720h-534.85c-69.58-95.2-110.65-212.55-110.65-339.5,0-145.84,54.2-279.03,143.57-380.5h501.93Z" style="fill:url(#c);"/><path d="m672.23,720H0V0h717.47c6.06,6.29,14.05,13.05,21.53,19-8.02,3.34-23.41,8.48-43,7-26.16-1.98-44.1-14.57-51-20-.91,2.53-8.36,24.47,5,45,7.16,11.01,17.06,16.62,24.24,19.43-10.05-2.51-23.22-4.31-38.24-2.43-51.56,6.46-81.71,50.86-80,53,1.31,1.63,23.19-18.64,62-27,19.59-4.22,26.78-1.8,31,2,10.77,9.69,4.71,30.57,4,33-1.47,5.05-6.18,21.28-22,27-12.32,4.46-26.69.85-37-9-1.25,3.19-7.78,20.83,1,40,7.47,16.3,21.21,23.24,25,25-23.58,3.83-42.61,8.91-56,13-36.52,11.16-43.76,18.88-47,23-12,15.26-11.11,34.71-10,44,2.17-4.35,7.18-12.84,17-19,3.84-2.41,19.99-12.54,33-5,7.26,4.21,13.46,13.87,11,22-2.42,8-12.15,10.94-19,13-9.79,2.95-18.33,1.93-23,1,.4,2.82,3.03,19.39,17,28,15.24,9.39,37.87,5.57,53-11,8.48,20.1,2.95,43.05-13,56-13.46,10.93-32.46,13.21-49,6-.97,25.7,6.22,37.23,13,43,7.48,6.38,14.17,5.49,23,12,12.67,9.35,17.17,24.67,19,36-9.3-2.9-20.03-5.2-32-6-51.29-3.42-90.57,23.14-106,35,27.45-1.39,49.79.78,65,3,34.28,5.01,66.85,9.76,95,34,16.02,13.79,25.11,29.17,30,39-4.18-3.24-23.96-17.86-52-15-25.34,2.59-40.92,17.76-45,22,7.59,6.71,20.39,16.12,38,20,25.88,5.7,42.37-4.92,56,5,5.89,4.29,12.91,13.62,13,37-29.25-20.76-62.37-23.98-82-9-4.21,3.21-10.62,9.42-15,21,40.71-.49,65.61,11.02,81,22,16.38,11.69,23.23,23.66,37.23,38Z" style="fill:url(#d);"/><g id="e"><path d="m1053.94,438.8v-35.22h11.82v11.79c7.98,0,15.75,0,23.52,0l-.05-.06v11.4h23.97v-11.26h11.86v11.5h23.43v23.76h11.92v11.93h11.89l-.06-.05v11.5h23.36v11.87h-11.84v12.04s.06-.05.06-.05h-11.57v23.49l.05-.06h-11.9v11.84h-11.88v-23.3h-47.25v-11.88h35.14v-11.88h-58.53v-11.95h11.23v-11.55h-11.26v-11.88h11.29v-11.95h-11.33v-11.84h-11.88v11.76h-12.04l.06.06Zm82.5.12h-35.11v35.1h35.11v-35.1Zm12.14,35.3v23.58h11.67v-23.58h-11.67Z" style="fill:#e28660;"/><path d="m1124.98,344.21h11.47v11.98h12.01l-.05-.06v47.32s.06-.06.06-.06h-35.35v-11.92l-.06.06h23.32v-11.97h-23.32l.06.06v-11.57h-11.97l.06.06v-12.03h-11.92v-59.12l-.05.06h11.89v-11.83h11.92v11.72h11.94v12.02l.06-.05h-12.04v12.02h-11.69v11.47h23.73l-.06-.05c.02,3.99.04,7.98.06,11.96-3.94,0-7.87,0-11.82,0v11.75h11.76v-11.81Z" style="fill:#e28660;"/><path d="m853.32,533.17v-82.34h82.31v82.34h-82.31Zm11.77-70.54v58.83h58.89v-58.83h-58.89Z" style="fill:#e28660;"/><path d="m1195.65,273.11h-82.39v-82.23h82.39v82.23Zm-11.64-70.52h-58.88v58.84h58.88v-58.84Z" style="fill:#e28660;"/><path d="m853.36,190.84h82.29v82.26h-82.29v-82.26Zm11.69,11.66v58.96h58.89v-58.96h-58.89Z" style="fill:#e28660;"/><path d="m994.7,391.54h23.72v11.81h-11.62v23.45h11.68v11.87h11.86v11.94h-11.67v11.86h-35.34v-11.73h11.25v-11.84h-23.19v35.13h11.78c0,4.15,0,8.09,0,12.04l.06-.05h-23.89l.06.05v-35.33h-11.84v-11.87h11.84c0-4.15,0-8.1,0-12.04l-.06.05h35.24v-11.66h-11.26v-11.86h11.43v-11.89l-.05.06Z" style="fill:#e28660;"/><path d="m935.92,320.84h11.57l-.05-.06v11.62h23.89v11.87h-11.91v35.35h-11.98v-11.41h-23.38v11.41h-35.43v-11.58h-11.89l.06.05v-35.74h11.91l-.05-.06v23.94h11.59v11.72h11.92v-23.75c4.1,0,7.99,0,11.88,0,0,3.94,0,7.88,0,11.82h23.26v-11.76h-23.32v-12.01h11.98v-11.48l-.05.06Z" style="fill:#e28660;"/><path d="m959.41,261.66v-11.9h-11.84v-35.24h11.76v11.69h11.87v11.46h11.94v-23.21h35.37v-11.94h11.87v-11.86h23.42v11.69h-11.84v23.95l.06-.05h-47.26v23.49c-7.78,0-15.56,0-23.43,0v11.92c-3.99-.02-7.98-.04-11.97-.05l.06.05Z" style="fill:#e28660;"/><path d="m1042.03,391.53c0-3.99,0-7.98,0-11.96l-.06.05h11.8v-11.57h-11.8l.06.06v-12.03h11.95v-11.71h23.83v23.74h23.4l-.06-.06v11.57h11.97l-.06-.06v11.97s.06-.06.06-.06h-12.01v23.83h-11.87l.05.06v-11.87h-11.58c0-4.14,0-8.08,0-12.01,3.8,0,7.61,0,11.42,0v-11.75h-11.36v11.81c-11.93-.02-23.86-.05-35.79-.07l.06.06Z" style="fill:#e28660;"/><path d="m888.7,332.36v-11.5h-23.79v-23.78h-11.86v-11.9h47.04v11.84h23.95l-.06-.06v11.87h11.92c0,4.14,0,8.08,0,12.01l.05-.06h-23.93v11.52h-23.39l.05.06Zm-.17-23.55v-11.67h-11.67v11.67h11.67Z" style="fill:#e28660;"/><path d="m1006.74,497.85h-12.04v23.57l.06-.06h-11.5v11.84h-11.86v-23.19h-12v23.2h-11.79v-47.14c3.92,0,7.86,0,11.8,0,0,0-.06-.05-.06-.05v11.81h23.89v-11.81l-.06.05c3.76,0,7.52,0,11.5,0v-11.83h12c0,7.86,0,15.77,0,23.67,0,0,.06-.06.06-.06Z" style="fill:#e28660;"/><path d="m1065.78,533.17v-11.68h-11.8v11.69h-11.89v-23.23h11.77v-47.24h11.85v35.18h23.42v11.94h-11.26v11.54h11.28v11.79h-23.38Z" style="fill:#e28660;"/><path d="m935.98,426.84v11.81h-23.8v-11.69h-11.95v-23.55l-.06.05c15.77-.02,31.55-.04,47.32-.05v12.01h11.86v11.48l.06-.05c-7.83.02-15.66.04-23.49.06,0-3.8,0-7.61,0-11.42h-11.75v11.36h11.81Z" style="fill:#e28660;"/><path d="m1065.86,214.39v-11.89h23.33v-11.81h11.86v82.82h-11.81l.05.06v-59.24h-23.49l.06.05Z" style="fill:#e28660;"/><path d="m1124.98,308.92h11.5v-23.75h35.84c0,3.88,0,7.82,0,11.76,0,0,.06-.06.06-.06h-11.96v23.84h-23.81v11.6c-4.01,0-7.82,0-11.63,0,0,0,.06.05.06.05v-23.49l-.06.05Z" style="fill:#e28660;"/><path d="m1041.96,226.31h11.88v-11.92c4.14,0,8.08,0,12.02,0l-.06-.05v23.54h11.92v35.7l.06-.06c-3.99.02-7.98.04-11.97.05v-11.92h-11.92v-23.92h-11.86v-11.48l-.06.05Z" style="fill:#e28660;"/><path d="m876.79,391.48h-23.73v-35.21h11.69v11.83c4.16,0,8.1,0,12.04,0,0,0-.06-.05-.06-.05,0,7.83,0,15.66,0,23.49l.05-.06Z" style="fill:#e28660;"/><path d="m1089.23,273.52c0,7.83,0,15.66,0,23.5,0,0,.05-.06.05-.06h-11.62v23.71h-11.88v-35.62c3.94,0,7.89,0,11.97,0v-11.52s-.06.06-.06.06h11.57l-.05-.06Z" style="fill:#e28660;"/><path d="m1183.76,415.32v11.57l.06-.05h-11.57v11.97l.06-.06h-12v-23.48h-11.83v-11.87s-.06.06-.06.06h23.89l-.06-.06v11.97h11.57l-.06-.05Z" style="fill:#e28660;"/><path d="m1018.67,498.05v-23.81h11.74v-11.51h11.49v35.27c-7.75,0-15.52,0-23.29,0,0,0,.06.06.06.06Z" style="fill:#e28660;"/><path d="m1172.25,368.11h23.31v11.43h-11.8v23.91l.06-.05h-11.57s.06.06.06.06v-12.04h-11.83v-11.87h11.83v-11.5l-.05.06Z" style="fill:#e28660;"/><path d="m1148.47,356.19v-11.81h23.78c0,7.91,0,15.82,0,23.73,0,0,.05-.06.05-.06h-12.01v-11.92h-11.87l.05.06Z" style="fill:#e28660;"/><path d="m1018.53,368.05v11.51h-23.83l.05.06c-.02-7.83-.04-15.66-.05-23.49h11.97v11.97h11.92l-.06-.05Z" style="fill:#e28660;"/><path d="m1183.76,296.96v35.24h-11.26c-.08-.16-.18-.28-.18-.39.01-11.65.03-23.29.05-34.94,0,0-.06.06-.05.06,3.84.03,7.67.05,11.5.08l-.06-.06Z" style="fill:#e28660;"/><path d="m971.21,190.67v11.67h-23.58v-11.67h23.58Z" style="fill:#e28660;"/><path d="m888.59,427v11.67h-23.58v-11.67h23.58Z" style="fill:#e28660;"/><path d="m1113.18,533.17v-11.67h23.18v11.67h-23.18Z" style="fill:#e28660;"/><path d="m1018.54,509.91h11.8v23.27h-11.74v-23.33l-.06.06Z" style="fill:#e28660;"/><path d="m1183.76,497.99h11.81v23.38h-11.8l.05.06v-23.49l-.06.05Z" style="fill:#e28660;"/><path d="m900.23,403.4h-23.44c0-4.03,0-7.98,0-11.92,0,0-.05.06-.05.06h23.43v11.92l.06-.05Z" style="fill:#e28660;"/><path d="m1183.76,438.75v23.83h-11.52s.06.05.06.05v-23.89s-.06.06-.06.06h11.57l-.06-.05Z" style="fill:#e28660;"/><path d="m864.71,415.25h-11.67v-11.67h11.67v11.67Z" style="fill:#e28660;"/><path d="m853.01,344.15v-11.68h11.71v11.68h-11.71Z" style="fill:#e28660;"/><path d="m994.69,521.42h11.81v11.76h-11.75c0-3.95,0-7.88,0-11.82,0,0-.06.06-.06.06Z" style="fill:#e28660;"/><path d="m947.49,320.84v-11.92h11.92l-.05-.06v11.92h-11.92l.05.06Z" style="fill:#e28660;"/><path d="m959.4,308.93v-11.97s-.05.05-.05.05h11.8v11.86h-11.8l.05.06Z" style="fill:#e28660;"/><path d="m1018.6,509.85h-11.86c0-4.03,0-8.02,0-12,0,0-.06.06-.05.06,4,.04,7.99.09,11.99.14,0,0-.06-.06-.06-.05-.02,3.97-.05,7.94-.07,11.91,0,0,.06-.06.06-.06Z" style="fill:#e28660;"/><path d="m1183.82,297.02v-11.81h11.76v11.75c-3.95,0-7.88,0-11.82,0,0,0,.06.06.06.06Z" style="fill:#e28660;"/><path d="m1183.76,403.46h11.81v11.86h-11.81s.06.05.06.05v-11.97l-.06.05Z" style="fill:#e28660;"/><path d="m1030.5,368.05c-3.99,0-7.98,0-11.97,0,0,0,.06.05.06.05-.02-3.99-.04-7.98-.05-11.97h11.91v11.97l.05-.06Z" style="fill:#e28660;"/><path d="m959.41,296.95h-11.81v-11.86h11.8l-.05-.06c0,3.99,0,7.98,0,11.97l.06-.05Z" style="fill:#e28660;"/><path d="m959.4,273.52h-11.8v-11.86c3.93,0,7.87,0,11.81,0l-.06-.05v11.97l.05-.06Z" style="fill:#e28660;"/><path d="m1183.76,426.89h11.81v11.86h-11.81l.06.05v-11.97l-.06.05Z" style="fill:#e28660;"/><path d="m1053.89,438.74v11.81h-11.76v-11.75c3.95,0,7.88,0,11.82,0,0,0-.06-.06-.06-.06Z" style="fill:#e28660;"/><path d="m924.05,297.02v-11.81h11.76v11.75c-3.95,0-7.88,0-11.82,0,0,0,.06.06.06.06Z" style="fill:#e28660;"/><path d="m959.4,285.1c0-3.86,0-7.72,0-11.58,0,0-.05.06-.05.06,3.99-.02,7.98-.04,11.97-.05v11.52h-11.97l.05.06Z" style="fill:#e28660;"/><path d="m1041.97,391.48v11.81h-11.36v-11.75c3.81,0,7.62,0,11.42,0,0,0-.06-.06-.06-.06Z" style="fill:#e28660;"/><path d="m994.7,379.57c0,3.99,0,7.99,0,11.98l.05-.06h-11.41v-11.86h11.41l-.05-.06Z" style="fill:#e28660;"/><path d="m1183.77,521.36v11.81h-11.46v-11.81s-.05.06-.05.06h11.57l-.05-.06Z" style="fill:#e28660;"/><path d="m1042.03,379.57h-11.52c0-3.9,0-7.71,0-11.52l-.05.06h11.57l-.06-.06v11.57l.06-.05Z" style="fill:#e28660;"/><path d="m1041.89,426.77h-11.27v-11.3h11.27v11.3Z" style="fill:#e28660;"/><path d="m1113.19,462.5v-11.66h11.69v11.66h-11.69Z" style="fill:#e28660;"/><path d="m1030.45,296.95h11.48v-11.92h12.01v23.81h-11.88v23.39h-47.3v23.95h-11.47v11.76h-12.02v-23.73h11.89v-23.38h35.35v-11.85h11.95v-12.03Z" style="fill:#e28660;"/><path d="m1018.59,356.19h-11.97v-11.8h11.97v11.8Z" style="fill:#e28660;"/><path d="m1065.85,273.52v11.57h-11.97v-11.57h11.97Z" style="fill:#e28660;"/><path d="m912.07,474.41v35.22h-35.21v-35.22h35.21Z" style="fill:#e28660;"/><path d="m1136.76,249.6v-35.15h35.27v35.15h-35.27Z" style="fill:#e28660;"/><path d="m911.97,249.64h-35.09v-35.16h35.09v35.16Z" style="fill:#e28660;"/><path d="m959.35,391.54v-11.97h11.8v11.97h-11.8Z" style="fill:#e28660;"/><path d="m947.43,391.49h11.97v11.97h-11.97v-11.97Z" style="fill:#e28660;"/><path d="m1018.53,249.75h11.97v47.26h-23.83c0-7.93,0-15.71,0-23.49l-.06.05h11.97v-23.89l-.05.06Z" style="fill:#e28660;"/><path d="m994.7,273.57v-23.89c3.99.02,7.98.04,11.97.06l-.05-.06v23.89l.06-.05c-3.99.02-7.98.04-11.97.05Z" style="fill:#e28660;"/><path d="m971.27,273.57v-11.97h11.97v11.97h-11.97Z" style="fill:#e28660;"/><path d="m983.18,273.52h11.57v11.41h-11.57v-11.41Z" style="fill:#e28660;"/><path d="m947.49,379.57v11.97h-23.49v-11.97h23.49Z" style="fill:#e28660;"/><path d="m1006.67,249.75v-11.81h11.86c0,3.93,0,7.87,0,11.81l.05-.06h-11.97l.05.06Z" style="fill:#e28660;"/><path d="m1053.94,261.6v11.97h-11.8v-11.97h11.8Z" style="fill:#e28660;"/></g><g><path d="m20.63,729.88s-3.91-2.16-5.27-2.36c-1.36-.21-5.58.72-5.58.72,0,0,2.13-3.76,2.34-5.11s-.69-5.73-.69-5.73c0,0,3.91,2.16,5.27,2.36,1.36.21,5.58-.72,5.58-.72,0,0-2.16,3.91-2.36,5.27s.72,5.58.72,5.58Z" style="fill:#4f2e83;"/><path d="m66.58,222.25s.93,3.03,1.52,3.8,3.2,2.38,3.2,2.38c0,0-2.94.86-3.71,1.45s-2.47,3.26-2.47,3.26c0,0-.93-3.03-1.52-3.8s-3.2-2.38-3.2-2.38c0,0,3.03-.93,3.8-1.52s2.38-3.2,2.38-3.2Z" style="fill:#4f2e83;"/><path d="m178.47,5.97s-1.11-2.93-1.74-3.66-3.3-2.15-3.3-2.15c0,0,2.85-1.04,3.57-1.67s2.24-3.38,2.24-3.38c0,0,1.11,2.93,1.74,3.66s3.3,2.15,3.3,2.15c0,0-2.93,1.11-3.66,1.74s-2.15,3.3-2.15,3.3Z" style="fill:#4f2e83;"/></g><g><path d="m124.89,4.82s-3.61-2.53-4.92-2.87-5.55.11-5.55.11c0,0,2.49-3.46,2.83-4.77s-.07-5.69-.07-5.69c0,0,3.61,2.53,4.92,2.87s5.55-.11,5.55-.11c0,0-2.53,3.61-2.87,4.92s.11,5.55.11,5.55Z" style="fill:#4f2e83;"/><path d="m96.67,258.91s-3.64,2.93-4.37,4.16-1.52,5.68-1.52,5.68c0,0-2.79-3.55-4.02-4.29-1.23-.74-5.82-1.6-5.82-1.6,0,0,3.64-2.93,4.37-4.16s1.52-5.68,1.52-5.68c0,0,2.93,3.64,4.16,4.37s5.68,1.52,5.68,1.52Z" style="fill:#4f2e83;"/><path d="m94.59,544.82s4.3,3.5,5.9,4.05c1.61.55,6.97.36,6.97.36,0,0-3.44,4.11-3.99,5.72s-.42,7.15-.42,7.15c0,0-4.3-3.5-5.9-4.05-1.61-.55-6.97-.36-6.97-.36,0,0,3.5-4.3,4.05-5.9s.36-6.97.36-6.97Z" style="fill:#4f2e83;"/></g><g><path d="m42.47,433.53s-3.53,2.27-4.31,3.3-1.9,4.93-1.9,4.93c0,0-2.15-3.44-3.18-4.22s-5.05-1.99-5.05-1.99c0,0,3.53-2.27,4.31-3.3s1.9-4.93,1.9-4.93c0,0,2.27,3.53,3.3,4.31s4.93,1.9,4.93,1.9Z" style="fill:#4f2e83;"/><path d="m33.63,213.14s-.97-3.03-1.58-3.8-3.24-2.36-3.24-2.36c0,0,2.95-.91,3.72-1.51s2.45-3.31,2.45-3.31c0,0,.97,3.03,1.58,3.8s3.24,2.36,3.24,2.36c0,0-3.03.97-3.8,1.58s-2.36,3.24-2.36,3.24Z" style="fill:#4f2e83;"/><path d="m133.22,40.33s2.44-5.17,2.59-6.92-1.36-7.06-1.36-7.06c0,0,4.97,2.42,6.72,2.57s7.26-1.35,7.26-1.35c0,0-2.44,5.17-2.59,6.92s1.36,7.06,1.36,7.06c0,0-5.17-2.44-6.92-2.59-1.75-.15-7.06,1.36-7.06,1.36Z" style="fill:#4f2e83;"/></g><g><path d="m50.99,581.43s-2.17-3.99-3.22-4.91c-1.05-.92-5.17-2.44-5.17-2.44,0,0,3.89-2.05,4.8-3.1s2.55-5.29,2.55-5.29c0,0,2.17,3.99,3.22,4.91,1.05.92,5.17,2.44,5.17,2.44,0,0-3.99,2.17-4.91,3.22s-2.44,5.17-2.44,5.17Z" style="fill:#4f2e83;"/><path d="m122.11,293.56s.91-2.92.86-3.86-1.25-3.65-1.25-3.65c0,0,2.82.91,3.76.86s3.75-1.26,3.75-1.26c0,0-.91,2.92-.86,3.86s1.25,3.65,1.25,3.65c0,0-2.92-.91-3.86-.86s-3.65,1.25-3.65,1.25Z" style="fill:#4f2e83;"/><path d="m199.01,33.85s.1-4.7-.37-6.06-3.39-4.85-3.39-4.85c0,0,4.55.15,5.91-.31,1.36-.47,5.01-3.44,5.01-3.44,0,0-.1,4.7.37,6.06s3.39,4.85,3.39,4.85c0,0-4.7-.1-6.06.37-1.36.47-4.85,3.39-4.85,3.39Z" style="fill:#4f2e83;"/></g></svg>