<?xml version="1.0" encoding="UTF-8"?><svg xmlns="http://www.w3.org/2000/svg" xmlns:xlink="http://www.w3.org/1999/xlink" viewBox="0 0 1280 720"><defs><linearGradient id="o" x1="1246.46" y1="637.98" x2="1168.16" y2="701.09" gradientUnits="userSpaceOnUse"><stop offset="0" stop-color="#eba75f"/><stop offset=".98" stop-color="#eba660"/></linearGradient><linearGradient id="p" x1="1187.03" y1="589.87" x2="1108.74" y2="652.98" xlink:href="#o"/><linearGradient id="q" x1="1261.03" y1="573.87" x2="1182.74" y2="636.98" xlink:href="#o"/></defs><g id="d"><rect width="1280" height="720" style="fill:#240746;"/><path d="m206.99,0c-11.64,11.16-19.23,23.48-21.99,37-4.59,22.48,1.78,60.18-24,81-25.64,20.7-56.45,3.22-78,21-24.81,20.48-3.8,60.57-5,119-1.64,80.33-41.83,85.77-71,203-2.26,9.07-4.69,18.87-7,29.04V143.42c7.6-5.13,16.36-11.36,26.5-18.92,46.37-34.6,69.89-52.48,86-81,6.89-12.2,15.68-27.75,19.99-43.5h74.5Z" style="fill:#2c004d;"/><path d="m1280,75.78v483.47c-6.41,2.19-12.17,5.6-16.5,10.25-22.64,24.34,9.57,65.62-11,96-6.27,9.25-18.99,19.8-85,25-96.16,7.57-120.02-10.8-172,2-21.66,5.33-46.11,15.57-65.66,27.5h-295.44c33.47-5.78,70.5-12.42,111.6-20,174.76-32.22,171.56-34.88,216-38,118.3-8.31,155.05,9.54,200-23,66.46-48.11,75.53-151.84,80-203,6.7-76.61-13.89-88.98,1-165,12.42-63.44,32.24-82.81,21-120-15.22-50.36-70.24-76.62-92-87-56.39-26.91-85.88-11.98-153-46-12.39-6.28-22.75-12.55-31.02-18h196.94c5.53,17.51,19.86,35.09,29.58,44.5,15.58,15.09,43.76,32.88,65.5,31.28Z" style="fill:#2c004d;"/><path d="m249.06,720H119.56c-30.2-20.09-72.46-38.24-80.06-41.5-13.4-5.76-27.07-11.63-39.5-15.73v-52.76c2.68,4.53,5.99,8.56,10,11.99,17.83,15.25,32.75,4.21,84,22,32.85,11.4,45.19,22.35,81,42,0,0,24.78,13.6,74.06,34Z" style="fill:#2c004d;"/><g style="opacity:.5;"><g><path d="m35.42,588.91s5.07-2.06,6.31-3.19c1.24-1.13,3.62-5.86,3.62-5.86,0,0,1.93,4.93,3.06,6.17s5.99,3.76,5.99,3.76c0,0-5.07,2.06-6.31,3.19s-3.62,5.86-3.62,5.86c0,0-2.06-5.07-3.19-6.31-1.13-1.24-5.86-3.62-5.86-3.62Z" style="fill:#3483a6;"/><path d="m252.65,515.61s1.85,3.49,2.76,4.3,4.48,2.17,4.48,2.17c0,0-3.4,1.75-4.21,2.66-.81.9-2.26,4.58-2.26,4.58,0,0-1.85-3.49-2.76-4.3s-4.48-2.17-4.48-2.17c0,0,3.49-1.85,4.3-2.76s2.17-4.48,2.17-4.48Z" style="fill:#3483a6;"/><path d="m446.39,606.71s2.24,2.43,3.15,2.9,4.09.81,4.09.81c0,0-2.38,2.14-2.84,3.04s-.86,4.19-.86,4.19c0,0-2.24-2.43-3.15-2.9s-4.09-.81-4.09-.81c0,0,2.43-2.24,2.9-3.15s.81-4.09.81-4.09Z" style="fill:#3483a6;"/><path d="m650.88,614.54s1.76,5.43,2.85,6.8,5.82,4.2,5.82,4.2c0,0-5.27,1.64-6.65,2.72-1.38,1.08-4.36,5.95-4.36,5.95,0,0-1.76-5.43-2.85-6.8-1.08-1.38-5.82-4.2-5.82-4.2,0,0,5.43-1.76,6.8-2.85s4.2-5.82,4.2-5.82Z" style="fill:#3483a6;"/><path d="m848.65,647.86s5.25-.22,6.74-.85,5.17-4.13,5.17-4.13c0,0,.15,5.09.78,6.58s4.2,5.34,4.2,5.34c0,0-5.25.22-6.74.85s-5.17,4.13-5.17,4.13c0,0-.22-5.25-.85-6.74s-4.13-5.17-4.13-5.17Z" style="fill:#3483a6;"/><path d="m1099.17,655.3s-3.7,2.56-4.5,3.69-1.86,5.35-1.86,5.35c0,0-2.43-3.62-3.56-4.41s-5.48-1.95-5.48-1.95c0,0,3.7-2.56,4.5-3.69.8-1.13,1.86-5.35,1.86-5.35,0,0,2.56,3.7,3.69,4.5s5.35,1.86,5.35,1.86Z" style="fill:#3483a6;"/><path d="m1267.68,558.43s1.25-3.99,1.19-5.27-1.7-4.99-1.7-4.99c0,0,3.85,1.26,5.13,1.19s5.13-1.7,5.13-1.7c0,0-1.25,3.99-1.19,5.27.06,1.28,1.7,4.99,1.7,4.99,0,0-3.99-1.25-5.27-1.19s-4.99,1.7-4.99,1.7Z" style="fill:#3483a6;"/><path d="m1032.58,523.95s-2.88-.52-3.76-.36-3.31,1.61-3.31,1.61c0,0,.54-2.78.38-3.66s-1.63-3.41-1.63-3.41c0,0,2.88.52,3.76.36s3.31-1.61,3.31-1.61c0,0-.52,2.88-.36,3.76.16.88,1.61,3.31,1.61,3.31Z" style="fill:#3483a6;"/><path d="m744.77,599.86s-2.93-1.1-3.9-1.1-3.8,1.07-3.8,1.07c0,0,1.1-2.83,1.1-3.79s-1.07-3.91-1.07-3.91c0,0,2.93,1.1,3.9,1.1s3.8-1.07,3.8-1.07c0,0-1.1,2.93-1.1,3.9s1.07,3.8,1.07,3.8Z" style="fill:#3483a6;"/><path d="m508.44,486.16s-2.31-3.27-3.32-3.97-4.78-1.61-4.78-1.61c0,0,3.2-2.19,3.89-3.2s1.69-4.89,1.69-4.89c0,0,2.31,3.27,3.32,3.97s4.78,1.61,4.78,1.61c0,0-3.27,2.31-3.97,3.32s-1.61,4.78-1.61,4.78Z" style="fill:#3483a6;"/><path d="m267.98,471.8s-3.26,2.07-3.98,3.02-1.78,4.53-1.78,4.53c0,0-1.97-3.18-2.91-3.9s-4.64-1.86-4.64-1.86c0,0,3.26-2.07,3.98-3.02.72-.94,1.78-4.53,1.78-4.53,0,0,2.07,3.26,3.02,3.98s4.53,1.78,4.53,1.78Z" style="fill:#3483a6;"/><path d="m108.97,548.21s-3.94,1.62-4.91,2.51-2.8,4.58-2.8,4.58c0,0-1.52-3.84-2.41-4.8-.89-.96-4.68-2.91-4.68-2.91,0,0,3.94-1.62,4.91-2.51s2.8-4.58,2.8-4.58c0,0,1.62,3.94,2.51,4.91.89.96,4.58,2.8,4.58,2.8Z" style="fill:#3483a6;"/><path d="m306.88,665.97s-.42,4.11-.11,5.34,2.63,4.5,2.63,4.5c0,0-3.97-.46-5.2-.15-1.23.31-4.63,2.66-4.63,2.66,0,0,.42-4.11.11-5.34-.31-1.23-2.63-4.5-2.63-4.5,0,0,4.11.42,5.34.11s4.5-2.63,4.5-2.63Z" style="fill:#3483a6;"/><path d="m582.83,584.36s-3.03,3.33-3.55,4.61-.6,5.64-.6,5.64c0,0-3.19-2.97-4.47-3.49-1.28-.52-5.78-.66-5.78-.66,0,0,3.03-3.33,3.55-4.61s.6-5.64.6-5.64c0,0,3.33,3.03,4.61,3.55s5.64.6,5.64.6Z" style="fill:#3483a6;"/><path d="m803.29,591.98s3.38.53,4.41.33,3.83-1.97,3.83-1.97c0,0-.56,3.26-.35,4.29.21,1.03,1.99,3.94,1.99,3.94,0,0-3.38-.53-4.41-.33s-3.83,1.97-3.83,1.97c0,0,.53-3.38.33-4.41-.21-1.03-1.97-3.83-1.97-3.83Z" style="fill:#3483a6;"/><path d="m1067.4,578.67s3.56,3.52,4.96,4.16,6.24.93,6.24.93c0,0-3.45,3.4-4.09,4.8s-1.01,6.4-1.01,6.4c0,0-3.56-3.52-4.96-4.16-1.4-.64-6.24-.93-6.24-.93,0,0,3.52-3.56,4.16-4.96.64-1.4.93-6.24.93-6.24Z" style="fill:#3483a6;"/></g></g><g style="opacity:.5;"><g><path d="m1110.5,320.49s-4.24-.45-5.52-.13-4.65,2.7-4.65,2.7c0,0,.49-4.1.17-5.37s-2.73-4.79-2.73-4.79c0,0,4.24.45,5.52.13s4.65-2.7,4.65-2.7c0,0-.45,4.24-.13,5.52s2.7,4.65,2.7,4.65Z" style="fill:#3483a6;"/><path d="m894.44,328.41s2.33-4.61,2.51-6.18c.18-1.57-1.06-6.41-1.06-6.41,0,0,4.43,2.31,6.01,2.49,1.57.18,6.59-1.04,6.59-1.04,0,0-2.33,4.61-2.51,6.18-.18,1.57,1.06,6.41,1.06,6.41,0,0-4.61-2.33-6.18-2.51s-6.41,1.06-6.41,1.06Z" style="fill:#3483a6;"/><path d="m670.23,354.07s3.16-2.26,3.83-3.25c.67-.99,1.53-4.65,1.53-4.65,0,0,2.15,3.08,3.14,3.75s4.76,1.6,4.76,1.6c0,0-3.16,2.26-3.83,3.25s-1.53,4.65-1.53,4.65c0,0-2.26-3.16-3.25-3.83-.99-.67-4.65-1.53-4.65-1.53Z" style="fill:#3483a6;"/><path d="m428.23,288.3s2.92,4.17,4.21,5.06c1.28.89,6.07,2.06,6.07,2.06,0,0-4.07,2.78-4.96,4.06-.89,1.28-2.16,6.21-2.16,6.21,0,0-2.92-4.17-4.21-5.06-1.28-.89-6.07-2.06-6.07-2.06,0,0,4.17-2.92,5.06-4.21.89-1.28,2.06-6.07,2.06-6.07Z" style="fill:#3483a6;"/><path d="m219.35,362.09s-1.48-4.44-2.37-5.56c-.9-1.12-4.8-3.41-4.8-3.41,0,0,4.31-1.37,5.43-2.27s3.54-4.9,3.54-4.9c0,0,1.48,4.44,2.37,5.56s4.8,3.41,4.8,3.41c0,0-4.44,1.48-5.56,2.37s-3.41,4.8-3.41,4.8Z" style="fill:#3483a6;"/></g></g><g><path d="m1129.63,108.58s-.51,3.51-.28,4.57,2.09,3.95,2.09,3.95c0,0-3.39-.53-4.45-.31-1.06.23-4.07,2.12-4.07,2.12,0,0,.51-3.51.28-4.57-.23-1.06-2.09-3.95-2.09-3.95,0,0,3.51.51,4.57.28s3.95-2.09,3.95-2.09Z" style="fill:#603796;"/><path d="m859.78,121.64s1.8-4.15,1.88-5.53c.08-1.39-1.25-5.55-1.25-5.55,0,0,3.99,1.79,5.38,1.87,1.39.08,5.71-1.24,5.71-1.24,0,0-1.8,4.15-1.88,5.53-.08,1.39,1.25,5.55,1.25,5.55,0,0-4.15-1.8-5.53-1.88-1.39-.08-5.55,1.25-5.55,1.25Z" style="fill:#603796;"/><path d="m648.99,27.63s1.85,2.89,2.69,3.52c.84.63,4.03,1.56,4.03,1.56,0,0-2.81,1.76-3.45,2.59s-1.63,4.12-1.63,4.12c0,0-1.85-2.89-2.69-3.52-.84-.63-4.03-1.56-4.03-1.56,0,0,2.89-1.85,3.52-2.69s1.56-4.03,1.56-4.03Z" style="fill:#603796;"/><path d="m407.74,121.76s-4.73-2.67-6.37-2.93-6.79.81-6.79.81c0,0,2.64-4.54,2.9-6.19.27-1.64-.78-6.97-.78-6.97,0,0,4.73,2.67,6.37,2.93,1.64.27,6.79-.81,6.79-.81,0,0-2.67,4.73-2.93,6.37-.27,1.64.81,6.79.81,6.79Z" style="fill:#603796;"/><path d="m189.6,126.04s-2.4,3.1-2.77,4.24-.14,4.93-.14,4.93c0,0-2.97-2.36-4.12-2.72s-5.06-.18-5.06-.18c0,0,2.4-3.1,2.77-4.24s.14-4.93.14-4.93c0,0,3.1,2.4,4.24,2.77,1.15.36,4.93.14,4.93.14Z" style="fill:#603796;"/><path d="m12.5,231.16s-4.99-.05-6.43.46-5.11,3.65-5.11,3.65c0,0,.11-4.82-.4-6.26-.51-1.44-3.71-5.27-3.71-5.27,0,0,4.99.05,6.43-.46,1.44-.51,5.11-3.65,5.11-3.65,0,0-.05,4.99.46,6.43s3.65,5.11,3.65,5.11Z" style="fill:#603796;"/><path d="m206.62,206.51s2.77,2.22,3.81,2.57,4.47.19,4.47.19c0,0-2.18,2.66-2.53,3.69-.34,1.04-.23,4.59-.23,4.59,0,0-2.77-2.22-3.81-2.57s-4.47-.19-4.47-.19c0,0,2.22-2.77,2.57-3.81s.19-4.47.19-4.47Z" style="fill:#603796;"/><path d="m412.24,208.93s4.5-3.45,5.43-4.92c.93-1.47,2.01-6.85,2.01-6.85,0,0,3.28,4.4,4.75,5.33,1.47.93,7.02,2.12,7.02,2.12,0,0-4.5,3.45-5.43,4.92s-2.01,6.85-2.01,6.85c0,0-3.45-4.5-4.92-5.43s-6.85-2.01-6.85-2.01Z" style="fill:#603796;"/><path d="m670.87,292.56s-1.59-3.58-2.43-4.45-4.28-2.46-4.28-2.46c0,0,3.49-1.49,4.35-2.33s2.56-4.37,2.56-4.37c0,0,1.59,3.58,2.43,4.45s4.28,2.46,4.28,2.46c0,0-3.58,1.59-4.45,2.43s-2.46,4.28-2.46,4.28Z" style="fill:#603796;"/><path d="m934.8,384.89s-2.96-4.39-4.28-5.34-6.27-2.26-6.27-2.26c0,0,4.29-2.81,5.24-4.13.95-1.32,2.37-6.42,2.37-6.42,0,0,2.96,4.39,4.28,5.34s6.27,2.26,6.27,2.26c0,0-4.39,2.96-5.34,4.28-.95,1.32-2.26,6.27-2.26,6.27Z" style="fill:#603796;"/><path d="m1125.78,518.61s1.35-4.61,1.25-6.08-2.05-5.69-2.05-5.69c0,0,4.45,1.36,5.92,1.26s5.86-2.06,5.86-2.06c0,0-1.35,4.61-1.25,6.08s2.05,5.69,2.05,5.69c0,0-4.61-1.35-6.08-1.25s-5.69,2.05-5.69,2.05Z" style="fill:#603796;"/><path d="m1269.11,250.21s1.52,3.14,2.29,3.88,3.88,2.06,3.88,2.06c0,0-3.06,1.43-3.8,2.21s-2.14,3.97-2.14,3.97c0,0-1.52-3.14-2.29-3.88s-3.88-2.06-3.88-2.06c0,0,3.14-1.52,3.88-2.29s2.06-3.88,2.06-3.88Z" style="fill:#603796;"/><path d="m1049.56,141.68s-4.83-1.17-6.34-.99-5.77,2.4-5.77,2.4c0,0,1.19-4.66,1.01-6.17-.18-1.51-2.42-5.95-2.42-5.95,0,0,4.83,1.17,6.34.99s5.77-2.4,5.77-2.4c0,0-1.17,4.83-.99,6.34s2.4,5.77,2.4,5.77Z" style="fill:#603796;"/><path d="m1032.65,339.99s.59,4.63,1.25,5.9,4.04,4.27,4.04,4.27c0,0-4.49.51-5.76,1.17-1.27.66-4.41,4.11-4.41,4.11,0,0-.59-4.63-1.25-5.9-.66-1.27-4.04-4.27-4.04-4.27,0,0,4.63-.59,5.9-1.25s4.27-4.04,4.27-4.04Z" style="fill:#603796;"/><path d="m1053.26,623.08s-2.9,2.47-3.48,3.49-1.12,4.67-1.12,4.67c0,0-2.35-2.84-3.37-3.41s-4.78-1.18-4.78-1.18c0,0,2.9-2.47,3.48-3.49s1.12-4.67,1.12-4.67c0,0,2.47,2.9,3.49,3.48s4.67,1.12,4.67,1.12Z" style="fill:#603796;"/><path d="m946.64,681.5s3.02.66,3.96.52,3.56-1.58,3.56-1.58c0,0-.67,2.91-.54,3.85s1.59,3.66,1.59,3.66c0,0-3.02-.66-3.96-.52s-3.56,1.58-3.56,1.58c0,0,.66-3.02.52-3.96-.13-.94-1.58-3.56-1.58-3.56Z" style="fill:#603796;"/><path d="m865.22,413.55s2.81-.96,3.52-1.54,2.14-3.07,2.14-3.07c0,0,.9,2.73,1.48,3.44.58.71,3.14,2.22,3.14,2.22,0,0-2.81.96-3.52,1.54s-2.14,3.07-2.14,3.07c0,0-.96-2.81-1.54-3.52s-3.07-2.14-3.07-2.14Z" style="fill:#603796;"/><path d="m791.45,176.39s4.87-.21,6.25-.79,4.79-3.83,4.79-3.83c0,0,.15,4.71.73,6.09s3.9,4.94,3.9,4.94c0,0-4.87.21-6.25.79s-4.79,3.83-4.79,3.83c0,0-.21-4.87-.79-6.25s-3.83-4.79-3.83-4.79Z" style="fill:#603796;"/><path d="m594.7,31.57s1.52,2.7,2.25,3.32,3.55,1.61,3.55,1.61c0,0-2.63,1.44-3.25,2.17s-1.68,3.64-1.68,3.64c0,0-1.52-2.7-2.25-3.32s-3.55-1.61-3.55-1.61c0,0,2.7-1.52,3.32-2.25s1.61-3.55,1.61-3.55Z" style="fill:#603796;"/><path d="m545.22,281.64s0,2.98.33,3.84,2.22,3.02,2.22,3.02c0,0-2.88-.03-3.74.29s-3.12,2.26-3.12,2.26c0,0,0-2.98-.33-3.84s-2.22-3.02-2.22-3.02c0,0,2.98,0,3.84-.33s3.02-2.22,3.02-2.22Z" style="fill:#603796;"/><path d="m596.65,477.33s.4,3.91.93,5,3.32,3.68,3.32,3.68c0,0-3.79.34-4.88.87s-3.8,3.38-3.8,3.38c0,0-.4-3.91-.93-5-.53-1.08-3.32-3.68-3.32-3.68,0,0,3.91-.4,5-.93s3.68-3.32,3.68-3.32Z" style="fill:#603796;"/><path d="m535.46,660.31s-3.12-2.44-4.27-2.81-4.98-.16-4.98-.16c0,0,2.4-2.99,2.77-4.14s.2-5.11.2-5.11c0,0,3.12,2.44,4.27,2.81s4.98.16,4.98.16c0,0-2.44,3.12-2.81,4.27s-.16,4.98-.16,4.98Z" style="fill:#603796;"/><path d="m439.55,447.04s-3.14-.12-4.05.17c-.92.3-3.28,2.21-3.28,2.21,0,0,.16-3.03-.14-3.95-.3-.92-2.24-3.38-2.24-3.38,0,0,3.14.12,4.05-.17s3.28-2.21,3.28-2.21c0,0-.12,3.14.17,4.05s2.21,3.28,2.21,3.28Z" style="fill:#603796;"/><path d="m403.44,158.84s-.57,2.98-.42,3.89,1.63,3.45,1.63,3.45c0,0-2.87-.59-3.79-.43s-3.55,1.65-3.55,1.65c0,0,.57-2.98.42-3.89s-1.63-3.45-1.63-3.45c0,0,2.98.57,3.89.42s3.45-1.63,3.45-1.63Z" style="fill:#603796;"/><path d="m218.63,83.28s-4.32.27-5.54.81c-1.22.54-4.19,3.49-4.19,3.49,0,0-.21-4.18-.75-5.4s-3.55-4.33-3.55-4.33c0,0,4.32-.27,5.54-.81s4.19-3.49,4.19-3.49c0,0,.27,4.32.81,5.54.54,1.22,3.49,4.19,3.49,4.19Z" style="fill:#603796;"/><path d="m263.08,343.86s-.93,3.7-.8,4.86c.13,1.16,1.81,4.45,1.81,4.45,0,0-3.57-.94-4.73-.82-1.16.13-4.58,1.82-4.58,1.82,0,0,.93-3.7.8-4.86-.13-1.16-1.81-4.45-1.81-4.45,0,0,3.7.93,4.86.8,1.16-.13,4.45-1.81,4.45-1.81Z" style="fill:#603796;"/><path d="m308.67,596.41s-3.54,2.89-4.25,4.1-1.44,5.57-1.44,5.57c0,0-2.75-3.46-3.96-4.17-1.21-.71-5.7-1.52-5.7-1.52,0,0,3.54-2.89,4.25-4.1s1.44-5.57,1.44-5.57c0,0,2.89,3.54,4.1,4.25,1.21.71,5.57,1.44,5.57,1.44Z" style="fill:#603796;"/><path d="m277.12,637.43s-5.15-1.22-6.76-1.02c-1.61.2-6.14,2.59-6.14,2.59,0,0,1.24-4.97,1.05-6.58s-2.61-6.32-2.61-6.32c0,0,5.15,1.22,6.76,1.02s6.14-2.59,6.14-2.59c0,0-1.22,5.15-1.02,6.76s2.59,6.14,2.59,6.14Z" style="fill:#603796;"/><path d="m157.05,469.5s-3.72-.04-4.8.34-3.81,2.73-3.81,2.73c0,0,.08-3.6-.3-4.68s-2.77-3.93-2.77-3.93c0,0,3.72.04,4.8-.34s3.81-2.73,3.81-2.73c0,0-.04,3.72.34,4.8.38,1.08,2.73,3.81,2.73,3.81Z" style="fill:#603796;"/><path d="m79.33,234.62s-.22-5.75-.9-7.39-4.51-5.68-4.51-5.68c0,0,5.57-.15,7.2-.82,1.63-.68,5.87-4.58,5.87-4.58,0,0,.22,5.75.9,7.39s4.51,5.68,4.51,5.68c0,0-5.75.22-7.39.9s-5.68,4.51-5.68,4.51Z" style="fill:#603796;"/></g><path d="m132.49,0c-4.31,15.75-13.1,31.3-19.99,43.5-16.11,28.52-39.63,46.4-86,81-10.14,7.56-18.9,13.79-26.5,18.92V0h132.49Z" style="fill:#380060;"/><path d="m119.56,720H0v-57.23c12.43,4.1,26.1,9.97,39.5,15.73,7.6,3.26,49.86,21.41,80.06,41.5Z" style="fill:#370060;"/><path d="m1280,559.25v160.75h-350.16c19.55-11.93,44-22.17,65.66-27.5,51.98-12.8,75.84,5.57,172-2,66.01-5.2,78.73-15.75,85-25,20.57-30.38-11.64-71.66,11-96,4.33-4.65,10.09-8.06,16.5-10.25Z" style="fill:#370060;"/></g><g id="n"><path d="m43.21-125.54c0,4.96-15.11,8.83-15.7,13.63-.6,4.91,17.12,13.31,15.94,18.03-1.2,4.79-20.8,3.86-22.55,8.4-1.77,4.59,4.32,12.22,2.01,16.53s-8.25,6.19-11.06,10.19c-2.82,4.01.17,12.66-3.1,16.31-3.27,3.64-14.99-1.59-18.68,1.65s1.4,17.57-2.65,20.36c-4.02,2.77-10.01,3.51-14.37,5.8s-14.85-10.23-19.45-8.47c-4.54,1.74-7.78,3.24-12.57,4.45-4.71,1.2-6.23,16.78-11.14,17.43-5.51.74-11.61-.7-17.33-.7-5.02,0-9.33-7.58-14.19-8.15-4.97-.58-13.18,15.31-17.96,14.17-4.86-1.16-4.66-20-9.28-21.7-4.68-1.72-8.63-3.18-13.02-5.42-4.43-2.26-8.82-3.28-12.92-6.03-4.13-2.77-17.57,6.16-21.32,2.93-3.76-3.24,2.17-17.04-1.17-20.7-3.34-3.66-11.6-3.31-14.48-7.35-2.87-4.03-6.56-8.07-8.93-12.44-2.35-4.34,6.33-13.58,4.52-18.21s-6.37-7.53-7.6-12.37c-1.21-4.76-13.22-7.72-13.83-12.68-.6-4.86,9.55-10.66,9.55-15.68s-3.25-9.96-2.65-14.83c.61-4.97,3.33-9.38,4.53-14.14,1.22-4.84-6.02-12.73-4.23-17.32s13.88-4.77,16.24-9.12c2.37-4.37,9.95-4.52,12.82-8.56,2.88-4.04,3-9.03,6.34-12.69,3.34-3.66-.96-15,2.8-18.24,3.75-3.23,11.75-1.13,15.88-3.9,4.1-2.75,4.73-11.85,9.16-14.11,4.39-2.24,9.38-4.86,14.06-6.58,4.62-1.7,11.31,2.06,16.17.9,4.78-1.14,10.76,7.2,15.73,6.62,4.87-.57,8.76-15.78,13.79-15.78,5.72,0,11.3,6.61,16.8,7.35,4.91.65,10.47-1.51,15.18-.32,4.79,1.22,13.18-6.04,17.72-4.3,4.6,1.77,6.62,11.56,10.94,13.83,4.35,2.29,6.9,8.11,10.93,10.88,4.05,2.78,11.08,2.3,14.75,5.53,3.69,3.24-2.68,16.38.59,20.02,3.27,3.65,4.71,7.37,7.53,11.38s10.27,4.23,12.58,8.56c2.3,4.31,14.9,4.23,16.67,8.82s.71,10.86,1.9,15.65c1.18,4.71-9.81,11.61-9.21,16.53.59,4.81,14.26,8.85,14.26,13.81Z" style="fill:#c48145;"/><g><path d="m1246.61,640.26c-30,16-48,28-61.82,38.86-4.08,3.21-19.7,14.62-14.18,20.14,3,3,16.76-5.32,19-7,12-9,27-22,57-52Z" style="fill:url(#o);"/><path d="m1187.19,592.15c-30,16-48,28-61.82,38.86-4.08,3.21-19.7,14.62-14.18,20.14,3,3,16.76-5.32,19-7,12-9,27-22,57-52Z" style="fill:url(#p);"/><path d="m1261.19,576.15c-30,16-48,28-61.82,38.86-4.08,3.21-19.7,14.62-14.18,20.14,3,3,16.76-5.32,19-7,12-9,27-22,57-52Z" style="fill:url(#q);"/></g><g><g><path d="m1083.33,163.71c-8.15,0-16.3-.76-24.24-2.26-13.5-2.54-26.45-7.2-38.49-13.86-3.4-1.86-6.76-3.92-10.01-6.12-17.37-11.74-31.8-27.68-41.74-46.1-1.34-2.5-2.59-5.01-3.72-7.46-7.83-17.06-11.8-35.29-11.8-54.2,0-1.27.02-2.55.06-3.81,1.98-68.67,57.31-124.07,125.98-126.13,1.31-.04,2.64-.06,3.96-.06,10.74,0,21.4,1.31,31.68,3.88l.31.08c4.21,1.07,8.4,2.36,12.45,3.84,10.05,3.65,19.64,8.55,28.49,14.57,5.64,3.83,11.03,8.15,16,12.82,18.21,17.08,31.05,38.83,37.12,62.9,2.62,10.36,3.94,21.09,3.94,31.91,0,71.68-58.32,130-130,130Z" style="fill:#ddb21f;"/><path d="m1083.33-93.79c10.54,0,20.99,1.28,31.07,3.81l.43.11c4.09,1.04,8.15,2.29,12.08,3.73,9.85,3.58,19.25,8.39,27.94,14.29,5.53,3.76,10.82,8,15.7,12.58,17.86,16.75,30.45,38.08,36.4,61.69,2.57,10.16,3.87,20.69,3.87,31.3,0,34.06-13.26,66.08-37.34,90.16-24.08,24.08-56.1,37.34-90.16,37.34-7.99,0-15.99-.74-23.78-2.21-13.23-2.49-25.93-7.06-37.76-13.6-3.32-1.82-6.62-3.84-9.8-6-17.03-11.52-31.19-27.15-40.94-45.21-1.32-2.45-2.54-4.91-3.65-7.33-7.68-16.72-11.57-34.61-11.57-53.15,0-1.25.02-2.51.06-3.75,1.94-67.34,56.21-121.68,123.55-123.7,1.29-.04,2.59-.06,3.89-.06m0-5c-1.35,0-2.7.02-4.04.06-70.02,2.1-126.38,58.51-128.4,128.55-.04,1.29-.06,2.59-.06,3.89,0,19.72,4.31,38.43,12.03,55.24,1.18,2.58,2.45,5.12,3.79,7.61,10.2,18.89,24.84,35.01,42.54,46.98,3.29,2.23,6.7,4.32,10.2,6.24,12.05,6.66,25.26,11.5,39.24,14.13,8,1.51,16.26,2.3,24.7,2.3,73.18,0,132.5-59.32,132.5-132.5,0-11.22-1.39-22.11-4.02-32.52-6.29-24.94-19.65-47.06-37.83-64.11-5.08-4.77-10.53-9.14-16.31-13.07-8.95-6.08-18.69-11.09-29.04-14.85-4.24-1.55-8.57-2.88-13-3.99h-.01c-10.33-2.59-21.15-3.96-32.29-3.96h0Z" style="fill:#fdd24d;"/></g><g><path d="m1206.57,2.38c-6.23,8.93-13.15,19.95-21.15,32.74-42.46,67.86-33.51,84.31-59.66,102.96-24.03,17.13-45.69,13.31-66.59,20.88-13.45-2.53-26.16-7.19-37.76-13.6,13.62-6.15,43-21.16,63.93-47.7,13.42-17.03,6.86-17.87,34.64-81.79,14.04-32.32,21.22-48.62,28.87-55.81,8.13-7.64,15.21-14.04,21.31-19.37,17.49,16.41,30.35,37.69,36.4,61.69Z" style="fill:#ddb21f;"/><path d="m1154.48-71.89c-18.56,21.47-35.89,55.56-47.96,87.76-17.55,46.83-11.3,55.87-28.87,77.94-15.33,19.25-33.56,29.31-66.05,45.54-17.03-11.52-31.12-27.03-40.93-45.21,15.5-5.61,31.8-13.37,45.4-21.51,18.49-11.07,39.24-23.49,55.81-48.11,22.24-33.04,9.41-47.14,35.6-85.64,5.52-8.12,9.67-12.76,19.05-25.07,9.96,3.62,19.33,8.44,27.94,14.29Z" style="fill:#fdd24d;"/><path d="m1114.01-90.02c-11.86,15.1-19.09,29.72-26.74,46.23-30.63,66.03-22.36,63-33.68,76.98-12.48,15.41-32.7,25.99-73.13,47.15-5.09,2.67-9.46,4.82-13.44,6.49-7.43-16.18-11.58-34.18-11.58-53.16,0-1.25.02-2.5.06-3.74,12.98-13.02,20.74-35.09,49.02-59.29,28.46-24.35,41.24-19.64,61.58-45.23.63-.79,7.1-9.05,12.95-19.19,1.29-.04,2.59-.06,3.89-.06,10.72,0,21.13,1.32,31.07,3.81Z" style="fill:#fdd24d;"/><path d="m1170.17-59.31c-6.1,5.33-13.18,11.73-21.31,19.37-7.65,7.19-14.83,23.49-28.87,55.81-27.78,63.92-21.22,64.76-34.64,81.79-20.93,26.54-50.32,41.55-63.93,47.7-3.37-1.85-6.65-3.86-9.82-6,32.49-16.23,50.72-26.29,66.05-45.54,17.57-22.07,11.32-31.11,28.87-77.94,12.07-32.2,29.4-66.29,47.96-87.76,5.56,3.78,10.81,7.99,15.69,12.58Z" style="fill:#fdd24d;"/><path d="m1126.53-86.18c-9.38,12.31-13.53,16.95-19.05,25.07-26.19,38.5-13.37,52.6-35.6,85.64-16.57,24.62-37.32,37.05-55.81,48.11-13.6,8.14-29.9,15.9-45.4,21.51-1.29-2.4-2.51-4.84-3.65-7.32,3.98-1.66,8.35-3.82,13.44-6.49,40.43-21.16,60.65-31.75,73.13-47.15,11.32-13.98,3.05-10.95,33.68-76.98,7.65-16.5,14.88-31.13,26.74-46.23h0c4.26,1.07,8.43,2.35,12.51,3.84Z" style="fill:#fdd24d;"/><path d="m1210.44,33.67c0,70.42-57.08,127.5-127.5,127.5-8.12,0-16.07-.76-23.77-2.21,20.9-7.57,42.56-3.75,66.59-20.88,26.15-18.65,17.21-35.1,59.66-102.96,8-12.79,14.92-23.81,21.15-32.74,2.53,10.02,3.87,20.5,3.87,31.29Z" style="fill:#ab7f1d;"/><path d="m1079.05-93.77c-5.85,10.13-12.33,18.4-12.95,19.19-20.34,25.59-33.12,20.88-61.58,45.23-28.28,24.19-36.04,46.27-49.02,59.29,1.94-67.4,56.18-121.68,123.55-123.7Z" style="fill:#f5e28a;"/></g><path d="m1277.14,83.61c-.98,5.27-28.55,5.04-71.19.41h-.01c-34.31-3.72-78.37-10.29-126.18-19.14-8.52-1.58-16.89-3.18-25.1-4.8h-.01c-39.85-7.85-75.7-16.07-103.79-23.62-39.01-10.47-63.06-19.65-62.12-24.73.92-4.97,25.52-5.05,64.11-1.16-.31,1.76-.59,3.54-.82,5.32-15.38-.66-24.5.24-25,2.93-.51,2.76,8.15,7.02,23.48,12.09.43.14.86.28,1.3.43,3.06.99,6.38,2.02,9.93,3.08h.01c28.04,8.31,70.62,18.18,118.63,27.06.06.01.11.02.17.03.01,0,.02,0,.03,0,51.93,9.6,98.32,15.85,127.25,17.63,18.99,1.16,30.46.39,31.02-2.63.54-2.93-9.24-7.55-26.38-13.03.11-.48.22-.96.33-1.45.26-1.18.5-2.37.72-3.56,39.89,10.63,64.57,19.98,63.62,25.13Z" style="fill:#69211e; opacity:.5;"/><path d="m1215.7,39.55c-.07,1.62-.17,3.24-.3,4.85,21.57,3.32,34.4,6.91,34.26,10.22-.15,3.4-13.97,5.95-36.86,7.42-29.18,1.87-73.1,2-122.15-.07-60.15-2.54-112.34-7.72-138.98-13.23-12.11-2.5-18.94-5.07-18.84-7.49.1-2.33,6.6-4.25,18.01-5.71,0-.61,0-1.22,0-1.83,0-1.3.02-2.6.06-3.89v-.07c-35.05,1.68-56.76,5.09-56.97,9.86-.21,4.88,22.22,10.25,58.55,14.96,35.48,4.61,84.19,8.58,138.04,10.85,45.59,1.92,87.63,2.33,121.14,1.44,46.58-1.24,76.68-4.98,76.92-10.6.23-5.5-28.21-11.61-72.87-16.71Z" style="fill:#ddaf20; opacity:.5;"/></g><g><path d="m106.09,682.02c4.85-1.06,9.01-5.69,13.83-6.15,4.93-.47,9.94,1.38,14.79,1.52,4.93.14,11.04-7.89,15.85-7.15s10.04,3.98,14.74,5.31c4.73,1.33,10.39,2.31,14.91,4.2,4.52,1.89,1.83,18.21,6.1,20.63s10.22.77,14.17,3.68c3.94,2.9,12.61.04,16.2,3.39,3.56,3.34,13.18,2.15,16.35,5.91,3.14,3.73,4.31,10.39,7.02,14.5,2.68,4.06,4.74,9.57,6.95,13.98s8.07,8.28,9.76,12.93c1.91,5.22-3.51,13.66-2.28,19.24,1.08,4.9-4.61,10.85-4.12,15.72.5,4.98,13.16,9.79,13.07,14.7-.09,5-.74,11.02-1.41,15.9-.68,4.94-11.15,8.44-12.4,13.21-1.26,4.82,2.79,11.68.98,16.27s-13.98,4.45-16.32,8.8c-2.36,4.37,1.52,12.35-1.34,16.4-2.86,4.05-9.16,5.34-12.49,9.02-3.32,3.67-11.41,1.47-15.17,4.72-3.74,3.23,4.66,22.64.52,25.41-4.1,2.74-19.15-13.17-23.61-10.94-4.4,2.2-5.1,11.27-9.82,12.93-4.62,1.63-7.8,9.04-12.7,10.12-4.9,1.08-10.77-2.98-15.64-2.52-4.98.46-10.07,7.57-14.98,7.41s-9.88-5.89-14.75-6.66c-4.92-.78-11.59,4.06-16.33,2.7-4.77-1.37-6.04-13.25-10.6-15.19-4.56-1.94-5.18-9.89-9.48-12.37-4.29-2.48-10.42-.47-14.39-3.45-3.95-2.97-13.38.65-16.97-2.79-3.57-3.41-10.21-4.89-13.38-8.74-3.13-3.81,4.96-15.9,2.28-20.1-2.65-4.15.28-10.22-1.89-14.72s-26.16.11-27.79-4.63c-1.6-4.63,3.57-12.26,2.49-17.17-1.23-5.59-8.9-11.26-9.35-16.8-.42-4.93,7.85-10.92,8.01-15.77.16-4.94,2.01-10.01,2.74-14.82.74-4.87,4.94-9.04,6.24-13.74,1.3-4.74,9.4-6.58,11.24-11.1,1.85-4.55-14.36-17.96-11.99-22.25s14.14-3.63,17-7.61c2.86-3.98,12.02-2.51,15.33-6.12s-5.36-20.13-1.63-23.32c3.71-3.17,16.47,4.66,20.57,1.94,4.06-2.69,1.68-17.85,6.1-20.04,4.35-2.16,13.9,5.79,18.57,4.15,4.57-1.61,10.17.51,15.02-.55Z" style="fill:#dfaf1e;"/><path d="m216.37,713.57c25.62,23.86,38.25,56.45,37.56,88.9-3.52,13.05-9.33,25.64-17.45,37.13-3.04,4.32-6.41,8.48-10.11,12.45-44.41,47.7-119.07,50.36-166.77,5.95-25.63-23.86-38.26-56.46-37.56-88.92,4.84-17.95,14.01-35.01,27.55-49.56,3.7-3.97,7.61-7.63,11.7-10.97,44.95-36.85,111.35-35.69,155.07,5.02Z" style="fill:#ffd34c;"/><circle cx="93.77" cy="708.04" r="5.5" style="fill:#eebb20;"/><circle cx="164.86" cy="717.53" r="6" style="fill:#eebb20;"/></g></g></svg>