<?xml version="1.0" encoding="UTF-8"?><svg xmlns="http://www.w3.org/2000/svg" xmlns:xlink="http://www.w3.org/1999/xlink" viewBox="0 0 1280 720"><defs><linearGradient id="o" x1="1107.09" y1="569.65" x2="1028.8" y2="632.76" gradientTransform="translate(1366.01 1845.77) rotate(-129.26)" gradientUnits="userSpaceOnUse"><stop offset="0" stop-color="#8f2ab9"/><stop offset="0" stop-color="#8f2ab9"/><stop offset=".36" stop-color="#9d77d1"/><stop offset=".65" stop-color="#a8b0e2"/><stop offset=".86" stop-color="#aed2ed"/><stop offset=".98" stop-color="#b1e0f2"/></linearGradient><linearGradient id="p" x1="1090.41" y1="517.25" x2="1012.11" y2="580.36" xlink:href="#o"/><linearGradient id="q" x1="1040.41" y1="588.25" x2="962.11" y2="651.36" xlink:href="#o"/></defs><g id="c"><g style="opacity:.5;"><path d="m806.42,731.82s3.57-3.82,4.2-5.3.79-6.54.79-6.54c0,0,3.66,3.5,5.14,4.13s6.71.86,6.71.86c0,0-3.57,3.82-4.2,5.3s-.79,6.54-.79,6.54c0,0-3.82-3.57-5.3-4.2s-6.54-.79-6.54-.79Z" style="fill:#327ea7;"/></g></g><g id="f"><path d="m1276.56,320.31s3.35-.41,4.27-.88,3.1-2.91,3.1-2.91c0,0,.36,3.25.83,4.17s2.96,3.2,2.96,3.2c0,0-3.35.41-4.27.88s-3.1,2.91-3.1,2.91c0,0-.41-3.35-.88-4.27s-2.91-3.1-2.91-3.1Z" style="fill:#6b2960;"/></g><g id="g"><rect width="1280" height="720" style="fill:#180a3b;"/><g><path d="m1111.26,499.43s-4.13-1.11-5.44-.99-5.02,1.94-5.02,1.94c0,0,1.12-3.98,1-5.29s-1.95-5.17-1.95-5.17c0,0,4.13,1.11,5.44.99,1.31-.12,5.02-1.94,5.02-1.94,0,0-1.11,4.13-.99,5.44.12,1.31,1.94,5.02,1.94,5.02Z" style="fill:#4f2e83;"/><path d="m889.34,362.65s-1.77,2.55-2,3.47.1,3.9.1,3.9c0,0-2.44-1.74-3.36-1.98s-4.01.07-4.01.07c0,0,1.77-2.55,2-3.47s-.1-3.9-.1-3.9c0,0,2.55,1.77,3.47,2s3.9-.1,3.9-.1Z" style="fill:#4f2e83;"/><path d="m753.36,170.07s-2.85.55-3.61,1.01-2.49,2.68-2.49,2.68c0,0-.5-2.77-.96-3.53s-2.73-2.57-2.73-2.57c0,0,2.85-.55,3.61-1.01s2.49-2.68,2.49-2.68c0,0,.55,2.85,1.01,3.61s2.68,2.49,2.68,2.49Z" style="fill:#4f2e83;"/><path d="m935.57,327.32s.69,5.36,1.46,6.84c.77,1.47,4.69,4.94,4.69,4.94,0,0-5.2.6-6.67,1.37-1.47.77-5.11,4.77-5.11,4.77,0,0-.69-5.36-1.46-6.84-.77-1.47-4.69-4.94-4.69-4.94,0,0,5.36-.69,6.84-1.46s4.94-4.69,4.94-4.69Z" style="fill:#4f2e83;"/><path d="m1157.91,328.03s4.79,1.15,6.29.97,5.72-2.39,5.72-2.39c0,0-1.17,4.62-.99,6.12.18,1.5,2.41,5.89,2.41,5.89,0,0-4.79-1.15-6.29-.97s-5.72,2.39-5.72,2.39c0,0,1.15-4.79.97-6.29s-2.39-5.72-2.39-5.72Z" style="fill:#4f2e83;"/><path d="m1128.31,112.74s-2.31-4.28-3.44-5.27-5.54-2.63-5.54-2.63c0,0,4.17-2.19,5.16-3.31.99-1.12,2.74-5.66,2.74-5.66,0,0,2.31,4.28,3.44,5.27s5.54,2.63,5.54,2.63c0,0-4.28,2.31-5.27,3.44s-2.63,5.54-2.63,5.54Z" style="fill:#4f2e83;"/></g><g><path d="m152.44,134.31s1.1,3.53,1.79,4.43,3.74,2.77,3.74,2.77c0,0-3.43,1.02-4.33,1.71s-2.87,3.82-2.87,3.82c0,0-1.1-3.53-1.79-4.43s-3.74-2.77-3.74-2.77c0,0,3.53-1.1,4.43-1.79s2.77-3.74,2.77-3.74Z" style="fill:#4f2e83;"/><path d="m406.26,294.25s-1.17,5.54-.92,7.26,2.93,6.5,2.93,6.5c0,0-5.35-1.2-7.07-.95s-6.7,2.95-6.7,2.95c0,0,1.17-5.54.92-7.26s-2.93-6.5-2.93-6.5c0,0,5.54,1.17,7.26.92s6.5-2.93,6.5-2.93Z" style="fill:#4f2e83;"/><path d="m606.76,501.74s-2.65,2.58-3.14,3.6-.78,4.59-.78,4.59c0,0-2.46-2.59-3.48-3.08-1.02-.49-4.7-.83-4.7-.83,0,0,2.65-2.58,3.14-3.6s.78-4.59.78-4.59c0,0,2.58,2.65,3.6,3.14,1.02.49,4.59.78,4.59.78Z" style="fill:#4f2e83;"/><path d="m725.05,665.95s-3.2.36-4.09.8-2.99,2.74-2.99,2.74c0,0-.31-3.1-.75-3.99s-2.79-3.09-2.79-3.09c0,0,3.2-.36,4.09-.8s2.99-2.74,2.99-2.74c0,0,.36,3.2.8,4.09s2.74,2.99,2.74,2.99Z" style="fill:#4f2e83;"/><path d="m885.61,704.21s-.14,5.16.37,6.67,3.7,5.35,3.7,5.35c0,0-5-.19-6.5.32s-5.52,3.76-5.52,3.76c0,0,.14-5.16-.37-6.67-.51-1.5-3.7-5.35-3.7-5.35,0,0,5.16.14,6.67-.37,1.5-.51,5.35-3.7,5.35-3.7Z" style="fill:#4f2e83;"/><path d="m826.07,500.04s2.25-4.72,2.4-6.32-1.22-6.47-1.22-6.47c0,0,4.54,2.24,6.14,2.39s6.65-1.2,6.65-1.2c0,0-2.25,4.72-2.4,6.32s1.22,6.47,1.22,6.47c0,0-4.72-2.25-6.32-2.4s-6.47,1.22-6.47,1.22Z" style="fill:#4f2e83;"/><path d="m960.33,311.3s-1.5,5.01-1.41,6.62c.1,1.6,2.2,6.21,2.2,6.21,0,0-4.83-1.52-6.44-1.42-1.6.1-6.39,2.21-6.39,2.21,0,0,1.5-5.01,1.41-6.62-.1-1.6-2.2-6.21-2.2-6.21,0,0,5.01,1.5,6.62,1.41,1.6-.1,6.21-2.2,6.21-2.2Z" style="fill:#4f2e83;"/><path d="m1150.22,354.19s5.47.96,7.14.66c1.68-.3,6.27-3.09,6.27-3.09,0,0-.99,5.28-.69,6.95.3,1.68,3.12,6.46,3.12,6.46,0,0-5.47-.96-7.14-.66-1.68.3-6.27,3.09-6.27,3.09,0,0,.96-5.47.66-7.14-.3-1.68-3.09-6.27-3.09-6.27Z" style="fill:#4f2e83;"/><path d="m1144.73,584.52s4.75,2.78,6.42,3.07c1.66.29,6.9-.71,6.9-.71,0,0-2.74,4.57-3.04,6.23s.68,7.08.68,7.08c0,0-4.75-2.78-6.42-3.07-1.66-.29-6.9.71-6.9.71,0,0,2.78-4.75,3.07-6.42s-.71-6.9-.71-6.9Z" style="fill:#4f2e83;"/></g><g><path d="m416.82,524.47s3.11,2.43,4.27,2.8c1.16.37,4.97.16,4.97.16,0,0-2.39,2.98-2.76,4.14s-.2,5.1-.2,5.1c0,0-3.11-2.43-4.27-2.8s-4.97-.16-4.97-.16c0,0,2.43-3.11,2.8-4.27.37-1.16.16-4.97.16-4.97Z" style="fill:#4f2e83;"/><path d="m419.1,320.88s-4.33.68-5.5,1.34-3.89,3.91-3.89,3.91c0,0-.61-4.2-1.26-5.37-.66-1.17-3.99-4.03-3.99-4.03,0,0,4.33-.68,5.5-1.34s3.89-3.91,3.89-3.91c0,0,.68,4.33,1.34,5.5.66,1.17,3.91,3.89,3.91,3.89Z" style="fill:#4f2e83;"/><path d="m431.65,167.41s-4.71-3.21-6.4-3.63-7.17.24-7.17.24c0,0,3.16-4.51,3.58-6.21s-.19-7.36-.19-7.36c0,0,4.71,3.21,6.4,3.63s7.17-.24,7.17-.24c0,0-3.21,4.71-3.63,6.4s.24,7.17.24,7.17Z" style="fill:#4f2e83;"/><path d="m716,201.43s-3.93-2.67-5.34-3.03-5.98.2-5.98.2c0,0,2.63-3.77,2.99-5.18.35-1.42-.16-6.14-.16-6.14,0,0,3.93,2.67,5.34,3.03s5.98-.2,5.98-.2c0,0-2.67,3.93-3.03,5.34-.35,1.42.2,5.98.2,5.98Z" style="fill:#4f2e83;"/></g><g><path d="m140.45,669.6s4.3,1.44,5.7,1.4,5.45-1.73,5.45-1.73c0,0-1.45,4.15-1.41,5.54s1.74,5.6,1.74,5.6c0,0-4.3-1.44-5.7-1.4s-5.45,1.73-5.45,1.73c0,0,1.44-4.3,1.4-5.7s-1.73-5.45-1.73-5.45Z" style="fill:#4f2e83;"/><path d="m222.49,449.84s-3.94.24-5.05.73-3.82,3.18-3.82,3.18c0,0-.19-3.82-.68-4.92s-3.23-3.95-3.23-3.95c0,0,3.94-.24,5.05-.73s3.82-3.18,3.82-3.18c0,0,.24,3.94.73,5.05.49,1.11,3.18,3.82,3.18,3.82Z" style="fill:#4f2e83;"/><path d="m206.91,222.87s4.7,1.14,6.18.97,5.63-2.34,5.63-2.34c0,0-1.16,4.54-.99,6.01s2.36,5.79,2.36,5.79c0,0-4.7-1.14-6.18-.97s-5.63,2.34-5.63,2.34c0,0,1.14-4.7.97-6.18-.17-1.48-2.34-5.63-2.34-5.63Z" style="fill:#4f2e83;"/></g><g><path d="m819.82,47.05s3.95,2.22,5.33,2.43,5.67-.69,5.67-.69c0,0-2.19,3.8-2.41,5.17s.66,5.82.66,5.82c0,0-3.95-2.22-5.33-2.43s-5.67.69-5.67.69c0,0,2.22-3.95,2.43-5.33s-.69-5.67-.69-5.67Z" style="fill:#4f2e83;"/><path d="m549.89,74.49s4.86-.5,6.21-1.16,4.57-4.12,4.57-4.12c0,0,.42,4.71,1.08,6.06s4.2,4.72,4.2,4.72c0,0-4.86.5-6.21,1.16s-4.57,4.12-4.57,4.12c0,0-.5-4.86-1.16-6.21s-4.12-4.57-4.12-4.57Z" style="fill:#4f2e83;"/><path d="m356.98,102.66s-1.38,2.92-1.47,3.91c-.09.99.77,3.99.77,3.99,0,0-2.81-1.37-3.8-1.46s-4.11.76-4.11.76c0,0,1.38-2.92,1.47-3.91.09-.99-.77-3.99-.77-3.99,0,0,2.92,1.38,3.91,1.47s3.99-.77,3.99-.77Z" style="fill:#4f2e83;"/></g><g><path d="m665.26,384.47s-3.7,3.28-4.42,4.62-1.32,6.09-1.32,6.09c0,0-3.13-3.62-4.47-4.34s-6.24-1.4-6.24-1.4c0,0,3.7-3.28,4.42-4.62.72-1.34,1.32-6.09,1.32-6.09,0,0,3.28,3.7,4.62,4.42s6.09,1.32,6.09,1.32Z" style="fill:#4f2e83;"/><path d="m460.17,335.96s-.89,3.64-.76,4.79,1.8,4.37,1.8,4.37c0,0-3.51-.91-4.66-.78-1.14.13-4.49,1.81-4.49,1.81,0,0,.89-3.64.76-4.79-.13-1.14-1.8-4.37-1.8-4.37,0,0,3.64.89,4.79.76s4.37-1.8,4.37-1.8Z" style="fill:#4f2e83;"/><path d="m220.28,271.69s1.69-2.47,1.92-3.36-.12-3.76-.12-3.76c0,0,2.37,1.66,3.26,1.89s3.86-.09,3.86-.09c0,0-1.69,2.47-1.92,3.36-.22.89.12,3.76.12,3.76,0,0-2.47-1.69-3.36-1.92s-3.76.12-3.76.12Z" style="fill:#4f2e83;"/></g><g style="opacity:.5;"><g><path d="m87.07,433.92s-2.53,4.51-2.78,6.08.78,6.47.78,6.47c0,0-4.34-2.5-5.91-2.75-1.57-.25-6.65.75-6.65.75,0,0,2.53-4.51,2.78-6.08.25-1.57-.78-6.47-.78-6.47,0,0,4.51,2.53,6.08,2.78,1.57.25,6.47-.78,6.47-.78Z" style="fill:#327ea7;"/><path d="m228.59,687.36s-4.71.04-6.06.56c-1.35.51-4.75,3.55-4.75,3.55,0,0,.01-4.56-.5-5.91-.51-1.35-3.6-4.91-3.6-4.91,0,0,4.71-.04,6.06-.56,1.35-.51,4.75-3.55,4.75-3.55,0,0,.04,4.71.56,6.06s3.55,4.75,3.55,4.75Z" style="fill:#327ea7;"/><path d="m515.89,624.17s-.78-3.04-1.32-3.84-3.05-2.51-3.05-2.51c0,0,2.95-.72,3.75-1.26s2.6-3.11,2.6-3.11c0,0,.78,3.04,1.32,3.84s3.05,2.51,3.05,2.51c0,0-3.04.78-3.84,1.32s-2.51,3.05-2.51,3.05Z" style="fill:#327ea7;"/><path d="m733.22,568.94s2.75,2.03,3.75,2.33,4.3.03,4.3.03c0,0-2,2.63-2.3,3.64s-.06,4.42-.06,4.42c0,0-2.75-2.03-3.75-2.33s-4.3-.03-4.3-.03c0,0,2.03-2.75,2.33-3.75s.03-4.3.03-4.3Z" style="fill:#327ea7;"/><path d="m920.9,447.29s3.45,1.46,4.61,1.52c1.15.06,4.6-1.08,4.6-1.08,0,0-1.46,3.32-1.51,4.48s1.07,4.73,1.07,4.73c0,0-3.45-1.46-4.61-1.52-1.15-.06-4.6,1.08-4.6,1.08,0,0,1.46-3.45,1.52-4.61s-1.08-4.6-1.08-4.6Z" style="fill:#327ea7;"/><path d="m789.66,246.17s3.63-.93,4.57-1.58,2.99-3.64,2.99-3.64c0,0,.86,3.52,1.51,4.47s3.71,3.1,3.71,3.1c0,0-3.63.93-4.57,1.58s-2.99,3.64-2.99,3.64c0,0-.93-3.63-1.58-4.57s-3.64-2.99-3.64-2.99Z" style="fill:#327ea7;"/><path d="m631.33,132.22s-4.17,2.56-5.1,3.74-2.33,5.7-2.33,5.7c0,0-2.43-4.06-3.61-4.99s-5.83-2.44-5.83-2.44c0,0,4.17-2.56,5.1-3.74s2.33-5.7,2.33-5.7c0,0,2.56,4.17,3.74,5.1,1.18.93,5.7,2.33,5.7,2.33Z" style="fill:#327ea7;"/><path d="m837.21,250.71s-.45-2.89-.89-3.68-2.61-2.61-2.61-2.61c0,0,2.81-.4,3.59-.84s2.7-2.66,2.7-2.66c0,0,.45,2.89.89,3.68s2.61,2.61,2.61,2.61c0,0-2.89.45-3.68.89s-2.61,2.61-2.61,2.61Z" style="fill:#327ea7;"/><path d="m1062.99,336.27s4.03,3.41,5.55,3.96,6.63.47,6.63.47c0,0-3.35,3.86-3.9,5.38s-.53,6.8-.53,6.8c0,0-4.03-3.41-5.55-3.96-1.52-.55-6.63-.47-6.63-.47,0,0,3.41-4.03,3.96-5.55s.47-6.63.47-6.63Z" style="fill:#327ea7;"/><path d="m1143.85,550.61s2.28-4.1,2.51-5.53c.22-1.42-.73-5.87-.73-5.87,0,0,3.94,2.26,5.37,2.48s6.03-.71,6.03-.71c0,0-2.28,4.1-2.51,5.53-.22,1.42.73,5.87.73,5.87,0,0-4.1-2.28-5.53-2.51-1.42-.22-5.87.73-5.87.73Z" style="fill:#327ea7;"/><path d="m1222.14,293.41s-3.48,3.41-4.12,4.77-1,6.06-1,6.06c0,0-3.26-3.41-4.61-4.05s-6.21-1.07-6.21-1.07c0,0,3.48-3.41,4.12-4.77.64-1.35,1-6.06,1-6.06,0,0,3.41,3.48,4.77,4.12s6.06,1,6.06,1Z" style="fill:#327ea7;"/><path d="m1144.19,96.31s-3.53-3.98-4.97-4.75c-1.44-.77-6.55-1.42-6.55-1.42,0,0,3.89-3.37,4.67-4.81.77-1.44,1.51-6.71,1.51-6.71,0,0,3.53,3.98,4.97,4.75,1.44.77,6.55,1.42,6.55,1.42,0,0-3.98,3.53-4.75,4.97-.77,1.44-1.42,6.55-1.42,6.55Z" style="fill:#327ea7;"/></g></g><g><path d="m674.55,497.12s2.12-3.86,2.32-5.2c.2-1.34-.72-5.5-.72-5.5,0,0,3.71,2.09,5.05,2.29,1.34.2,5.65-.7,5.65-.7,0,0-2.12,3.86-2.32,5.2-.2,1.34.72,5.5.72,5.5,0,0-3.86-2.12-5.2-2.32-1.34-.2-5.5.72-5.5.72Z" style="fill:#6b2960;"/><path d="m474.25,460.73s-.99-3.41-1.64-4.29-3.54-2.73-3.54-2.73c0,0,3.31-.92,4.19-1.57s2.83-3.62,2.83-3.62c0,0,.99,3.41,1.64,4.29s3.54,2.73,3.54,2.73c0,0-3.41.99-4.29,1.64s-2.73,3.54-2.73,3.54Z" style="fill:#6b2960;"/><path d="m208.58,457.46s-3.07.67-3.88,1.19c-.81.52-2.62,2.96-2.62,2.96,0,0-.62-2.98-1.13-3.79s-3.02-2.71-3.02-2.71c0,0,3.07-.67,3.88-1.19s2.62-2.96,2.62-2.96c0,0,.67,3.07,1.19,3.88s2.96,2.62,2.96,2.62Z" style="fill:#6b2960;"/><path d="m240.53,240.01s-.19,4.05.18,5.24,2.82,4.26,2.82,4.26c0,0-3.92-.24-5.11.14s-4.4,2.86-4.4,2.86c0,0,.19-4.05-.18-5.24s-2.82-4.26-2.82-4.26c0,0,4.05.19,5.24-.18s4.26-2.82,4.26-2.82Z" style="fill:#6b2960;"/><path d="m396.32,136.73s3.26-3.76,3.79-5.18c.54-1.43.52-6.24.52-6.24,0,0,3.6,3.19,5.02,3.73s6.4.58,6.4.58c0,0-3.26,3.76-3.79,5.18s-.52,6.24-.52,6.24c0,0-3.76-3.26-5.18-3.79s-6.24-.52-6.24-.52Z" style="fill:#6b2960;"/><path d="m691.81,99.33s2.23,3.99,3.3,4.9,5.23,2.39,5.23,2.39c0,0-3.89,2.11-4.8,3.18s-2.5,5.35-2.5,5.35c0,0-2.23-3.99-3.3-4.9s-5.23-2.39-5.23-2.39c0,0,3.99-2.23,4.9-3.3.91-1.07,2.39-5.23,2.39-5.23Z" style="fill:#6b2960;"/><path d="m953.26,146.28s.63-3.73.41-4.87c-.22-1.14-2.13-4.26-2.13-4.26,0,0,3.6.65,4.74.44s4.39-2.16,4.39-2.16c0,0-.63,3.73-.41,4.87.22,1.14,2.13,4.26,2.13,4.26,0,0-3.73-.63-4.87-.41s-4.26,2.13-4.26,2.13Z" style="fill:#6b2960;"/></g><g><path d="m273.39,198.63s1.45,5.31,2.44,6.69c.98,1.38,5.43,4.32,5.43,4.32,0,0-5.16,1.34-6.53,2.33s-4.47,5.54-4.47,5.54c0,0-1.45-5.31-2.44-6.69s-5.43-4.32-5.43-4.32c0,0,5.31-1.45,6.69-2.44s4.32-5.43,4.32-5.43Z" style="fill:#6b2960;"/><path d="m309.62,457.95s-2.98-2.99-4.16-3.53c-1.18-.54-5.25-.82-5.25-.82,0,0,2.93-2.85,3.47-4.02s.88-5.38.88-5.38c0,0,2.98,2.99,4.16,3.53,1.18.54,5.25.82,5.25.82,0,0-2.99,2.98-3.53,4.16s-.82,5.25-.82,5.25Z" style="fill:#6b2960;"/><path d="m574.77,471.1s-.43-4.28-1.01-5.47-3.63-4.03-3.63-4.03c0,0,4.15-.37,5.34-.95s4.17-3.69,4.17-3.69c0,0,.43,4.28,1.01,5.47s3.63,4.03,3.63,4.03c0,0-4.28.43-5.47,1.01-1.19.58-4.03,3.63-4.03,3.63Z" style="fill:#6b2960;"/></g></g><g id="n"><g><path d="m1108.08,626.51c31.37,13.1,52.06,19.44,69.21,23.27,5.07,1.13,23.78,6,24.56-1.77.42-4.22-14.73-9.61-17.44-10.28-14.56-3.6-34.12-6.98-76.34-11.22Z" style="fill:url(#o);"/><path d="m1078.07,672.6c31.37,13.1,52.06,19.44,69.21,23.27,5.07,1.13,23.78,6,24.56-1.77.42-4.22-14.73-9.61-17.44-10.28-14.56-3.6-34.12-6.98-76.34-11.22Z" style="fill:url(#p);"/><path d="m1164.68,666.38c31.37,13.1,52.06,19.44,69.21,23.27,5.07,1.13,23.78,6,24.56-1.77.42-4.22-14.73-9.61-17.44-10.28-14.56-3.6-34.12-6.98-76.34-11.22Z" style="fill:url(#q);"/></g><g><path d="m1068.29-80.63c1.47,4.74,2.5,8.5,3.36,13.27.88,4.87,1.9,8.7,2.17,13.55.28,4.93,6.45,9.3,6.13,14.16-.33,4.91,9.93,11.69,9.01,16.48-.93,4.82-15.15,6.62-16.65,11.28-1.5,4.67-2.55,9.08-4.6,13.53-2.04,4.45,8.47,16.2,5.91,20.38s-20.45-1.94-23.49,1.92c-3.02,3.84,5.39,18.1,1.92,21.58s-15.95-2.74-19.82.32-9.61,2.12-13.82,4.7c-4.14,2.54-9.06,1.46-13.55,3.54-5.04,2.34-2.64,24.11-8.1,25.81-4.8,1.49-11.77-2.41-16.58-1.51s-10.85-5.04-15.75-4.71-9.56-2.77-14.47-3.03-11.16,9.98-16.02,9.14-8.44-8.74-13.17-10.15c-4.76-1.42-6.81-8.84-11.34-10.81-4.55-1.98-16.71,10.72-20.98,8.22s2.63-21.66-1.31-24.66c-3.94-3-13.78,1.79-17.33-1.68-3.54-3.45-15.7-.04-18.81-3.93-3.08-3.85-.81-12.66-3.41-16.92-2.57-4.19,3.74-13.04,1.68-17.61s.63-9.75-.86-14.55-3.04-8.31-3.91-13.13c-.89-4.93-3.92-8.57-4.18-13.48s1.42-9,1.77-13.91.61-8.92,1.57-13.77c.96-4.87-2.16-10.08-.62-14.79s-7.66-14.02-5.56-18.5c2.1-4.48,8.11-7.75,10.74-11.96,2.62-4.19,13.29-2.67,16.41-6.54,3.1-3.85,6.93-6.17,10.49-9.65,3.53-3.44,5.97-7.18,9.93-10.22s10.53-.36,14.83-2.91c4.22-2.51-.25-21.64,4.33-23.67s12.02,2.41,16.82.92c5.46-1.7,13.15,8.9,18.63,7.97,4.88-.83,8.12-8.75,12.97-9.01s9.73-4.32,14.58-4,9,5.77,13.79,6.65,8.82,3,13.48,4.44c4.69,1.46,12.3-5.06,16.77-3.07,4.48,2,11.16,1.21,15.37,3.72s7.93,7.17,11.81,10.17c3.87,2.99-1.81,16.71,1.68,20.16,3.48,3.43,5.24,6.97,8.29,10.83,3.02,3.82,21.81-3.24,24.38.98,2.52,4.15-12.77,17.76-10.73,22.27,1.99,4.42,4.77,7.42,6.25,12.16Z" style="fill:#c48145;"/><path d="m1074.02-80.15c10.39,33.43,5.16,67.99-11.56,95.82-9.54,9.58-20.83,17.61-33.58,23.56-4.78,2.24-9.77,4.18-14.96,5.79-62.23,19.34-128.36-15.44-147.7-77.67-10.39-33.44-5.16-68.01,11.57-95.83,13.11-13.17,29.55-23.43,48.53-29.33,5.19-1.61,10.39-2.84,15.6-3.71,57.32-9.65,114.37,24.33,132.1,81.38Z" style="fill:#ffa859;"/><path d="m1062.46,15.66c-11.81,19.65-29.35,35.95-51.16,46.1-4.78,2.24-9.77,4.18-14.96,5.79-62.23,19.34-128.36-15.44-147.7-77.67-13.44-43.25-.75-88.37,29.14-118.37-16.73,27.82-21.96,62.39-11.57,95.83,19.34,62.23,85.47,97.01,147.7,77.67,5.19-1.61,10.18-3.55,14.96-5.79,12.75-5.94,24.05-13.97,33.58-23.56Z" style="fill:#d68d4b;"/><circle cx="986.38" cy="-1.61" r="10" style="fill:#bf7e43;"/><circle cx="937.79" cy="54.33" r="5" style="fill:#bf7e43;"/><circle cx="891.54" cy="11.63" r="3.5" style="fill:#bf7e43; stroke:#ffa859; stroke-miterlimit:10;"/></g></g></svg>