<?xml version="1.0" encoding="UTF-8"?><svg id="a" xmlns="http://www.w3.org/2000/svg" xmlns:xlink="http://www.w3.org/1999/xlink" viewBox="0 0 1366 768"><defs><linearGradient id="b" x1="1207.17" y1="-2001.53" x2="1166.99" y2="-1969.14" gradientTransform="translate(606.24 2476.97) rotate(-33.78)" gradientUnits="userSpaceOnUse"><stop offset="0" stop-color="#eba75f"/><stop offset=".98" stop-color="#eba660"/></linearGradient><linearGradient id="c" x1="1176.4" y1="-2026.4" x2="1136.22" y2="-1994.01" xlink:href="#b"/><linearGradient id="d" x1="1214.55" y1="-2034.47" x2="1174.37" y2="-2002.08" xlink:href="#b"/><linearGradient id="e" x1="939.19" y1="593.86" x2="896.48" y2="628.29" gradientUnits="userSpaceOnUse"><stop offset="0" stop-color="#8f2ab9"/><stop offset="0" stop-color="#8f2ab9"/><stop offset=".36" stop-color="#9d77d1"/><stop offset=".65" stop-color="#a8b0e2"/><stop offset=".86" stop-color="#aed2ed"/><stop offset=".98" stop-color="#b1e0f2"/></linearGradient><linearGradient id="f" x1="930.78" y1="561.77" x2="888.07" y2="596.2" xlink:href="#e"/><linearGradient id="g" x1="905.58" y1="605.25" x2="862.87" y2="639.67" xlink:href="#e"/><linearGradient id="h" x1="2109.12" y1="-2921.18" x2="2066.74" y2="-2887.01" gradientTransform="translate(1613.3 3768.92) rotate(-55.95)" gradientUnits="userSpaceOnUse"><stop offset="0" stop-color="#7b43ab"/><stop offset=".03" stop-color="#7f42a8"/><stop offset=".47" stop-color="#b7358f"/><stop offset=".8" stop-color="#d92d7f"/><stop offset=".97" stop-color="#e72b7a"/></linearGradient><linearGradient id="i" x1="2093.26" y1="-2894.07" x2="2050.88" y2="-2859.91" xlink:href="#h"/><linearGradient id="j" x1="2114.21" y1="-2945.72" x2="2071.83" y2="-2911.56" xlink:href="#h"/></defs><path d="m1117.94,383.51l-18.31,31.71-35.16,60.91-26.03,45.1s0,.01-.01.01l-68.42,118.49h0s-12.52,21.7-12.52,21.7l-8.27,14.32-12.27,21.25-25.27,43.78-15.44,26.74h-443.42l-40.24-69.7-14.57-25.24-.89-1.54-102.83-178.1-27.9-48.33-35.28-61.1,2.09-3.62,44.15-76.47,6.16-10.67,18.59-32.19,16.9-29.28,19.16-33.19,45.88-79.46,1.35-2.33L452.82-.5h443.42l31.76,55.02,49.84,86.31,30.45,52.75,7.49,12.98,42.37,73.38,40.9,70.86,18.89,32.71Z" style="fill:#220039;"/><g><path d="m497.75,143.1c-8.3,15.37-12.59,25.62-15.41,34.19-.83,2.53-4.27,11.85-.3,12.62,2.15.42,5.68-7.05,6.16-8.4,2.57-7.26,5.28-17.07,9.56-38.41Z" style="fill:url(#b);"/><path d="m458.36,139.53c-8.3,15.37-12.59,25.62-15.41,34.19-.83,2.53-4.27,11.85-.3,12.62,2.15.42,5.68-7.05,6.16-8.4,2.57-7.26,5.28-17.07,9.56-38.41Z" style="fill:url(#c);"/><path d="m485.58,111.62c-8.3,15.37-12.59,25.62-15.41,34.19-.83,2.53-4.27,11.85-.3,12.62,2.15.42,5.68-7.05,6.16-8.4,2.57-7.26,5.28-17.07,9.56-38.41Z" style="fill:url(#d);"/></g><g><path d="m937,592.28c-15.12,9.8-24.19,17.14-31.16,23.79-2.06,1.96-9.93,8.95-7.15,12.33,1.51,1.84,8.45-3.26,9.58-4.29,6.05-5.51,13.61-13.47,28.73-31.84Z" style="fill:url(#e);"/><path d="m928.59,560.19c-15.12,9.8-24.19,17.14-31.16,23.79-2.06,1.96-9.93,8.95-7.15,12.33,1.51,1.84,8.45-3.26,9.58-4.29,6.05-5.51,13.61-13.47,28.73-31.84Z" style="fill:url(#f);"/><path d="m903.39,603.66c-15.12,9.8-24.19,17.14-31.16,23.79-2.06,1.96-9.93,8.95-7.15,12.33,1.51,1.84,8.45-3.26,9.58-4.29,6.05-5.51,13.61-13.47,28.73-31.84Z" style="fill:url(#g);"/></g><g><path d="m375.07,386.37c-1.93,18.3-2.01,30.01-1.32,39.5.2,2.8.59,13.26,4.78,12.46,2.28-.44,2.72-9.13,2.64-10.64-.4-8.11-1.7-18.78-6.1-41.32Z" style="fill:url(#h);"/><path d="m388.65,414.69c-1.93,18.3-2.01,30.01-1.32,39.5.2,2.8.59,13.26,4.78,12.46,2.28-.44,2.72-9.13,2.64-10.64-.4-8.11-1.7-18.78-6.1-41.32Z" style="fill:url(#i);"/><path d="m357.58,368.41c-1.93,18.3-2.01,30.01-1.32,39.5.2,2.8.59,13.26,4.78,12.46,2.28-.44,2.72-9.13,2.64-10.64-.4-8.11-1.7-18.78-6.1-41.32Z" style="fill:url(#j);"/></g><g><path d="m619.68,264.23c.78-.17,1.33-1.81,2.11-1.88s1.67.21,2.45.24,1.57.53,2.35.65,1.44.72,2.2.93,1.6.13,2.33.43,2.35-1,3.04-.61,1.17,1.43,1.81,1.89.71,1.76,1.29,2.3,1.68.67,2.19,1.27.82,1.47,1.26,2.14.45,1.62.81,2.33,2.38.82,2.65,1.57c.31.84-.72,2.26-.53,3.16.17.79-.61,1.74-.53,2.52s-.38,1.55-.4,2.34,1.7,1.75,1.59,2.53-2.89,1-3.09,1.76,2.5,2.48,2.2,3.22-1.4,1.23-1.79,1.93-2.66.13-3.13.78-.35,1.56-.89,2.15.73,3.11.12,3.63-2.55-.61-3.22-.17-.94,1.56-1.66,1.92-2.04-.89-2.8-.62-1,2.14-1.79,2.31-1.55,1.34-2.34,1.41-1.73-2.21-2.52-2.23-1.54.13-2.33,0-1.79.7-2.56.48-1.5-.7-2.24-1.01-1.88.02-2.58-.38-.23-2.58-.88-3.05-1.18-.89-1.77-1.44-2.25-.05-2.76-.67.85-2.53.41-3.2-2.85-.16-3.2-.88-.92-1.45-1.18-2.21-.92-1.53-1.1-2.32c-.2-.9,1.23-2.11,1.15-3-.07-.79.46-1.54.49-2.32s-1.25-1.7-1.13-2.47-.74-1.92-.53-2.67.56-1.69.86-2.42,3.46-.09,3.85-.78-.95-2.42-.48-3.05,2.42.01,2.96-.57.13-2.03.73-2.54,1.31-.86,1.98-1.29,1.05-1.36,1.77-1.71,1.68-.11,2.43-.37,1.62.17,2.4,0Z" style="fill:#dfaf1e;"/><path d="m637.47,268.92c4.15,3.83,6.2,9.06,6.09,14.27-.57,2.1-1.51,4.12-2.83,5.96-.49.69-1.04,1.36-1.64,2-7.2,7.66-19.29,8.09-27.02.96-4.15-3.83-6.2-9.07-6.09-14.28.78-2.88,2.27-5.62,4.46-7.96.6-.64,1.23-1.23,1.9-1.76,7.28-5.92,18.04-5.73,25.13.81Z" style="fill:#ffd34c;"/><path d="m643.55,283.2c-.08,3.68-1.23,7.35-3.48,10.5-.49.69-1.04,1.36-1.64,2-7.2,7.66-19.29,8.09-27.02.96-5.37-4.96-7.22-12.26-5.43-18.82-.11,5.21,1.93,10.44,6.09,14.28,7.73,7.13,19.83,6.7,27.02-.96.6-.64,1.15-1.31,1.64-2,1.32-1.84,2.26-3.87,2.83-5.96Z" style="fill:#dcae1d;"/><ellipse cx="622.39" cy="273.77" rx="1.05" ry="1.04" style="fill:#eebb20;"/><ellipse cx="612.39" cy="279.24" rx="1.54" ry="1.53" style="fill:#eebb20;"/><ellipse cx="614.45" cy="288.71" rx=".65" ry=".64" style="fill:#eebb20;"/><ellipse cx="622.08" cy="290.49" rx=".65" ry=".64" style="fill:#eebb20;"/><ellipse cx="631.46" cy="286.86" rx="1.62" ry="1.61" style="fill:#eebb20;"/><ellipse cx="633.44" cy="278.04" rx=".57" ry=".56" style="fill:#eebb20;"/><ellipse cx="622.62" cy="280.13" rx="1.22" ry="1.2" style="fill:#eebb20;"/><ellipse cx="629.13" cy="298.53" rx=".81" ry=".8" style="fill:#eebb20;"/><ellipse cx="619.19" cy="296.27" rx=".57" ry=".56" style="fill:#eebb20; stroke:#ffd34c; stroke-miterlimit:10; stroke-width:.16px;"/><circle cx="608.36" cy="285.06" r=".32" style="fill:#eebb20;"/><ellipse cx="617.6" cy="268.04" rx=".89" ry=".88" style="fill:#eebb20;"/><ellipse cx="629.12" cy="269.56" rx=".97" ry=".96" style="fill:#eebb20;"/></g><g style="opacity:.5;"><g><path d="m847.63,111.08s-2.9,2.54-3.47,3.58-1.06,4.74-1.06,4.74c0,0-2.42-2.84-3.46-3.4s-4.85-1.13-4.85-1.13c0,0,2.9-2.54,3.47-3.58s1.06-4.74,1.06-4.74c0,0,2.54,2.9,3.58,3.47s4.74,1.06,4.74,1.06Z" style="fill:#a99ebc;"/><path d="m610.17,79.96s-3.33,1.49-4.13,2.27-2.28,3.98-2.28,3.98c0,0-1.4-3.24-2.18-4.04s-4.07-2.37-4.07-2.37c0,0,3.33-1.49,4.13-2.27s2.28-3.98,2.28-3.98c0,0,1.49,3.33,2.27,4.13s3.98,2.28,3.98,2.28Z" style="fill:#a99ebc;"/><path d="m388.26,150.35s1.95,3.58,2.89,4.41,4.64,2.19,4.64,2.19c0,0-3.49,1.84-4.31,2.78s-2.29,4.75-2.29,4.75c0,0-1.95-3.58-2.89-4.41s-4.64-2.19-4.64-2.19c0,0,3.58-1.95,4.41-2.89s2.19-4.64,2.19-4.64Z" style="fill:#a99ebc;"/></g></g><g style="opacity:.5;"><g><path d="m348.31,450.14s-4.09,1.05-5.16,1.79-3.38,4.11-3.38,4.11c0,0-.97-3.97-1.7-5.04s-4.19-3.5-4.19-3.5c0,0,4.09-1.05,5.16-1.79s3.38-4.11,3.38-4.11c0,0,1.05,4.09,1.79,5.16s4.11,3.38,4.11,3.38Z" style="fill:#a99ebc;"/><path d="m527.39,478.82s-.87,4.31-.66,5.65,2.33,5.03,2.33,5.03c0,0-4.16-.89-5.5-.68s-5.18,2.35-5.18,2.35c0,0,.87-4.31.66-5.65s-2.33-5.03-2.33-5.03c0,0,4.31.87,5.65.66s5.03-2.33,5.03-2.33Z" style="fill:#a99ebc;"/><path d="m762.75,476.29s3.16-2.39,3.82-3.42,1.43-4.78,1.43-4.78c0,0,2.28,3.09,3.3,3.75s4.9,1.51,4.9,1.51c0,0-3.16,2.39-3.82,3.42s-1.43,4.78-1.43,4.78c0,0-2.39-3.16-3.42-3.82s-4.78-1.43-4.78-1.43Z" style="fill:#a99ebc;"/><path d="m1007.4,482.12s3.82-1.51,4.75-2.35,2.75-4.37,2.75-4.37c0,0,1.42,3.71,2.26,4.65s4.47,2.86,4.47,2.86c0,0-3.82,1.51-4.75,2.35s-2.75,4.37-2.75,4.37c0,0-1.51-3.82-2.35-4.75s-4.37-2.75-4.37-2.75Z" style="fill:#a99ebc;"/></g></g><g style="opacity:.5;"><g><path d="m851.65,191.55s4.07-.51,5.19-1.1,3.75-3.55,3.75-3.55c0,0,.45,3.94,1.03,5.06s3.61,3.88,3.61,3.88c0,0-4.07.51-5.19,1.1s-3.75,3.55-3.75,3.55c0,0-.51-4.07-1.1-5.19s-3.55-3.75-3.55-3.75Z" style="fill:#a99ebc;"/><path d="m611.25,220.82s-.2-4.78-.77-6.14-3.76-4.71-3.76-4.71c0,0,4.63-.14,5.99-.71s4.86-3.83,4.86-3.83c0,0,.2,4.78.77,6.14s3.76,4.71,3.76,4.71c0,0-4.78.2-6.14.77s-4.71,3.76-4.71,3.76Z" style="fill:#a99ebc;"/><path d="m364.03,193.53s.83,3.46,1.43,4.37,3.41,2.9,3.41,2.9c0,0-3.36.76-4.27,1.36s-3,3.48-3,3.48c0,0-.83-3.46-1.43-4.37s-3.41-2.9-3.41-2.9c0,0,3.46-.83,4.37-1.43s2.9-3.41,2.9-3.41Z" style="fill:#a99ebc;"/></g></g><g style="opacity:.5;"><g><path d="m335.29,278.27s3.96-.39,5.06-.93,3.73-3.35,3.73-3.35c0,0,.33,3.84.87,4.94s3.41,3.86,3.41,3.86c0,0-3.96.39-5.06.93s-3.73,3.35-3.73,3.35c0,0-.39-3.96-.93-5.06s-3.35-3.73-3.35-3.73Z" style="fill:#a99ebc;"/><path d="m585.39,311.49s3.52.97,4.64.88,4.3-1.63,4.3-1.63c0,0-.98,3.39-.89,4.51s1.64,4.43,1.64,4.43c0,0-3.52-.97-4.64-.88s-4.3,1.63-4.3,1.63c0,0,.97-3.52.88-4.64s-1.63-4.3-1.63-4.3Z" style="fill:#a99ebc;"/><path d="m808.36,425.6s-3.43-2.04-4.63-2.27-5,.47-5,.47c0,0,2.02-3.29,2.24-4.49s-.45-5.14-.45-5.14c0,0,3.43,2.04,4.63,2.27s5-.47,5-.47c0,0-2.04,3.43-2.27,4.63s.47,5,.47,5Z" style="fill:#a99ebc;"/><path d="m1063.87,371.34s-3.32-.56-4.33-.37-3.79,1.89-3.79,1.89c0,0,.58-3.2.39-4.22s-1.91-3.9-1.91-3.9c0,0,3.32.56,4.33.37s3.79-1.89,3.79-1.89c0,0-.56,3.32-.37,4.33s1.89,3.79,1.89,3.79Z" style="fill:#a99ebc;"/></g></g><g style="opacity:.6;"><g><path d="m485,267.05s-2.13-3.49-3.12-4.27-4.76-1.96-4.76-1.96c0,0,3.4-2.02,4.18-3.01s2.05-4.87,2.05-4.87c0,0,2.13,3.49,3.12,4.27s4.76,1.96,4.76,1.96c0,0-3.49,2.13-4.27,3.12s-1.96,4.76-1.96,4.76Z" style="fill:#a99ebc;"/><path d="m725.66,181.55s.2-3.3-.1-4.27-2.25-3.5-2.25-3.5c0,0,3.19.23,4.16-.06s3.61-2.28,3.61-2.28c0,0-.2,3.3.1,4.27s2.25,3.5,2.25,3.5c0,0-3.3-.2-4.27.1s-3.5,2.25-3.5,2.25Z" style="fill:#a99ebc;"/><path d="m972.56,232.4s-2.86-3.78-4.08-4.56-5.71-1.71-5.71-1.71c0,0,3.69-2.72,4.47-3.94s1.8-5.85,1.8-5.85c0,0,2.86,3.78,4.08,4.56s5.71,1.71,5.71,1.71c0,0-3.78,2.86-4.56,4.08s-1.71,5.71-1.71,5.71Z" style="fill:#a99ebc;"/><path d="m1008.81,425.79s2.58-.83,3.24-1.34,2.01-2.76,2.01-2.76c0,0,.77,2.51,1.29,3.16s2.82,2.08,2.82,2.08c0,0-2.58.83-3.24,1.34s-2.01,2.76-2.01,2.76c0,0-.83-2.58-1.34-3.24s-2.76-2.01-2.76-2.01Z" style="fill:#a99ebc;"/></g></g><g style="opacity:.6;"><g><path d="m498.27,506.38s1.52,3.5,2.33,4.35,4.15,2.43,4.15,2.43c0,0-3.41,1.43-4.25,2.24s-2.52,4.24-2.52,4.24c0,0-1.52-3.5-2.33-4.35s-4.15-2.43-4.15-2.43c0,0,3.5-1.52,4.35-2.33s2.43-4.15,2.43-4.15Z" style="fill:#a99ebc;"/><path d="m716.87,650.66s-2.74,1.41-3.38,2.1-1.74,3.47-1.74,3.47c0,0-1.33-2.67-2.03-3.31s-3.54-1.81-3.54-1.81c0,0,2.74-1.41,3.38-2.1s1.74-3.47,1.74-3.47c0,0,1.41,2.74,2.1,3.38s3.47,1.74,3.47,1.74Z" style="fill:#a99ebc;"/></g></g><g style="opacity:.6;"><g><path d="m795.62,520.86s-1.37,3.89-1.36,5.16,1.5,4.98,1.5,4.98c0,0-3.75-1.38-5.01-1.36s-5.12,1.5-5.12,1.5c0,0,1.37-3.89,1.36-5.16s-1.5-4.98-1.5-4.98c0,0,3.89,1.37,5.16,1.36s4.98-1.5,4.98-1.5Z" style="fill:#a99ebc;"/><path d="m587.07,359.14s2.65,1.46,3.57,1.6,3.78-.49,3.78-.49c0,0-1.44,2.55-1.58,3.46s.47,3.88.47,3.88c0,0-2.65-1.46-3.57-1.6s-3.78.49-3.78.49c0,0,1.46-2.65,1.6-3.57s-.49-3.78-.49-3.78Z" style="fill:#a99ebc;"/><path d="m335.19,272.23s-2.13-1.99-2.95-2.34-3.64-.44-3.64-.44c0,0,1.95-2.03,2.3-2.86s.48-3.73.48-3.73c0,0,2.13,1.99,2.95,2.34s3.64.44,3.64.44c0,0-1.99,2.13-2.34,2.95s-.44,3.64-.44,3.64Z" style="fill:#a99ebc;"/></g></g><g style="opacity:.6;"><g><path d="m505.41,256.21s3.06,3.96,4.36,4.77,6.05,1.75,6.05,1.75c0,0-3.87,2.91-4.68,4.21s-1.84,6.2-1.84,6.2c0,0-3.06-3.96-4.36-4.77s-6.05-1.75-6.05-1.75c0,0,3.96-3.06,4.77-4.36s1.75-6.05,1.75-6.05Z" style="fill:#a99ebc;"/><path d="m722.43,220.45s-4.28,2.99-5.2,4.3-2.13,6.22-2.13,6.22c0,0-2.84-4.18-4.15-5.09s-6.36-2.23-6.36-2.23c0,0,4.28-2.99,5.2-4.3s2.13-6.22,2.13-6.22c0,0,2.99,4.28,4.3,5.2s6.22,2.13,6.22,2.13Z" style="fill:#a99ebc;"/><path d="m1017.9,235.49s-4.59,3.27-5.56,4.69-2.23,6.73-2.23,6.73c0,0-3.11-4.48-4.53-5.45-1.43-.97-6.89-2.34-6.89-2.34,0,0,4.59-3.27,5.56-4.69s2.23-6.73,2.23-6.73c0,0,3.27,4.59,4.69,5.56s6.73,2.23,6.73,2.23Z" style="fill:#a99ebc;"/></g></g><g style="opacity:.5;"><g><path d="m543.53,673.52s1.93,3.8,2.88,4.69,4.78,2.43,4.78,2.43c0,0-3.7,1.82-4.59,2.78s-2.53,4.89-2.53,4.89c0,0-1.93-3.8-2.88-4.69s-4.78-2.43-4.78-2.43c0,0,3.8-1.93,4.69-2.88s2.43-4.78,2.43-4.78Z" style="fill:#327ea7;"/><path d="m803.02,621.78s2.27,3.61,3.31,4.4,4.99,1.97,4.99,1.97c0,0-3.52,2.16-4.31,3.2s-2.06,5.11-2.06,5.11c0,0-2.27-3.61-3.31-4.4s-4.99-1.97-4.99-1.97c0,0,3.61-2.27,4.4-3.31s1.97-4.99,1.97-4.99Z" style="fill:#327ea7;"/><path d="m1032.5,495.1s.66,3.97,1.27,5.04,3.62,3.55,3.62,3.55c0,0-3.85.59-4.92,1.2s-3.67,3.69-3.67,3.69c0,0-.66-3.97-1.27-5.04s-3.62-3.55-3.62-3.55c0,0,3.97-.66,5.04-1.27s3.55-3.62,3.55-3.62Z" style="fill:#327ea7;"/></g></g><g style="opacity:.5;"><g><path d="m868.14,503.27s-1.03,3.09-1,4.1,1.25,3.91,1.25,3.91c0,0-2.98-1.03-3.98-1s-4.02,1.26-4.02,1.26c0,0,1.03-3.09,1-4.1s-1.25-3.91-1.25-3.91c0,0,3.09,1.03,4.1,1s3.91-1.25,3.91-1.25Z" style="fill:#327ea7;"/><path d="m690.59,322.28s4.24,3.5,5.83,4.05,6.9.4,6.9.4c0,0-3.43,4.06-3.99,5.65s-.47,7.08-.47,7.08c0,0-4.24-3.5-5.83-4.05s-6.9-.4-6.9-.4c0,0,3.5-4.24,4.05-5.83s.4-6.9.4-6.9Z" style="fill:#327ea7;"/><path d="m447.18,332.37s1.01-3.61.91-4.75-1.66-4.41-1.66-4.41c0,0,3.48,1.02,4.62.92s4.54-1.67,4.54-1.67c0,0-1.01,3.61-.91,4.75s1.66,4.41,1.66,4.41c0,0-3.61-1.01-4.75-.91s-4.41,1.66-4.41,1.66Z" style="fill:#327ea7;"/><path d="m286.85,454.27s-4.91-.9-6.42-.64-5.66,2.73-5.66,2.73c0,0,.93-4.74.67-6.25s-2.76-5.83-2.76-5.83c0,0,4.91.9,6.42.64s5.66-2.73,5.66-2.73c0,0-.9,4.91-.64,6.42s2.73,5.66,2.73,5.66Z" style="fill:#327ea7;"/></g></g><g style="opacity:.5;"><g><path d="m590.45,239.51s-3.01,1.73-3.69,2.55-1.77,3.99-1.77,3.99c0,0-1.64-2.93-2.46-3.61s-4.09-1.85-4.09-1.85c0,0,3.01-1.73,3.69-2.55s1.77-3.99,1.77-3.99c0,0,1.73,3.01,2.55,3.69s3.99,1.77,3.99,1.77Z" style="fill:#327ea7;"/><path d="m773.05,246.12s4.13,1.22,5.46,1.13,5.11-1.83,5.11-1.83c0,0-1.23,3.99-1.14,5.31s1.84,5.26,1.84,5.26c0,0-4.13-1.22-5.46-1.13s-5.11,1.83-5.11,1.83c0,0,1.22-4.13,1.13-5.46s-1.83-5.11-1.83-5.11Z" style="fill:#327ea7;"/><path d="m1021.87,290.24s-.96-3.32-1.59-4.18-3.45-2.66-3.45-2.66c0,0,3.23-.89,4.08-1.52s2.76-3.52,2.76-3.52c0,0,.96,3.32,1.59,4.18s3.45,2.66,3.45,2.66c0,0-3.32.96-4.18,1.59s-2.66,3.45-2.66,3.45Z" style="fill:#327ea7;"/></g></g><g><path d="m960.98,158s.89,4.36,1.61,5.53,4.15,3.77,4.15,3.77c0,0-4.23.81-5.39,1.53s-3.9,4.23-3.9,4.23c0,0-.89-4.36-1.61-5.53s-4.15-3.77-4.15-3.77c0,0,4.36-.89,5.53-1.61s3.77-4.15,3.77-4.15Z" style="fill:#6b2960;"/><path d="m669.79,205.8s.81-5.48.46-7.14-3.25-6.17-3.25-6.17c0,0,5.29.85,6.95.5s6.35-3.29,6.35-3.29c0,0-.81,5.48-.46,7.14s3.25,6.17,3.25,6.17c0,0-5.48-.81-7.14-.46s-6.17,3.25-6.17,3.25Z" style="fill:#6b2960;"/><path d="m378.51,163.83s6.53-2.36,8.16-3.74,4.88-7.26,4.88-7.26c0,0,2.21,6.35,3.58,7.98s7.41,5.06,7.41,5.06c0,0-6.53,2.36-8.16,3.74s-4.88,7.26-4.88,7.26c0,0-2.36-6.53-3.74-8.16s-7.26-4.88-7.26-4.88Z" style="fill:#6b2960;"/></g><g><path d="m631.22,716.86s-3.03-.14-3.91.15-3.18,2.11-3.18,2.11c0,0,.17-2.93-.11-3.81s-2.14-3.28-2.14-3.28c0,0,3.03.14,3.91-.15s3.18-2.11,3.18-2.11c0,0-.14,3.03.15,3.91s2.11,3.18,2.11,3.18Z" style="fill:#6b2960;"/><path d="m869.82,713.92s1.92-4.75,1.97-6.32-1.58-6.25-1.58-6.25c0,0,4.57,1.91,6.15,1.96s6.43-1.58,6.43-1.58c0,0-1.92,4.75-1.97,6.32s1.58,6.25,1.58,6.25c0,0-4.75-1.92-6.32-1.97s-6.25,1.58-6.25,1.58Z" style="fill:#6b2960;"/></g><g><path d="m804.16,86.58c.38-1.42,3.95-1.97,4.49-3.29s2.66-1.85,3.36-3.1-1.2-4.24-.35-5.4,4.23-.25,5.23-1.3-.58-4.95.53-5.87,3.84.1,5.06-.69,1.49-3.52,2.79-4.16,4.6,3.63,5.97,3.15,1.24-6.08,2.66-6.4,3.07-1.09,4.52-1.24,3.17,3.53,4.63,3.55,2.55,1.97,4,2.15c1.64.21,3.31-.97,4.94-.53,1.43.38,2.16,2.14,3.5,2.67s3.22-.48,4.5.2,4.7-1.83,5.9-1.01-1.07,6.13.01,7.1,5.41-1.3,6.37-.21,2.2,2.33,3.03,3.53.08,3.56.76,4.85-2.43,4.09-1.91,5.45,6.63.93,6.98,2.35-.53,3.29-.36,4.75-4.54,3-4.56,4.47,5.41,3.23,5.21,4.69-.31,3.17-.7,4.6-5.61,1.18-6.16,2.52-.05,2.93-.77,4.2-2.17,1.77-3.04,2.94,1.66,5.19.65,6.25-4.84-.94-5.98-.02-1.33,2.87-2.57,3.66-3.3-.34-4.63.29-.46,6.77-1.85,7.24-3.24.65-4.69.95-3.6-3.56-5.07-3.43-2.78.15-4.26.11-2.91.72-4.37.51-2.59-1.44-4.03-1.82c-1.64-.43-4.77,3.22-6.3,2.59-1.35-.55-.19-6.39-1.45-7.08s-3.95,1.06-5.12.22-.23-4.1-1.29-5.07-2.79-.98-3.73-2.06-1.33-2.37-2.14-3.56-.26-2.84-.92-4.12-6.8-.13-7.31-1.48,5.14-4.53,4.81-5.94-1.5-2.29-1.66-3.73-3.06-2.6-3.03-4.06.28-2.89.49-4.34-2.52-3.67-2.14-5.08Z" style="fill:#c4277b;"/><path d="m831.45,63.1c9.78-3.47,20.09-2.36,28.55,2.2,2.96,2.68,5.48,5.9,7.41,9.57.72,1.38,1.36,2.82,1.9,4.32,6.52,18.04-2.96,37.9-21.16,44.36-9.78,3.47-20.09,2.37-28.55-2.2-4.07-3.69-7.32-8.39-9.31-13.89-.54-1.5-.97-3.02-1.3-4.54-3.58-16.72,5.77-33.9,22.46-39.82Z" style="fill:#e4539f;"/><path d="m860,65.29c5.97,3.22,11.03,8.17,14.31,14.45.72,1.38,1.36,2.82,1.9,4.32,6.52,18.04-2.96,37.9-21.16,44.36-12.65,4.49-26.18,1.32-35.45-7.08,8.46,4.57,18.77,5.67,28.55,2.2,18.2-6.46,27.68-26.32,21.16-44.36-.54-1.5-1.18-2.94-1.9-4.32-1.92-3.67-4.45-6.89-7.41-9.57Z" style="fill:#c14483;"/><ellipse cx="826.73" cy="91.47" rx="1.93" ry="1.91" style="fill:#d32a84;"/><ellipse cx="827.29" cy="112.2" rx="2.82" ry="2.79" style="fill:#d32a84;"/><ellipse cx="844.56" cy="116.84" rx="1.19" ry="1.18" style="fill:#d32a84;"/><ellipse cx="853.89" cy="106.03" rx="1.19" ry="1.18" style="fill:#d32a84;"/><ellipse cx="855.84" cy="87.86" rx="2.97" ry="2.94" style="fill:#d32a84;"/><ellipse cx="843.02" cy="77.26" rx="1.04" ry="1.03" style="fill:#d32a84;"/><ellipse cx="837.35" cy="96.45" rx="2.23" ry="2.2" style="fill:#d32a84;"/><ellipse cx="873.03" cy="101.43" rx="1.48" ry="1.47" style="fill:#d32a84;"/><ellipse cx="860.96" cy="115.55" rx="1.04" ry="1.03" style="fill:#d32a84; stroke:#e4539f; stroke-miterlimit:10; stroke-width:.3px;"/><ellipse cx="833.45" cy="123.59" rx=".59" ry=".59" style="fill:#d32a84;"/><ellipse cx="813.28" cy="94.37" rx="1.63" ry="1.62" style="fill:#d32a84;"/><ellipse cx="825.47" cy="77.08" rx="1.78" ry="1.76" style="fill:#d32a84;"/></g><g><g><path d="m611.64,703.5c-2.58,0-5.16-.24-7.68-.71-4.27-.8-8.38-2.26-12.19-4.35-1.08-.58-2.14-1.23-3.17-1.92-5.5-3.69-10.07-8.69-13.22-14.47-.43-.78-.82-1.57-1.18-2.34-2.48-5.35-3.74-11.07-3.74-17.01,0-.4,0-.8.02-1.2.63-21.55,18.15-38.94,39.9-39.58.42-.01.84-.02,1.26-.02,3.4,0,6.78.41,10.04,1.22l.1.02c1.34.34,2.67.74,3.95,1.21,3.18,1.15,6.22,2.68,9.03,4.57,1.78,1.2,3.49,2.56,5.07,4.03,5.77,5.36,9.83,12.18,11.75,19.74.83,3.25,1.25,6.62,1.25,10.01,0,22.5-18.47,40.8-41.18,40.8Z" style="fill:#25cbf4;"/><path d="m611.64,622.7c3.34,0,6.65.4,9.85,1.2l.14.03c1.29.33,2.58.72,3.83,1.17,3.12,1.12,6.1,2.63,8.85,4.48,1.75,1.18,3.43,2.51,4.97,3.95,5.66,5.26,9.64,11.95,11.53,19.36.81,3.19,1.22,6.49,1.22,9.82,0,22.06-18.12,40.01-40.39,40.01-2.53,0-5.07-.23-7.53-.7-4.19-.78-8.22-2.22-11.96-4.27-1.05-.57-2.1-1.21-3.11-1.88-5.39-3.62-9.88-8.52-12.97-14.19-.42-.77-.81-1.54-1.16-2.3-2.43-5.25-3.66-10.86-3.66-16.67,0-.39,0-.78.02-1.18.62-21.13,17.81-38.18,39.14-38.82.41-.01.82-.02,1.23-.02m0-1.58c-.43,0-.86,0-1.28.02-22.18.66-40.03,18.36-40.67,40.35-.01.4-.02.81-.02,1.22,0,6.19,1.36,12.06,3.81,17.34.37.81.78,1.61,1.2,2.39,3.23,5.93,7.87,10.99,13.47,14.74,1.04.7,2.12,1.36,3.23,1.96,3.82,2.09,8,3.61,12.43,4.43,2.53.47,5.15.72,7.82.72,23.18,0,41.97-18.62,41.97-41.59,0-3.52-.44-6.94-1.27-10.21-1.99-7.83-6.22-14.77-11.98-20.12-1.61-1.5-3.34-2.87-5.17-4.1-2.83-1.91-5.92-3.48-9.2-4.66-1.34-.49-2.71-.9-4.12-1.25h0c-3.27-.81-6.7-1.24-10.23-1.24h0Z" style="fill:#bff6ff;"/></g><g><path d="m650.68,652.87c-1.97,2.8-4.17,6.26-6.7,10.27-13.45,21.3-10.61,26.46-18.9,32.32-7.61,5.38-14.47,4.18-21.09,6.55-4.26-.79-8.29-2.26-11.96-4.27,4.31-1.93,13.62-6.64,20.25-14.97,4.25-5.35,2.17-5.61,10.97-25.67,4.45-10.14,6.72-15.26,9.14-17.52,2.58-2.4,4.82-4.41,6.75-6.08,5.54,5.15,9.61,11.83,11.53,19.36Z" style="fill:#25cbf4;"/><path d="m634.18,629.56c-5.88,6.74-11.37,17.44-15.19,27.54-5.56,14.7-3.58,17.53-9.14,24.46-4.85,6.04-10.63,9.2-20.92,14.29-5.39-3.62-9.86-8.48-12.96-14.19,4.91-1.76,10.07-4.19,14.38-6.75,5.86-3.47,12.43-7.37,17.68-15.1,7.04-10.37,2.98-14.8,11.28-26.88,1.75-2.55,3.06-4,6.03-7.87,3.15,1.14,6.12,2.65,8.85,4.48Z" style="fill:#6edaf4;"/><path d="m621.36,623.87c-3.76,4.74-6.05,9.33-8.47,14.51-9.7,20.72-7.08,19.77-10.67,24.16-3.95,4.84-10.36,8.16-23.16,14.8-1.61.84-3,1.51-4.26,2.04-2.35-5.08-3.67-10.73-3.67-16.68,0-.39,0-.79.02-1.17,4.11-4.09,6.57-11.01,15.52-18.61,9.02-7.64,13.06-6.16,19.51-14.19.2-.25,2.25-2.84,4.1-6.02.41-.01.82-.02,1.23-.02,3.4,0,6.69.41,9.84,1.2Z" style="fill:#b7e8f4;"/><path d="m639.15,633.51c-1.93,1.67-4.18,3.68-6.75,6.08-2.42,2.26-4.7,7.37-9.14,17.52-8.8,20.06-6.72,20.33-10.97,25.67-6.63,8.33-15.94,13.04-20.25,14.97-1.07-.58-2.11-1.21-3.11-1.88,10.29-5.09,16.06-8.25,20.92-14.29,5.57-6.93,3.58-9.76,9.14-24.46,3.82-10.11,9.31-20.81,15.19-27.54,1.76,1.19,3.42,2.51,4.97,3.95Z" style="fill:#49d3f4;"/><path d="m625.33,625.08c-2.97,3.86-4.29,5.32-6.03,7.87-8.3,12.08-4.23,16.51-11.28,26.88-5.25,7.73-11.82,11.63-17.68,15.1-4.31,2.55-9.47,4.99-14.38,6.75-.41-.75-.8-1.52-1.16-2.3,1.26-.52,2.65-1.2,4.26-2.04,12.81-6.64,19.21-9.96,23.16-14.8,3.58-4.39.97-3.44,10.67-24.16,2.42-5.18,4.71-9.77,8.47-14.51h0c1.35.34,2.67.74,3.96,1.21Z" style="fill:#92e1f4;"/><path d="m651.9,662.69c0,22.1-18.08,40.02-40.38,40.02-2.57,0-5.09-.24-7.53-.69,6.62-2.38,13.48-1.18,21.09-6.55,8.28-5.85,5.45-11.02,18.9-32.32,2.53-4.01,4.73-7.47,6.7-10.27.8,3.14,1.23,6.43,1.23,9.82Z" style="fill:#00c5f4;"/><path d="m610.29,622.7c-1.85,3.18-3.9,5.77-4.1,6.02-6.44,8.03-10.49,6.55-19.51,14.19-8.96,7.59-11.41,14.52-15.52,18.61.62-21.15,17.79-38.19,39.13-38.82Z" style="fill:#dceff4;"/></g><path d="m673.03,678.37c-.31,1.65-9.04,1.58-22.55.13h0c-10.87-1.17-24.82-3.23-39.96-6.01-2.7-.5-5.35-1-7.95-1.51h0c-12.62-2.46-23.98-5.04-32.87-7.41-12.36-3.29-19.97-6.17-19.67-7.76.29-1.56,8.08-1.58,20.3-.36-.1.55-.19,1.11-.26,1.67-4.87-.21-7.76.08-7.92.92-.16.87,2.58,2.2,7.44,3.79.14.04.27.09.41.13.97.31,2.02.63,3.14.97h0c8.88,2.61,22.37,5.71,37.57,8.49.02,0,.03,0,.05,0,0,0,0,0,0,0,16.45,3.01,31.14,4.97,40.3,5.53,6.01.36,9.65.12,9.82-.83.17-.92-2.93-2.37-8.36-4.09.03-.15.07-.3.1-.46.08-.37.16-.74.23-1.12,12.63,3.34,20.45,6.27,20.15,7.89Z" style="fill:#58237f; opacity:.5;"/><path d="m653.57,664.54c-.01.26-.02.51-.04.76-.01.26-.03.51-.06.76h.01c6.83,1.04,10.89,2.17,10.84,3.21-.03.89-3.07,1.59-8.26,2.07-1.05.1-2.19.18-3.41.26h-.01c-.57.04-1.16.07-1.76.1-3.51.19-7.6.3-12.12.33-6.39.06-13.65-.04-21.39-.32-.92-.03-1.84-.07-2.78-.11-.21,0-.42-.01-.63-.02-1.05-.04-2.1-.09-3.13-.14h-.02s-.05,0-.07-.01c-2.77-.13-5.5-.28-8.12-.44h-.02s-.03,0-.04-.01c-1.84-.11-3.62-.23-5.37-.36h-.01c-1.66-.12-3.28-.25-4.86-.38h-.01c-8.61-.73-15.85-1.61-20.85-2.53-.53-.09-1.03-.19-1.51-.29-3.84-.78-6-1.59-5.97-2.35.03-.68,1.82-1.25,4.99-1.69h.01c.23-.04.46-.07.7-.1v-.57c0-.28,0-.56.01-.84h0c0-.14.01-.26.01-.38v-.03c-.36.02-.71.03-1.06.05h-.01c-1.84.1-3.54.21-5.12.33-7.41.6-11.8,1.52-11.85,2.72-.07,1.53,7.03,3.22,18.54,4.69.5.06,1,.13,1.51.19,5.45.67,11.8,1.3,18.79,1.84,1.68.13,3.4.26,5.15.38,4.78.33,9.8.62,15,.86h.04c1.07.05,2.14.09,3.23.14.13.01.26.01.39.01.9.04,1.79.08,2.68.11.59.02,1.19.05,1.78.06h.02c6.8.24,13.3.37,19.32.4,4.41.03,8.56,0,12.39-.09.61,0,1.2-.03,1.79-.04,1.07-.03,2.09-.06,3.1-.1h.01c1.96-.07,3.8-.15,5.53-.26h.01c9.72-.55,15.65-1.58,15.71-2.97.07-1.72-8.94-3.64-23.08-5.24Z" style="fill:#7f237a; opacity:.5;"/></g><path d="m1039.29,274.23c-.74-.24-1.47-.49-2.21-.73-2.06-.68-4.13-1.35-6.19-2.01-2.22-.72-4.44-1.43-6.66-2.14-.21-.06-.41-.12-.61-.19-1.48-.46-2.95-.93-4.43-1.39h0s55.66,96.41,55.66,96.41c.86-.41,1.71-.83,2.56-1.26-12.01-29.86-24.72-59.43-38.12-88.69Zm46.45,109.74l-51.7,89.55-46.81,81.08c16.72-10.62,33.12-21.76,49.2-33.36.01,0,.01-.01.01-.01l26.03-45.1,35.16-60.91c-3.87-10.45-7.84-20.87-11.89-31.25Zm-8.33-21.05c-12.01-29.86-24.72-59.43-38.12-88.69-4.7-10.28-9.49-20.53-14.37-30.73-6.43-13.46-13.22-27.12-21.26-39.75-8.03-2.07-16.19-3.8-24.46-5.24l39.99,69.26h0s55.66,96.41,55.66,96.41l9.79,16.95c-2.38-6.08-4.79-12.15-7.23-18.21Zm8.33,21.05l-51.7,89.55-46.81,81.08c16.72-10.62,33.12-21.76,49.2-33.36.01,0,.01-.01.01-.01l26.03-45.1,35.16-60.91c-3.87-10.45-7.84-20.87-11.89-31.25Zm-8.33-21.05c-12.01-29.86-24.72-59.43-38.12-88.69-4.7-10.28-9.49-20.53-14.37-30.73-6.43-13.46-13.22-27.12-21.26-39.75-8.03-2.07-16.19-3.8-24.46-5.24l39.99,69.26h0s55.66,96.41,55.66,96.41l9.79,16.95c-2.38-6.08-4.79-12.15-7.23-18.21Zm8.33,21.05l-51.7,89.55-46.81,81.08c16.72-10.62,33.12-21.76,49.2-33.36.01,0,.01-.01.01-.01l26.03-45.1,35.16-60.91c-3.87-10.45-7.84-20.87-11.89-31.25Zm-8.33-21.05c-12.01-29.86-24.72-59.43-38.12-88.69-4.7-10.28-9.49-20.53-14.37-30.73-6.43-13.46-13.22-27.12-21.26-39.75-8.03-2.07-16.19-3.8-24.46-5.24l39.99,69.26h0s55.66,96.41,55.66,96.41l9.79,16.95c-2.38-6.08-4.79-12.15-7.23-18.21Zm21.3-13.41l-39.57-68.53-42.45-73.54-7.93-13.72-30.44-52.73-50.08-86.74L896.63-.5h-443.42l-67.46,116.85-1.14,1.97-46.01,79.68-19.16,33.2-16.29,28.21-18.41,31.89-6.61,11.44-46.11,79.87-.52.9,2.15,3.72,14.26,24.71,17.38,30.09,29.15,50.5,103.43,179.15.9,1.55,14.28,24.73,40.15,69.56h.01s443.42.01,443.42.01l15.18-26.3,25.57-44.29,12.49-21.63,7.5-12.99,12.67-21.94,70.51-122.13,24.16-41.85,33.86-58.65,19.77-34.24-19.63-34Zm-652.32,350.2l-11.16-19.33-.86-1.49-109.59-189.82-15.08-26.1-30.53-52.88h0s-15.34-26.58-15.34-26.58l50.29-87.11,9.73-16.84,20.09-34.8,8.54-14.79,19.1-33.09,46.13-79.88,1.59-2.76,50.08-86.74h411.08l17.51,30.32,46.8,81.07,10.71,18.54,20.2,35,3.52,6.08,39.99,69.26h0s55.66,96.41,55.66,96.41l9.79,16.95,1.37,2.38-.27.46-51.7,89.55-46.81,81.08-43.74,75.75-10.78,18.69-18.35,31.77-9.74,16.87-20.83,36.09-3.33,5.76h-411.08l-22.99-39.82Zm631.02-336.79c-12.01-29.86-24.72-59.43-38.12-88.69-4.7-10.28-9.49-20.53-14.37-30.73-6.43-13.46-13.22-27.12-21.26-39.75-8.03-2.07-16.19-3.8-24.46-5.24l39.99,69.26h0s55.66,96.41,55.66,96.41l9.79,16.95c-2.38-6.08-4.79-12.15-7.23-18.21Zm8.33,21.05l-51.7,89.55-46.81,81.08c16.72-10.62,33.12-21.76,49.2-33.36.01,0,.01-.01.01-.01l26.03-45.1,35.16-60.91c-3.87-10.45-7.84-20.87-11.89-31.25Zm-8.33-21.05c-12.01-29.86-24.72-59.43-38.12-88.69-4.7-10.28-9.49-20.53-14.37-30.73-6.43-13.46-13.22-27.12-21.26-39.75-8.03-2.07-16.19-3.8-24.46-5.24l39.99,69.26h0s55.66,96.41,55.66,96.41l9.79,16.95c-2.38-6.08-4.79-12.15-7.23-18.21Zm8.33,21.05l-51.7,89.55-46.81,81.08c16.72-10.62,33.12-21.76,49.2-33.36.01,0,.01-.01.01-.01l26.03-45.1,35.16-60.91c-3.87-10.45-7.84-20.87-11.89-31.25Zm-8.33-21.05c-12.01-29.86-24.72-59.43-38.12-88.69-4.7-10.28-9.49-20.53-14.37-30.73-6.43-13.46-13.22-27.12-21.26-39.75-8.03-2.07-16.19-3.8-24.46-5.24l39.99,69.26h0s55.66,96.41,55.66,96.41l9.79,16.95c-2.38-6.08-4.79-12.15-7.23-18.21Zm8.33,21.05l-51.7,89.55-46.81,81.08c16.72-10.62,33.12-21.76,49.2-33.36.01,0,.01-.01.01-.01l26.03-45.1,35.16-60.91c-3.87-10.45-7.84-20.87-11.89-31.25Zm-8.33-21.05c-12.01-29.86-24.72-59.43-38.12-88.69-4.7-10.28-9.49-20.53-14.37-30.73-6.43-13.46-13.22-27.12-21.26-39.75-8.03-2.07-16.19-3.8-24.46-5.24l39.99,69.26h0s55.66,96.41,55.66,96.41l9.79,16.95c-2.38-6.08-4.79-12.15-7.23-18.21Zm8.33,21.05l-51.7,89.55-46.81,81.08c16.72-10.62,33.12-21.76,49.2-33.36.01,0,.01-.01.01-.01l26.03-45.1,35.16-60.91c-3.87-10.45-7.84-20.87-11.89-31.25Z" style="fill:#83227d;"/></svg>