<?xml version="1.0" encoding="UTF-8"?><svg id="a" xmlns="http://www.w3.org/2000/svg" viewBox="0 0 1366 768"><path d="m783.46,298.55l-23.3-18.32-15.96,20.29-2.85,3.63-18.27,23.21-36.23,46.07,25.64,20.16,46.96-59.7,26.26-33.38.09-.12-2.34-1.84Z" style="fill:#f8f6ce; stroke:#f2de96; stroke-miterlimit:10; stroke-width:6px;"/><path d="m858.39,395.05l-112.56,40.84,15.79,29.79,19.75-8.25,5.46,10.31-18.01,11.53,4.24,8,11.37,21.44,23.65-17.73,72.39-54.28-22.08-41.65Zm-53.38,62.09l-5.26-9.92c9.67-4.17,25.32-10.1,46.93-17.8-16.69,10.73-30.58,19.97-41.67,27.72Z" style="fill:#f8f6ce; stroke:#f2de96; stroke-miterlimit:10; stroke-width:6px;"/><path d="m911.07,513.82l-8.34-25.23-1.89-5.73-25.91,8.56-86.68,28.65,16.45,49.79,22.54-7.45-6.23-18.82,90.06-29.77Z" style="fill:#f8f6ce; stroke:#f2de96; stroke-miterlimit:10; stroke-width:6px;"/><path d="m529.22,269.28l-.23-20.29c-.09-8.43-.31-15.12-.66-20.05-.16-2.21-.34-4.06-.55-5.57-.67-4.87-2.66-9.37-5.95-13.48-3.3-4.12-7.64-7.18-13-9.2-2.66-1-5.49-1.74-8.48-2.23-3.05-.5-6.26-.73-9.65-.69-7.07.08-13.26,1.25-18.55,3.5-.52.22-1.04.46-1.54.7-4.58,2.2-8.24,5.17-11.02,8.89-3.08,4.14-4.89,8.69-5.43,13.65-.06.56-.12,1.17-.17,1.83-.41,5.09-.56,12.92-.44,23.48l.22,20.29c.09,8.64.32,15.45.69,20.42.15,2.05.32,3.78.52,5.2.31,2.26.9,4.43,1.78,6.52,1.01,2.43,2.41,4.76,4.18,6.97,3.3,4.11,7.63,7.18,13,9.19,5.37,2.02,11.41,2.99,18.12,2.92,1.33,0,2.62-.07,3.89-.16,5.47-.4,10.36-1.51,14.66-3.34,5.3-2.26,9.49-5.45,12.57-9.59.7-.93,1.33-1.89,1.9-2.88,1.93-3.34,3.1-6.93,3.52-10.77.44-4.05.66-10.43.66-19.12,0-1.95-.02-4.01-.04-6.19Zm-43.27-38.49c0-1.22,0-2.35.02-3.38.1-4.1.51-6.65,1.22-7.66.89-1.25,2.19-1.89,3.89-1.91,2.01-.02,3.35.73,4.01,2.26.54,1.24.88,3.8,1.02,7.66.04.9.06,1.88.07,2.92l.56,50.96.04,3.52c.07,6.99-.19,11.41-.79,13.27-.6,1.86-2.01,2.81-4.23,2.83h-.08c-2.12,0-3.49-.79-4.09-2.37-.61-1.61-.95-5.85-1.03-12.73l-.03-2.47-.58-52.9Z" style="fill:#f8f6ce; stroke:#f2de96; stroke-miterlimit:10; stroke-width:6px;"/><path d="m625.79,232.95c-.29-1.6-.71-3.07-1.29-4.39-2.28-5.28-5.94-9.09-10.98-11.44-5.05-2.34-15.06-5.29-30.04-8.82l-22.46-5.31-6.37,26.96-10.12,42.83-7.86,33.31-2.91,12.3,2.33.55,29.36,6.94h.05s0-.01,0-.01l2.24-9.48,1.87-7.89,8.18-34.64c4.37,1.03,6.9,2.4,7.58,4.12.68,1.72.29,5.66-1.16,11.84l-4.61,19.52-1.46,6.19-2.12,8.97-.87,3.67,29.48,6.96,3.51-14.87,1.77-7.48.14-.57,1.77-7.51c2.19-9.32,3.27-15.07,3.24-17.26-.04-2.19-.85-4.78-2.43-7.76-1.58-2.98-5.33-5.95-11.27-8.91,7.08,1.02,12.17.27,15.26-2.27,1.74-1.42,3.32-3.87,4.76-7.33,1.11-2.69,2.13-6,3.06-9.93,1.75-7.38,2.2-13.47,1.35-18.29Zm-37.7-2.72c1.52.36,2.83.78,3.92,1.25,1.52.64,2.6,1.4,3.25,2.25,1.12,1.47,1.24,4.03.38,7.69l-1.5,6.35c-1.2,5.08-2.63,7.92-4.28,8.5-1.65.59-4.26.47-7.83-.38l5.81-24.59.25-1.07Z" style="fill:#f8f6ce; stroke:#f2de96; stroke-miterlimit:10; stroke-width:6px;"/><path d="m720.3,268.64c-1.09-5.54-3.73-10.08-7.94-13.62-1.21-1.02-2.63-2.06-4.26-3.12-4.06-2.68-9.44-5.51-16.13-8.51l-18.27-8.19-11.42-5.12-2,4.47-10.37,23.12-24.06,53.68-1.08,2.42-2.04,4.55-8.95,19.97,34.43,15.43c11.96,5.37,20.17,8.27,24.62,8.71,4.44.44,8.33-.71,11.68-3.44,3.35-2.73,6.66-7.75,9.94-15.06l4.49-10.03c1.63-3.64,2.72-6.94,3.26-9.9.51-2.78.54-5.25.09-7.43-.53-2.59-1.93-5.19-4.21-7.79-1.14-1.31-2.5-2.61-4.08-3.93-.75-.62-1.56-1.25-2.42-1.88,6.77,1.43,11.77,1.37,14.98-.18,3.22-1.55,6.24-5.49,9.07-11.82,4.2-9.35,5.75-16.79,4.67-22.33Zm-37.84,19.09c-1.42,1-3.58.84-6.5-.47-.71-.32-1.71-.74-3-1.26l10.78-24.06c3.05,1.41,5.02,2.54,5.92,3.37.9.83,1.37,2.08,1.43,3.73.05,1.66-.69,4.18-2.21,7.56-2.87,6.42-5.01,10.13-6.42,11.13Zm-11.82,29.57l-.89,1.99-3.63,8.11c-1.96,4.36-3.77,6.84-5.42,7.44-1.66.6-4.61.02-8.86-1.72l6.85-15.29,2.01-4.47,2.45-5.49,2.26-5.03c3.25,1.58,5.46,2.97,6.62,4.17.4.41.68.81.83,1.18.32.77.26,1.99-.18,3.66-.39,1.47-1.07,3.29-2.04,5.45Z" style="fill:#f8f6ce; stroke:#f2de96; stroke-miterlimit:10; stroke-width:6px;"/><path d="m829.92,349.09l-27.56-35.58-18.76,14.53,9.88,12.75h0s1.93,2.5,1.93,2.5l-74.98,58.09,19.97,25.78,74.98-58.09,11.86,15.31,18.76-14.53-16.08-20.76Z" style="fill:#f8f6ce; stroke:#f2de96; stroke-miterlimit:10; stroke-width:6px;"/></svg>