<?xml version="1.0" encoding="UTF-8"?><svg id="a" xmlns="http://www.w3.org/2000/svg" viewBox="0 0 1366 768"><g id="b"><line x1="590.96" y1="518.33" x2="544.83" y2="517.31" style="fill:none; stroke:#fabd74; stroke-miterlimit:10;"/><line x1="543.61" y1="516.58" x2="544.63" y2="470.45" style="fill:none; stroke:#fabd74; stroke-miterlimit:10;"/><g><line x1="765.71" y1="305.12" x2="803.17" y2="269.29" style="fill:none; stroke:#9d0060; stroke-miterlimit:10; stroke-width:3.81px;"/><polygon points="822.39 265.89 801.76 270.63 807.41 250.23 822.39 265.89" style="fill:#9d0060;"/></g><path d="m791.37,335.45l-54.82-57.3c15.52.32,29.76,5.74,40.08,16.53,10.32,10.79,15.11,25.26,14.74,40.77Z" style="fill:#fae174; stroke:#fabd74; stroke-miterlimit:10;"/><rect x="602.57" y="431.19" width="11.44" height="48.03" transform="translate(1362.5 363.61) rotate(136.27)" style="fill:#d65f8b; stroke:#fabd74; stroke-miterlimit:10;"/><path d="m648.15,489.15l-11.37-11.89,53.56-51.25c6.35-1.66,12.37-4.92,17.45-9.78,5.08-4.86,8.6-10.73,10.54-17l69.99-66.96,11.37,11.89c3.84,4.01,3.7,10.37-.31,14.21l-137.02,131.09c-4.01,3.84-10.37,3.7-14.21-.31Z" style="fill:#b52369; stroke:#fabd74; stroke-miterlimit:10;"/><path d="m636.78,477.26l-24.2-25.29,38.66-36.98c10.41,10.88,25.5,14.6,39.1,11.03l-53.56,51.25Z" style="fill:#d65f8b; stroke:#fabd74; stroke-miterlimit:10;"/><path d="m587.01,425.24l-10.33-10.8c-3.84-4.01-3.7-10.37.31-14.21l137.02-131.09c4.01-3.84,10.37-3.7,14.21.31l10.33,10.8-72.99,69.84c-4.72,1.85-9.18,4.63-13.06,8.35-3.89,3.72-6.86,8.05-8.92,12.68l-56.57,54.12Z" style="fill:#b52369; stroke:#fabd74; stroke-miterlimit:10;"/><path d="m718.34,399.23c4.17-13.43,1.12-28.67-9.29-39.55l55.08-52.7,24.2,25.29-69.99,66.96Z" style="fill:#d65f8b; stroke:#fabd74; stroke-miterlimit:10;"/><path d="m603.75,538.14l-78.51-82.06c18.45-17.31,50.73-13.14,72.31,9.41,21.58,22.55,24.31,54.99,6.21,72.65Z" style="fill:#b52369; stroke:#fabd74; stroke-miterlimit:10;"/><rect x="593.76" y="439.63" width="11.44" height="48.03" transform="translate(1353.15 384.23) rotate(136.27)" style="fill:#d65f8b; stroke:#fabd74; stroke-miterlimit:10;"/><path d="m842.5,529.55l-20.74-21.68,21.68-20.74,15.66,16.37c2.81,2.93,2.7,7.59-.23,10.39l-16.37,15.66Z" style="fill:#d9edfd; stroke:#8eb1ee; stroke-miterlimit:10;"/><path d="m794.07,565.72l-15.66-16.37,21.68-20.74,20.74,21.68-16.37,15.66c-2.93,2.81-7.59,2.7-10.39-.23Z" style="fill:#d9edfd; stroke:#8eb1ee; stroke-miterlimit:10;"/><rect x="786.49" y="449.99" width="30" height="30" transform="translate(-99.08 683.08) rotate(-43.73)" style="fill:#d9edfd; stroke:#8eb1ee; stroke-miterlimit:10;"/><rect x="743.14" y="491.47" width="30" height="30" transform="translate(-139.79 664.62) rotate(-43.73)" style="fill:#d9edfd; stroke:#8eb1ee; stroke-miterlimit:10;"/><path d="m759.55,442.84l-20.74-21.68,16.37-15.66c2.93-2.81,7.59-2.7,10.39.23l15.66,16.37-21.68,20.74Z" style="fill:#d9edfd; stroke:#8eb1ee; stroke-miterlimit:10;"/><path d="m716.19,484.32l-15.66-16.37c-2.81-2.93-2.7-7.59.23-10.39l16.37-15.66,20.74,21.68-21.68,20.74Z" style="fill:#d9edfd; stroke:#8eb1ee; stroke-miterlimit:10;"/><rect x="740.15" y="409.52" width="8" height="20" transform="translate(1571.86 208.21) rotate(136.27)" style="fill:#fae174; stroke:#fabd74; stroke-miterlimit:10;"/><rect x="706.91" y="441.32" width="8" height="20" transform="translate(1536.59 285.96) rotate(136.27)" style="fill:#fae174; stroke:#fabd74; stroke-miterlimit:10;"/><circle cx="680.15" cy="387.33" r="35" style="fill:#000a35; stroke:#fff; stroke-miterlimit:10; stroke-width:.57px;"/><circle cx="761.45" cy="324.77" r="5" style="fill:#fae174; stroke:#fabd74; stroke-miterlimit:10;"/><circle cx="728.21" cy="356.57" r="5" style="fill:#fae174; stroke:#fabd74; stroke-miterlimit:10;"/><circle cx="744.83" cy="340.67" r="5" style="fill:#fae174; stroke:#fabd74; stroke-miterlimit:10;"/><circle cx="646.59" cy="433.27" r="5" style="fill:#fae174; stroke:#fabd74; stroke-miterlimit:10;"/><circle cx="630.7" cy="448.48" r="5" style="fill:#fae174; stroke:#fabd74; stroke-miterlimit:10;"/><g id="c"><path d="m664.37,368.77c.37-1.08.79-2.55,1.46-4.34,1.38-3.69,2.33-6.23,3.8-7.78,4.14-4.37,13.3-1.72,25.62,1.84,6.65,1.92,8.12,3.04,9.09,4.49,2.87,4.32.4,10.27.08,13.16-.65.9-1.36,1.71-1.95,2.32-.63.66-1.14,1.1-1.32,1.21-.6.36-.58,3.11-2.4,7.01-1.4,2.99-2.77,5.53-3.76,5.69-1.2.19-3.55-1.81-4.36-2.52-1.95-1.69-2.5-3.02-3.06-3.36-.75-.47-3.41.09-7.47-1-3.67-.99-5.38-2.57-6.08-2.38-.63.18-2.5,1.1-4.98,1.73-.61.15-4.42.46-5.31-.3-.46-.39-.86-3.56-.24-7.58.31-1.99,1.35-5.42,1.46-6.23-.15-.37-.37-1.06-.58-1.98Z" style="fill:#fff;"/><path d="m664.37,368.77c.37-1.08.79-2.55,1.46-4.34.37-.99.71-1.89,1.03-2.72.96-.3,1.7-.41,2.03-.46,4.54-.61,10.13,1.22,11.86,4.91.94,2.01.08,3.16,1.51,5.85.6,1.14,1.94,3.66,3.87,3.84,2.97.27,4.02-5.35,7.31-5.51,1.82-.09,2.48,1.57,7.45,6.59.57.58,1.09,1.09,1.56,1.54-.63.66-1.14,1.1-1.32,1.21-.6.36-.58,3.11-2.4,7.01-1.4,2.99-2.77,5.53-3.76,5.69-1.2.19-3.55-1.81-4.36-2.52-1.95-1.69-2.5-3.02-3.06-3.36-.43-.27-1.5-.2-3.1-.3h0c.04-.46.13-1.01.29-1.66.33-1.34.75-2.23.39-3.43-.3-1-1-1.8-1.25-1.7-.24.09.08,1.02-.02,2.69-.04.66-.13,1.12-.26,1.79-.21,1.08-.41,1.64-.6,2.18-.47-.06-.97-.13-1.49-.24.13-.34.28-.74.43-1.24.12-.39.26-.87.37-1.49.31-1.75.14-3.53-.13-3.56-.22-.02-.28,1.14-1.09,3.25-.58,1.52-.96,1.97-1.3,2.62-.53-.15-1.02-.31-1.46-.48.44-.75.95-1.67,1.45-2.84.65-1.52,1.18-3.19,1-3.28-.14-.07-.63.92-1.77,2.62-.96,1.44-1.61,2.24-2.09,2.9-1.58-.73-2.46-1.36-2.92-1.23-.63.18-2.5,1.1-4.98,1.73-.61.15-4.42.46-5.31-.3-.46-.39-.86-3.56-.24-7.58.31-1.99,1.35-5.42,1.46-6.23-.15-.37-.37-1.06-.58-1.98Z" style="fill:#f4901e;"/><path d="m673.87,369.03c.39-1.54,1.95-2.48,3.49-2.1,1.54.39,2.48,1.95,2.1,3.49-.33,1.34-1.56,2.23-2.89,2.18.1-.09.17-.21.2-.35.1-.39-.14-.78-.52-.87s-.78.14-.87.52c-.03.14-.03.28.02.4-1.19-.58-1.86-1.94-1.52-3.28Z"/><path d="m692.04,373.61c.38-1.52,1.92-2.45,3.44-2.07s2.45,1.92,2.07,3.44c-.33,1.32-1.53,2.19-2.83,2.15.06-.08.11-.17.13-.27.1-.39-.14-.78-.52-.87s-.78.14-.87.52c-.02.09-.03.19-.01.27-1.11-.6-1.72-1.9-1.4-3.18Z"/><circle cx="674.69" cy="375.6" r=".9" style="fill:#42210b;"/><circle cx="692.96" cy="380.15" r=".9" style="fill:#42210b;"/><path d="m704.35,372.41c-.4,1.11-2.37,1.41-3.71,1.12-1.57-.34-3.29-1.71-3.08-2.9.22-1.23,1.43-2.19,4.19-1.55s3.02,2.17,2.6,3.34Z" style="fill:#d97f75;"/><path d="m671.87,366.45c-1.46-.36-3.03-1.68-2.82-2.84.22-1.22.81-2.35,4.02-1.6,2.94.69,3.21,1.71,2.99,2.88-.23,1.23-2.47,1.98-4.19,1.55Z" style="fill:#d97f75;"/><path d="m675.38,371.92c.1-.39.49-.62.87-.52s.62.49.52.87c-.03.14-.11.26-.2.35-.2,0-.4-.03-.61-.08s-.39-.12-.57-.21c-.04-.13-.05-.26-.02-.4Z" style="fill:#fff;"/><path d="m675.4,372.32c.18.09.37.16.57.21s.4.08.61.08l-1.18-.29Z" style="fill:#e3e3e3;"/><path d="m693.45,376.52c.1-.39.49-.62.87-.52s.62.49.52.87c-.03.1-.07.19-.13.27-.2,0-.41-.03-.61-.08-.24-.06-.46-.15-.67-.26-.01-.09,0-.18.01-.27Z" style="fill:#fff;"/><path d="m666.73,375.51c.29,1.19.87,2.04.99,2.2.89,1.28,1.56,1.74,1.55,1.97-.02.32-1.06,1.13-1.55,1.38-.6.31-.96.33-1.2.72-.08.14-.15.31-.18.49-.12-.03-.24-.08-.37-.17-.6-.38-.32-.71.04-3.15.27-1.84.51-2.87.72-3.44Z" style="fill:#f2874f;"/><path d="m693.36,385.78c.09-.21.97-.45,2.28-1.15.47-.25,1.08-.63,1.62-1.06-.16.54-.43,1.34-.82,2.51-.82,2.5-.96,3.13-1.44,3.17-.12,0-.23,0-.32,0,0,0,0-.02,0-.03.07-.42-.22-1.01-.65-1.69-.48-.77-.8-1.45-.68-1.75Z" style="fill:#f0854d;"/><path d="m691.65,385.02c.21-.56,1.01-.41,2.41-.93,2.16-.8,2.91-1.97,3.3-1.68.16.12.14.38-.1,1.16-.54.43-1.14.81-1.62,1.06-1.31.7-2.2.94-2.28,1.15-.12.29.2.97.68,1.75.42.68.72,1.27.65,1.69,0,.01,0,.02,0,.03-.73-.07-1-.68-1.87-1.8-.83-1.06-1.36-1.89-1.16-2.42Z" style="fill:#ac5e31;"/><path d="m666.73,375.51c.18-.51.33-.66.45-.68.41-.07,1.01,1.18,1.92,2.34,1.31,1.65,1.8,2.07,1.69,2.7-.08.48-.79.97-2.22,1.63-1.2.56-1.72.9-2.24.77.03-.18.1-.36.18-.49.24-.39.6-.42,1.2-.72.49-.25,1.53-1.06,1.55-1.38.01-.23-.66-.69-1.55-1.97-.11-.16-.69-1.01-.99-2.2Z" style="fill:#af603a;"/><path d="m686.08,371.43c.24.06.55.09.76-.09.19-.16.13-.34.28-.76.06-.17.26-.69.72-1.03.16-.12.52-.38.81-.26.25.1.34.32.57.7.08.13.28.22.5.22.2,0,.4-.09.52-.24.26-.33.07-.87-.09-1.14-.37-.63-1.13-.76-1.29-.79-1.13-.19-2.01.64-2.14.77-.04-.2-.19-.84-.79-1.31-.13-.1-.83-.63-1.66-.41-.38.1-1.06.42-1.07.94,0,.29.01.51.31.63.63.26.64-.54,1.43-.34.44.11.64.87.68,1,.11.44.06.84.04.94-.07.48-.24.68-.13.9.1.18.33.25.54.27Z" style="fill:#ac5e31;"/><path d="m685.61,373.12c-1.08-.31-1.76-.99-1.62-1.7.14-.71,1.3-1.12,2.18-.94,1.05.21,1.97,1.3,1.73,2.01-.23.65-.95,1.02-2.29.63Z" style="fill:#d97f75;"/><path d="m663.95,363.03c1.05-.64,2.07-1.06,2.92-1.33-.33.83-.67,1.73-1.03,2.72-.67,1.79-1.09,3.26-1.46,4.34-.03-.13-.06-.27-.09-.42,0-.05-.02-.1-.03-.15-.06-.34-.12-.71-.18-1.11,0-.05-.01-.11-.02-.16-.05-.39-.09-.81-.12-1.24,0-.05,0-.1,0-.16-.02-.4-.03-.82-.03-1.25,0-.07,0-.14,0-.2,0-.34.02-.69.04-1.05Z" style="fill:#d67e1a;"/><path d="m664.59,359.15c1-3.65,3.33-6.95,6.4-8.15,3.91-1.53,14.24-.16,18.26.84,7.52,1.88,17.45,4.45,18.51,12.51.55,4.18-.46,7.03-2.45,10.44-.27.47-.58.92-.89,1.36.32-2.9,2.8-8.84-.08-13.16-.97-1.45-2.44-2.57-9.09-4.49-12.32-3.56-21.48-6.21-25.62-1.84-1.07,1.13-1.87,2.8-2.76,5.06-.85.27-1.87.68-2.92,1.33.08-1.23.28-2.53.65-3.88Z" style="fill:#e3e3e3;"/><path d="m676.94,384.36c.49-.67,1.13-1.46,2.09-2.9,1.13-1.7,1.63-2.69,1.77-2.62.18.08-.35,1.76-1,3.28-.5,1.16-1.01,2.08-1.45,2.84-.52-.19-.99-.39-1.41-.59Z" style="fill:#d67e1a;"/><path d="m679.81,385.43c.34-.65.71-1.1,1.3-2.62.81-2.12.87-3.28,1.09-3.25.27.03.44,1.81.13,3.56-.11.61-.25,1.09-.37,1.49-.15.5-.3.9-.43,1.24-.46-.09-.93-.2-1.43-.33-.1-.03-.19-.05-.28-.08Z" style="fill:#d67e1a;"/><path d="m683.9,379.42c.24-.09.95.71,1.25,1.7.36,1.2-.06,2.09-.39,3.43-.16.65-.25,1.19-.29,1.66-.44-.03-.92-.07-1.44-.13.19-.54.39-1.1.6-2.18.13-.67.22-1.13.26-1.79.11-1.67-.22-2.59.02-2.69Z" style="fill:#d67e1a;"/><path d="m664.67,359.17c1-3.65,3.33-6.95,6.4-8.15,3.91-1.53,14.24-.16,18.26.84,7.52,1.88,17.45,4.45,18.51,12.51.55,4.18-.46,7.03-2.45,10.44-.84,1.44-1.96,2.77-2.84,3.68-.63.66-1.14,1.1-1.32,1.21-.6.36-.58,3.11-2.4,7.01-1.4,2.99-2.77,5.53-3.76,5.69-1.2.19-3.55-1.81-4.36-2.52-1.95-1.69-2.5-3.02-3.06-3.36-.75-.47-3.41.09-7.47-1-3.67-.99-5.38-2.57-6.08-2.38-.63.18-2.5,1.1-4.98,1.73-.61.15-4.42.46-5.31-.3-.46-.39-.86-3.56-.24-7.58.31-1.99,1.35-5.42,1.46-6.23-.38-.95-1.25-3.95-1-7.72.08-1.23.28-2.53.65-3.88Z" style="fill:none; stroke:#42210b; stroke-miterlimit:10; stroke-width:1.35px;"/></g><path d="m612.59,451.97l-25.58-26.73,56.57-54.12c-6.38,14.38-3.88,31.81,7.67,43.87l-38.66,36.98Z" style="fill:#d65f8b; stroke:#fabd74; stroke-miterlimit:10;"/><path d="m665.56,350.08l72.99-69.84,25.58,26.73-55.08,52.7c-11.54-12.07-28.84-15.33-43.49-9.6Z" style="fill:#d65f8b; stroke:#fabd74; stroke-miterlimit:10;"/><path d="m651.24,414.99c-11.54-12.07-14.05-29.49-7.67-43.87l21.98-21.03c14.65-5.74,31.95-2.47,43.49,9.6,10.41,10.88,13.46,26.12,9.29,39.55l-27.99,26.78c-13.6,3.58-28.69-.15-39.1-11.03Z" style="fill:none; stroke:#fff; stroke-miterlimit:10; stroke-width:.58px;"/><path d="m720,383.96s0-.07,0-.1v-.02c-.03-.39-.07-.78-.12-1.17,0-.03,0-.07,0-.11-.03-.23-.06-.46-.09-.69-.05-.35-.1-.7-.16-1.05-.03-.17-.06-.34-.09-.52v-.03c-.02-.09-.04-.18-.05-.27-.06-.32-.12-.64-.19-.96-.01-.02-.01-.04-.01-.06-.1-.44-.2-.88-.31-1.32-.12-.47-.24-.94-.38-1.41-.08-.29-.17-.58-.27-.88-.03-.1-.06-.19-.09-.29-.06-.21-.13-.42-.2-.62-.04-.14-.09-.27-.14-.41-.01-.04-.03-.07-.04-.11-.14-.39-.28-.78-.44-1.17-.02-.07-.05-.14-.08-.21-.19-.49-.39-.98-.61-1.46-.23-.51-.47-1.02-.72-1.53-.16-.32-.32-.64-.49-.95-.09-.18-.2-.37-.3-.55-.25-.47-.52-.93-.79-1.38-.04-.07-.09-.14-.13-.21-.28-.45-.56-.9-.86-1.34-.02-.03-.03-.06-.05-.08-.27-.4-.54-.78-.82-1.17-.1-.14-.2-.28-.31-.42-.26-.36-.53-.7-.8-1.04-.01,0-.02-.03-.03-.04-.03-.04-.06-.08-.09-.11-.3-.38-.62-.75-.93-1.12-.08-.09-.15-.17-.23-.25-.36-.42-.73-.83-1.12-1.23-.16-.17-.33-.34-.49-.5-.17-.17-.33-.34-.5-.5h-.01c-.67-.66-1.36-1.29-2.06-1.88-.03-.02-.05-.04-.07-.06-.11-.1-.22-.19-.33-.28-.04-.03-.08-.06-.12-.09-.18-.16-.37-.31-.56-.45-.03-.03-.05-.05-.08-.07-.42-.33-.85-.65-1.29-.97-.28-.2-.56-.4-.84-.59-.28-.19-.57-.38-.86-.57-.06-.04-.13-.08-.19-.12-.03-.02-.07-.04-.1-.06-.26-.17-.52-.33-.79-.49-.36-.22-.73-.44-1.1-.64-.37-.21-.74-.41-1.11-.6-.15-.08-.3-.16-.46-.23-.21-.11-.43-.22-.65-.32-.31-.16-.63-.31-.95-.45-.29-.13-.59-.25-.88-.37-.31-.13-.62-.26-.93-.38-.07-.03-.13-.06-.2-.08-.18-.07-.36-.13-.54-.2-.06-.02-.13-.05-.19-.07-.32-.11-.63-.22-.95-.33-.47-.16-.95-.3-1.43-.44-.06-.02-.12-.04-.19-.06-.41-.12-.82-.23-1.24-.33-.08-.02-.17-.05-.26-.06-.46-.12-.93-.22-1.4-.31-.09-.03-.19-.05-.29-.06-.45-.1-.89-.18-1.34-.25-.2-.04-.39-.07-.59-.09-.37-.06-.74-.11-1.11-.15-.27-.03-.54-.07-.8-.09-.27-.03-.54-.05-.8-.07-.11-.01-.21-.02-.32-.02-.3-.03-.6-.05-.9-.06-.2-.01-.4-.02-.59-.02-.29-.02-.58-.02-.87-.02-.25-.01-.49-.01-.74-.01h-.2c-.23,0-.47.01-.69.02-.19,0-.38,0-.58,0-.17.01-.34.02-.5.03-.51.03-1.01.06-1.52.11-.31.03-.61.06-.92.1-.31.03-.62.07-.93.11-.61.08-1.23.18-1.84.3-.39.07-.77.15-1.15.23-.22.05-.43.1-.64.15-.62.15-1.23.31-1.84.48-.32.09-.63.18-.95.28-.28.09-.56.18-.84.28-.59.19-1.17.41-1.75.63-1.19.46-2.35.98-3.5,1.58-.57.29-1.14.59-1.7.91-.28.16-.56.32-.83.49-.28.17-.56.34-.83.51-.27.17-.55.35-.82.53-.01,0-.01.01-.02.01-.49.34-.98.68-1.46,1.03-.57.42-1.12.85-1.67,1.31-.26.21-.51.43-.76.64-.26.22-.5.44-.75.67-.25.22-.5.45-.74.68-.19.17-.37.35-.54.53-.18.18-.35.36-.53.53-.18.18-.34.36-.51.54s-.34.37-.51.55h0c-.3.34-.6.68-.88,1.02-.35.41-.69.83-1.02,1.26-.2.25-.39.5-.57.76-.4.53-.77,1.07-1.13,1.61-.18.27-.36.54-.53.82-.17.27-.34.54-.5.82-.17.28-.33.55-.48.83-.16.28-.31.56-.46.85-.15.28-.3.56-.44.85-.15.28-.29.56-.42.85-.14.29-.27.58-.4.87h-.01c-.14.33-.27.65-.4.97-.14.32-.27.65-.39.98-.13.33-.25.66-.36.99-.14.38-.27.76-.39,1.14-.09.28-.17.57-.26.85-.09.34-.19.67-.28,1.01-.09.33-.17.67-.25,1.01-.07.3-.14.59-.2.89-.08.38-.16.76-.23,1.15-.05.25-.09.51-.13.76-.04.19-.07.38-.09.57-.04.24-.07.49-.1.73-.05.34-.09.69-.12,1.03-.04.31-.07.63-.09.94-.01.11-.01.21-.02.31-.03.31-.05.61-.06.92-.15,3.14.06,6.3.64,9.4.12.61.25,1.22.39,1.83.29,1.22.64,2.42,1.04,3.62.2.59.42,1.18.65,1.77.23.59.47,1.17.73,1.75.26.58.54,1.15.83,1.72.29.57.59,1.13.91,1.69.2.35.4.69.62,1.03.19.33.39.64.6.96.46.7.93,1.38,1.44,2.06.39.53.79,1.05,1.21,1.55.31.38.62.75.96,1.11.32.38.67.76,1.03,1.13.17.17.34.35.51.52.17.17.35.35.52.51.25.25.5.49.76.73.16.15.32.3.49.44.29.26.59.52.89.77.36.31.73.61,1.11.9.33.26.66.51,1,.76.42.31.85.61,1.28.9.34.23.69.46,1.03.67.45.29.9.56,1.35.82.88.51,1.77.98,2.68,1.41.61.29,1.22.56,1.83.82.31.13.62.26.93.37.62.24,1.24.47,1.87.68h0c.32.11.63.21.95.3.25.08.51.15.77.23.38.11.76.21,1.14.3.32.08.64.16.97.23.32.08.64.15.96.21h.01c.32.06.64.13.97.18.32.06.65.11.98.15.29.05.59.09.89.13.35.05.7.09,1.05.12h.02c2.16.22,4.34.25,6.51.11.43-.03.85-.06,1.28-.1.85-.08,1.7-.19,2.55-.33.41-.06.82-.14,1.22-.21.44-.09.87-.18,1.31-.28.41-.09.82-.2,1.23-.3.01,0,.02,0,.03-.01.8-.21,1.58-.44,2.37-.7.39-.13.78-.27,1.17-.41.01,0,.02,0,.03-.01.37-.14.75-.28,1.12-.43.34-.13.68-.27,1.01-.42.23-.1.45-.2.68-.3.06-.03.13-.06.19-.09.17-.07.33-.15.49-.23.22-.11.45-.21.67-.33.23-.11.45-.23.67-.35.04-.01.08-.03.12-.06.4-.21.8-.43,1.19-.66.31-.17.61-.35.91-.54.02,0,.04-.02.06-.03.23-.14.46-.28.69-.43.44-.29.88-.58,1.31-.88.2-.14.39-.27.58-.41.17-.13.34-.26.51-.39.07-.04.13-.08.19-.13.34-.26.68-.53,1.01-.8.03-.02.06-.04.08-.07.38-.3.76-.62,1.13-.95.04-.03.07-.06.1-.09.4-.35.79-.7,1.17-1.07.32-.3.63-.61.93-.92.28-.28.55-.57.82-.86.46-.5.91-1.01,1.34-1.53.02-.03.04-.05.07-.08.16-.2.33-.4.49-.6.18-.23.36-.46.54-.69.34-.44.66-.89.98-1.34.19-.27.38-.55.56-.83.26-.39.51-.78.75-1.17.21-.34.41-.68.61-1.03.17-.29.33-.57.48-.86.12-.22.23-.44.35-.67.11-.22.23-.45.34-.68.18-.37.36-.74.53-1.12.02-.05.05-.1.07-.15.27-.61.53-1.22.77-1.85.05-.11.09-.23.13-.35.14-.36.27-.73.4-1.1.14-.39.27-.78.39-1.17h0c.3-.98.56-1.95.78-2.93.23-.99.42-1.98.56-2.97.15-.93.26-1.86.33-2.79v-.03c.02-.15.03-.31.04-.47v-.08c.03-.36.05-.73.06-1.09,0-.03,0-.05,0-.08.02-.49.03-.98.03-1.47,0-1.12-.04-2.25-.14-3.37Zm-15.66,28.67s-.07.07-.11.1c-.01,0-.02.02-.03.03-.02.02-.03.03-.05.04l-.22.21c-.07.07-.15.14-.22.21-.05.04-.09.08-.14.12-.04.04-.09.08-.14.12-.03.03-.06.06-.09.08-.04.04-.08.08-.12.11-.09.09-.19.17-.28.25-.32.27-.64.53-.96.79l-.03.03c-.22.18-.44.35-.67.51-.22.17-.44.34-.66.5-.13.09-.25.19-.38.27-.3.22-.61.43-.93.63-.15.11-.32.21-.48.31-.06.04-.12.08-.18.11-.03.02-.05.04-.08.05-.02.01-.03.02-.05.03-.01.01-.03.02-.04.03-.22.15-.42.27-.65.39-.01,0-.01,0-.02,0-.02.01-.05.03-.07.04-.1.07-.21.13-.31.18-.47.27-.95.52-1.43.77-.49.25-.99.49-1.5.72,0,0-.02.01-.04.02-.35.15-.71.31-1.07.45-.06.02-.12.05-.18.07-.1.05-.21.09-.31.13-.35.14-.7.27-1.05.39-.03.01-.06.02-.09.03-.13.05-.26.1-.4.14-.09.03-.17.06-.26.09-.34.11-.69.22-1.04.32-.09.03-.18.05-.27.08-1.05.3-2.11.55-3.17.75-11.24,2.1-23.27-1.34-31.77-10.21-13.36-13.96-12.87-36.12,1.1-49.48.3-.28.6-.56.91-.83.23-.22.46-.42.7-.61.03-.03.07-.06.1-.09.29-.25.57-.48.87-.71.03-.03.07-.05.1-.08.32-.25.64-.5.98-.74.03-.02.06-.04.09-.06.16-.12.33-.24.49-.35.17-.12.33-.22.5-.33.1-.08.21-.15.32-.22.01,0,.01-.01.02-.01.24-.17.49-.33.74-.47.02-.02.04-.03.06-.04.04-.03.09-.05.13-.08.14-.09.29-.18.43-.26.33-.2.66-.39,1-.56.11-.07.22-.13.33-.18.37-.21.74-.4,1.12-.57.06-.03.12-.07.19-.1.21-.1.43-.2.65-.3.1-.05.19-.09.28-.13.12-.05.24-.11.36-.15.04-.03.08-.04.11-.05h.01c.05-.03.1-.05.15-.07.07-.03.15-.06.22-.09.04-.02.08-.03.12-.05.11-.04.22-.09.33-.13.11-.05.22-.09.32-.12.03-.01.06-.03.09-.04.15-.06.29-.11.44-.16.06-.03.12-.05.18-.06.01-.01.02-.01.03-.01t.02-.01c.26-.11.52-.2.79-.28.05-.02.1-.04.15-.05.1-.03.2-.07.3-.09.32-.11.64-.21.96-.3.93-.26,1.87-.49,2.82-.67.38-.08.75-.15,1.13-.2.09-.02.19-.04.29-.05.47-.08.95-.15,1.43-.19.47-.06.95-.11,1.43-.13.03,0,.07,0,.1,0,.24-.02.48-.04.72-.05.13,0,.27,0,.41,0h.08c1.36-.05,2.73-.01,4.09.1.98.08,1.95.21,2.91.36.32.05.63.1.95.17.32.06.64.13.96.2,0,0,0,.01.02.01,1.12.25,2.24.56,3.34.93.62.2,1.23.42,1.84.67.31.11.62.24.92.38.3.12.6.26.9.4.4.18.79.37,1.18.57h.01c.35.18.7.37,1.05.57.3.16.6.33.89.51.89.53,1.76,1.09,2.61,1.71.45.32.89.66,1.32,1.01.27.21.54.43.81.66.23.2.46.4.69.6.22.2.44.41.67.62.23.21.45.43.67.65.22.21.44.44.65.66.14.15.29.3.42.46.18.19.36.38.53.57.12.14.24.27.35.41.04.04.07.09.11.13.09.11.18.21.27.32.12.15.24.3.36.45h.01c.14.18.28.35.4.52.02.01.03.03.04.05,0,0,.02.02.03.04,0,.01.01.01.01.02v.02h.01c.09.12.18.24.27.35.1.13.2.26.29.39.1.13.2.26.29.39.09.13.18.26.26.39.14.21.29.42.42.63.13.19.26.39.38.6.15.23.29.47.43.71.11.17.21.35.31.53.01,0,.01.01.01.01.25.45.5.9.72,1.35.25.47.47.95.69,1.43.02.04.04.08.06.13.21.48.42.97.61,1.45.02.03.03.07.03.1.03.07.05.13.08.2.11.29.22.57.32.86.01.03.02.07.03.1.03.06.05.12.07.19.05.14.1.29.15.44.1.32.21.64.3.96.01.05.03.1.04.15.03.09.06.17.08.26.1.35.19.68.27,1.03.01.04.02.08.03.12,0,.02,0,.05.02.07.05.16.08.32.12.48.09.41.18.81.26,1.22.02.12.04.24.06.36.01.04.01.07.02.11.07.41.14.83.2,1.24.01.04.01.09.02.13.06.45.11.89.15,1.34.02.12.03.23.04.35.01.03.01.07.01.1.04.49.07.98.09,1.47v.12c.01.09.01.18.01.26.02.39.03.78.03,1.17,0,.63-.02,1.26-.05,1.89-.02.45-.06.89-.1,1.33-.03.36-.07.73-.11,1.1-.04.25-.07.5-.11.76-.03.25-.07.5-.12.75-.02.11-.04.22-.05.33-.04.22-.08.44-.13.66-.02.11-.04.23-.07.35-.04.19-.08.37-.12.56-.07.35-.16.69-.25,1.03-.08.34-.18.68-.28,1.02-.09.34-.2.68-.31,1.02-.11.34-.22.68-.34,1.01-.09.27-.19.54-.3.81-.33.85-.69,1.69-1.09,2.52-.12.26-.25.53-.39.79-.24.48-.5.95-.77,1.42-.14.25-.29.51-.44.76-.15.25-.31.5-.47.75-.14.22-.28.44-.43.66-.14.22-.29.43-.45.65-.24.35-.5.69-.76,1.04-.18.24-.36.47-.56.71-.33.41-.68.83-1.03,1.23-.2.23-.41.45-.62.68-.41.44-.84.88-1.28,1.31-.05.06-.11.11-.17.17Z" style="fill:#fae174; stroke:#fabd74; stroke-miterlimit:10;"/><rect x="806.3" y="514.08" width="30" height="30" transform="translate(-137.9 714.55) rotate(-43.73)" style="fill:#d9edfd; stroke:#8eb1ee; stroke-miterlimit:10;"/><rect x="764.82" y="470.73" width="30" height="30" transform="translate(-119.44 673.85) rotate(-43.73)" style="fill:#d9edfd; stroke:#8eb1ee; stroke-miterlimit:10;"/><rect x="723.34" y="427.37" width="30" height="30" transform="translate(-100.97 633.15) rotate(-43.73)" style="fill:#d9edfd; stroke:#8eb1ee; stroke-miterlimit:10;"/><rect x="722.4" y="469.79" width="30" height="30" transform="translate(-130.56 644.27) rotate(-43.73)" style="fill:#d9edfd; stroke:#8eb1ee; stroke-miterlimit:10;"/><rect x="744.08" y="449.05" width="30" height="30" transform="translate(-110.2 653.5) rotate(-43.73)" style="fill:#d9edfd; stroke:#8eb1ee; stroke-miterlimit:10;"/><rect x="765.76" y="428.31" width="30" height="30" transform="translate(-89.85 662.73) rotate(-43.73)" style="fill:#d9edfd; stroke:#8eb1ee; stroke-miterlimit:10;"/><rect x="763.88" y="513.14" width="30" height="30" transform="translate(-149.02 684.97) rotate(-43.73)" style="fill:#d9edfd; stroke:#8eb1ee; stroke-miterlimit:10;"/><rect x="785.56" y="492.4" width="30" height="30" transform="translate(-128.67 694.2) rotate(-43.73)" style="fill:#d9edfd; stroke:#8eb1ee; stroke-miterlimit:10;"/><rect x="807.23" y="471.67" width="30" height="30" transform="translate(-108.32 703.43) rotate(-43.73)" style="fill:#d9edfd; stroke:#8eb1ee; stroke-miterlimit:10;"/><path d="m648.25,326.51l-20.74-21.68,21.68-20.74,15.66,16.37c2.81,2.93,2.7,7.59-.23,10.39l-16.37,15.66Z" style="fill:#d9edfd; stroke:#8eb1ee; stroke-miterlimit:10;"/><path d="m599.81,362.68l-15.66-16.37,21.68-20.74,20.74,21.68-16.37,15.66c-2.93,2.81-7.59,2.7-10.39-.23Z" style="fill:#d9edfd; stroke:#8eb1ee; stroke-miterlimit:10;"/><rect x="592.24" y="246.95" width="30" height="30" transform="translate(-12.62 492.46) rotate(-43.73)" style="fill:#d9edfd; stroke:#8eb1ee; stroke-miterlimit:10;"/><rect x="548.88" y="288.43" width="30" height="30" transform="translate(-53.32 474) rotate(-43.73)" style="fill:#d9edfd; stroke:#8eb1ee; stroke-miterlimit:10;"/><path d="m565.29,239.8l-20.74-21.68,16.37-15.66c2.93-2.81,7.59-2.7,10.39.23l15.66,16.37-21.68,20.74Z" style="fill:#d9edfd; stroke:#8eb1ee; stroke-miterlimit:10;"/><path d="m521.94,281.28l-15.66-16.37c-2.81-2.93-2.7-7.59.23-10.39l16.37-15.66,20.74,21.68-21.68,20.74Z" style="fill:#d9edfd; stroke:#8eb1ee; stroke-miterlimit:10;"/><rect x="612.04" y="311.04" width="30" height="30" transform="translate(-51.43 523.93) rotate(-43.73)" style="fill:#d9edfd; stroke:#8eb1ee; stroke-miterlimit:10;"/><rect x="570.56" y="267.69" width="30" height="30" transform="translate(-32.97 483.23) rotate(-43.73)" style="fill:#d9edfd; stroke:#8eb1ee; stroke-miterlimit:10;"/><rect x="529.08" y="224.33" width="30" height="30" transform="translate(-14.5 442.53) rotate(-43.73)" style="fill:#d9edfd; stroke:#8eb1ee; stroke-miterlimit:10;"/><rect x="528.15" y="266.75" width="30" height="30" transform="translate(-44.09 453.65) rotate(-43.73)" style="fill:#d9edfd; stroke:#8eb1ee; stroke-miterlimit:10;"/><rect x="549.82" y="246.01" width="30" height="30" transform="translate(-23.74 462.88) rotate(-43.73)" style="fill:#d9edfd; stroke:#8eb1ee; stroke-miterlimit:10;"/><rect x="571.5" y="225.27" width="30" height="30" transform="translate(-3.38 472.11) rotate(-43.73)" style="fill:#d9edfd; stroke:#8eb1ee; stroke-miterlimit:10;"/><rect x="569.62" y="310.1" width="30" height="30" transform="translate(-62.55 494.35) rotate(-43.73)" style="fill:#d9edfd; stroke:#8eb1ee; stroke-miterlimit:10;"/><rect x="591.3" y="289.36" width="30" height="30" transform="translate(-42.2 503.58) rotate(-43.73)" style="fill:#d9edfd; stroke:#8eb1ee; stroke-miterlimit:10;"/><rect x="612.98" y="268.62" width="30" height="30" transform="translate(-21.85 512.81) rotate(-43.73)" style="fill:#d9edfd; stroke:#8eb1ee; stroke-miterlimit:10;"/><rect x="612.2" y="342.32" width="8" height="20" transform="translate(1305.01 180.92) rotate(136.27)" style="fill:#fae174; stroke:#fabd74; stroke-miterlimit:10;"/><rect x="645.44" y="310.52" width="8" height="20" transform="translate(1340.28 103.16) rotate(136.27)" style="fill:#fae174; stroke:#fabd74; stroke-miterlimit:10;"/><circle cx="541.44" cy="518.65" r="11" style="fill:#fae174; stroke:#fabd74; stroke-miterlimit:10;"/></g></svg>